<?xml version="1.0" encoding="UTF-8"?>
<svg version="1.1" xmlns="http://www.w3.org/2000/svg" width="500" height="500">
<path d="M0 0 C0.6909375 0.46277344 1.381875 0.92554688 2.09375 1.40234375 C10.67277429 7.94865146 14.60123765 18.2311912 16.53125 28.58203125 C19.37315859 51.0427974 16.41220423 72.80955427 9 94 C8.64292969 95.0621875 8.28585937 96.124375 7.91796875 97.21875 C0.85695154 116.97961794 -10.24590302 133.33349682 -24.56005859 148.45849609 C-26.67293821 150.72040215 -28.70715964 153.0499019 -30.75 155.375 C-34.02940926 159.04793837 -37.46513865 162.31095716 -41.2734375 165.4296875 C-43.10580315 166.99049126 -43.10580315 166.99049126 -44.6015625 169.1953125 C-45.29378906 170.08863281 -45.29378906 170.08863281 -46 171 C-46.66 171 -47.32 171 -48 171 C-48 171.66 -48 172.32 -48 173 C-49.66666667 174.33333333 -51.33333333 175.66666667 -53 177 C-53.825 177.99 -54.65 178.98 -55.5 180 C-57.83518237 182.80221884 -60.16900965 184.73520772 -63 187 C-63.825 187.99 -64.65 188.98 -65.5 190 C-67.83518237 192.80221884 -70.16900965 194.73520772 -73 197 C-73.825 197.99 -74.65 198.98 -75.5 200 C-77.82632941 202.79159529 -80.16507614 204.76190222 -83 207 C-83.556875 207.7425 -84.11375 208.485 -84.6875 209.25 C-85.120625 209.8275 -85.55375 210.405 -86 211 C-86.66 211 -87.32 211 -88 211 C-88 211.66 -88 212.32 -88 213 C-89.66666667 214.33333333 -91.33333333 215.66666667 -93 217 C-93.825 217.99 -94.65 218.98 -95.5 220 C-97.83518237 222.80221884 -100.16900965 224.73520772 -103 227 C-103.825 227.99 -104.65 228.98 -105.5 230 C-107.83518237 232.80221884 -110.16900965 234.73520772 -113 237 C-113.825 237.99 -114.65 238.98 -115.5 240 C-117.83721966 242.80466359 -120.13004333 244.77578358 -123 247 C-124.67911686 248.65412277 -126.34440104 250.32233864 -128 252 C-174 298 -174 298 -176.69946289 300.68359375 C-178.52833995 302.52508643 -180.18605107 304.36036537 -181.8125 306.375 C-183.95962293 308.92026207 -186.1992318 311.11810312 -188.73754883 313.27099609 C-192.79689149 316.7812991 -196.60899771 320.47994953 -200.38671875 324.2890625 C-201.05161819 324.95537689 -201.71651764 325.62169128 -202.40156555 326.30819702 C-204.49926759 328.4114317 -206.59344856 330.5181313 -208.6875 332.625 C-210.10197896 334.04450462 -211.51669068 335.46377735 -212.93164062 336.8828125 C-216.09350687 340.05456561 -219.25306682 343.22859543 -222.41056824 346.4046936 C-223.88366011 347.88323011 -225.36216791 349.35613669 -226.84179688 350.828125 C-228.62018086 352.61777476 -230.23051497 354.4154415 -231.8125 356.375 C-234.01628029 358.99128275 -236.32834993 361.2262705 -238.9375 363.4375 C-242.44682705 366.41774912 -245.4195025 369.63748585 -248.40234375 373.13671875 C-254.00195695 379.66731898 -254.00195695 379.66731898 -258 381 C-258.28875 381.5775 -258.5775 382.155 -258.875 382.75 C-261.11717997 387.23435994 -265.24758659 390.22316852 -269 393.4375 C-271.45755432 395.55846621 -273.65892541 397.65338158 -275.6875 400.1875 C-278 403 -278 403 -280.375 404.875 C-283.41110129 407.33279628 -285.77575488 410.09306765 -288.3125 413.05078125 C-291.40933518 416.62791263 -294.73913316 419.79877037 -298.375 422.8125 C-300.83730027 424.89582466 -302.96931427 427.03991091 -305.04296875 429.5078125 C-309.30131449 434.43244154 -313.87695715 439.02761045 -318.48803711 443.6184082 C-319.93524385 445.06025221 -321.37702026 446.50737116 -322.81835938 447.95507812 C-327.5536775 452.69333621 -332.34328732 457.31226106 -337.44970703 461.65185547 C-339.12144847 463.05991723 -339.12144847 463.05991723 -340.9375 465.0625 C-344.28047622 468.2028716 -348.14963066 470.52728574 -352 473 C-352.88429688 473.58265625 -353.76859375 474.1653125 -354.6796875 474.765625 C-370.38722826 485 -370.38722826 485 -375 485 C-375 485.66 -375 486.32 -375 487 C-376.155 487.226875 -377.31 487.45375 -378.5 487.6875 C-383.22738397 488.73130638 -387.82098077 490.11725232 -392.4375 491.5625 C-393.14777344 491.78446045 -393.85804688 492.0064209 -394.58984375 492.23510742 C-398.37123126 493.42284854 -398.37123126 493.42284854 -402 495 C-407.73618061 495.89736104 -413.29622603 496.13553721 -419.09375 496.09765625 C-419.92588013 496.0962413 -420.75801025 496.09482635 -421.61535645 496.09336853 C-424.2436093 496.08782167 -426.87177338 496.07527945 -429.5 496.0625 C-431.29426959 496.05747812 -433.08854054 496.05291642 -434.8828125 496.04882812 C-439.25524195 496.03786972 -443.62760598 496.02064248 -448 496 C-448 495.34 -448 494.68 -448 494 C-448.94875 494.103125 -449.8975 494.20625 -450.875 494.3125 C-456.21879796 494.3451505 -460.4452909 491.5176784 -465 489 C-466.32997373 488.32665603 -467.66268168 487.65863643 -469 487 C-469.66 486.67 -470.32 486.34 -471 486 C-471 485.34 -471 484.68 -471 484 C-471.66 484 -472.32 484 -473 484 C-478.93880142 478.24007814 -481.46032014 472.51297041 -481.76293945 464.40576172 C-481.65493464 441.71659873 -472.05527187 422.93948123 -460.92041016 403.73901367 C-459.85715253 401.84527563 -459.85715253 401.84527563 -459 399 C-458.34 399 -457.68 399 -457 399 C-456.731875 398.27425781 -456.46375 397.54851562 -456.1875 396.80078125 C-455.01329619 394.03135976 -453.6605676 391.69080566 -452 389.1875 C-451.484375 388.39730469 -450.96875 387.60710937 -450.4375 386.79296875 C-449.963125 386.20128906 -449.48875 385.60960937 -449 385 C-448.34 385 -447.68 385 -447 385 C-446.67 383.68 -446.34 382.36 -446 381 C-445.34 381 -444.68 381 -444 381 C-443.7525 380.44441406 -443.505 379.88882812 -443.25 379.31640625 C-438.86225435 371.1853651 -431.51666145 364.2563014 -425.26171875 357.5078125 C-421.290283 353.10425162 -418.40169305 349.13699375 -416 343.6875 C-413.7779188 338.724476 -411.46948666 333.84399307 -409 329 C-408.34 329 -407.68 329 -407 329 C-406.78988281 328.46890625 -406.57976562 327.9378125 -406.36328125 327.390625 C-397.90638668 312.56076977 -379.85017845 302.61470367 -364 298 C-358.38534032 296.68577997 -352.70798811 295.79646346 -347 295 C-346.89042969 294.41734375 -346.78085937 293.8346875 -346.66796875 293.234375 C-346.13611487 290.4843013 -345.56882074 287.74265798 -345 285 C-344.82855469 284.09636719 -344.65710938 283.19273437 -344.48046875 282.26171875 C-341.32852097 267.55940752 -333.97395049 251.42932309 -322.17578125 241.80859375 C-319.94247754 240.0007928 -319.94247754 240.0007928 -317.79296875 237.84765625 C-304.26685964 224.72531159 -286.40191382 218.61213607 -268 216 C-267.81824219 214.97261719 -267.63648438 213.94523438 -267.44921875 212.88671875 C-266.67632753 208.58239737 -265.84653889 204.29036619 -265 200 C-264.80664062 198.99195313 -264.61328125 197.98390625 -264.4140625 196.9453125 C-260.25886672 178.7595855 -244.46201997 161.10105491 -229.0625 151.125 C-216.62647946 143.4268302 -204.23383214 140.4898647 -190 138 C-189.85304688 136.92685547 -189.85304688 136.92685547 -189.703125 135.83203125 C-187.07005814 118.28581846 -181.06183118 102.26364407 -169 89 C-168.2265625 88.14535156 -167.453125 87.29070312 -166.65625 86.41015625 C-159.92573786 79.32820914 -152.63755071 74.4684457 -144.0625 69.88671875 C-136.56073409 65.84920011 -130.33885463 62.13171807 -124.6015625 55.65234375 C-123.80878906 54.83443359 -123.80878906 54.83443359 -123 54 C-122.34 54 -121.68 54 -121 54 C-120.67 53.01 -120.34 52.02 -120 51 C-118.36328125 49.3515625 -118.36328125 49.3515625 -116.3125 47.625 C-115.2296875 46.70460938 -115.2296875 46.70460938 -114.125 45.765625 C-112.35793452 44.29740148 -110.58648392 42.83484094 -108.8125 41.375 C-106.03159184 39.11354719 -106.03159184 39.11354719 -103.87890625 36.7734375 C-100.20442932 33.23357505 -96.23626429 30.2620507 -92.125 27.25 C-91.28219482 26.63237793 -90.43938965 26.01475586 -89.57104492 25.37841797 C-82.29612427 20.10944717 -74.87685976 15.31371701 -67 11 C-66.37061523 10.65243652 -65.74123047 10.30487305 -65.09277344 9.94677734 C-48.12115506 0.69379304 -18.19772318 -12.91575692 0 0 Z " fill="#D89E4D" transform="translate(482,4)"/>
<path d="M0 0 C1 2 1 2 0.0625 5 C-1.89929845 11.58019898 -1.93753632 17.66930871 0.875 24 C5.26268445 31.92533316 12.23160604 38.41863946 20 43 C21 44 21 44 21.25 47.8125 C21.21431913 50.6567752 21.0655184 51.87832297 19.6875 54.4375 C17.17556844 56.76336255 15.05425812 56.99488131 11.6875 57.3125 C3.26810542 56.59899198 -4.41513552 48.03254901 -10 42 C-16.53213678 31.85841844 -19.6077565 23.04258244 -19 11 C-18.236875 10.87625 -17.47375 10.7525 -16.6875 10.625 C-13.79732864 10.11897208 -13.79732864 10.11897208 -11 8 C-9.68 8 -8.36 8 -7 8 C-7.061875 7.21625 -7.12375 6.4325 -7.1875 5.625 C-7.125625 4.75875 -7.06375 3.8925 -7 3 C-4.38058783 1.25372522 -2.96175123 0.61277612 0 0 Z " fill="#EBC391" transform="translate(362,61)"/>
<path d="M0 0 C0.99 0 1.98 0 3 0 C3.03738281 1.14855469 3.07476562 2.29710937 3.11328125 3.48046875 C3.49289778 13.01306165 4.40922871 21.77750598 7 31 C7.66 31 8.32 31 9 31 C10.4375 33.1875 10.4375 33.1875 12 36 C13.87012492 39.64943538 13.87012492 39.64943538 17 42 C17 42.66 17 43.32 17 44 C17.5775 44.28875 18.155 44.5775 18.75 44.875 C19.4925 45.24625 20.235 45.6175 21 46 C22.0828125 46.495 22.0828125 46.495 23.1875 47 C25 48 25 48 26 50 C26.58394161 57.24087591 26.58394161 57.24087591 24.125 60.4375 C20.29495887 63.25370672 17.76033254 63.32273441 13 63 C8.52270549 61.2090822 5.87346007 57.7986319 2.83984375 54.1875 C1.00825358 52.00981317 -0.89642259 49.91580327 -2.8125 47.8125 C-6.11467015 44.03647584 -8 41.12750393 -8 36 C-8.66 36 -9.32 36 -10 36 C-10 34.68 -10 33.36 -10 32 C-10.66 32 -11.32 32 -12 32 C-12.66 27.71 -13.32 23.42 -14 19 C-10.09567131 17.04783565 -7.27786748 16.49360009 -3 16 C-2.86722656 15.18015625 -2.73445313 14.3603125 -2.59765625 13.515625 C-2.42105469 12.43796875 -2.24445313 11.3603125 -2.0625 10.25 C-1.88847656 9.18265625 -1.71445312 8.1153125 -1.53515625 7.015625 C-1.11295829 4.63652407 -0.62797116 2.33084789 0 0 Z " fill="#EAC391" transform="translate(295,126)"/>
<path d="M0 0 C0.99 0 1.98 0 3 0 C3.14695313 1.19882813 3.14695313 1.19882813 3.296875 2.421875 C5.00109174 14.93905311 7.68950987 24.35901269 16 34 C16.66 34.99 17.32 35.98 18 37 C18.99 37.33 19.98 37.66 21 38 C21 38.66 21 39.32 21 40 C21.61875 40.268125 22.2375 40.53625 22.875 40.8125 C25 42 25 42 27 45 C27.59684283 48.92211001 27.3096604 50.52518738 25.125 53.875 C21.35836657 56.43631073 19.04589284 56.8520186 14.5546875 56.60546875 C7.31602294 54.88988311 2.75451126 47.75064561 -1.45703125 42.07421875 C-2.71096053 40.38855686 -4.06155428 38.77512968 -5.4375 37.1875 C-7 35 -7 35 -7 31 C-7.66 31 -8.32 31 -9 31 C-9.67812114 29.1291122 -10.3419946 27.25305707 -11 25.375 C-11.37125 24.33085937 -11.7425 23.28671875 -12.125 22.2109375 C-13.00965036 18.96458662 -13.23552626 16.34643563 -13 13 C-12 12 -12 12 -9.4375 11.9375 C-8.633125 11.958125 -7.82875 11.97875 -7 12 C-7 11.34 -7 10.68 -7 10 C-5.02 9.34 -3.04 8.68 -1 8 C-0.67 5.36 -0.34 2.72 0 0 Z " fill="#EAC391" transform="translate(215,212)"/>
<path d="M0 0 C0.33 0 0.66 0 1 0 C0.94199219 1.24394531 0.88398438 2.48789062 0.82421875 3.76953125 C0.36047598 17.83168241 2.31151643 26.57478927 12.03515625 37.22265625 C13.94606056 38.95120786 15.64437702 39.98744937 18 41 C18 41.66 18 42.32 18 43 C19.11375 43.433125 19.11375 43.433125 20.25 43.875 C21.1575 44.24625 22.065 44.6175 23 45 C23.70125 45.268125 24.4025 45.53625 25.125 45.8125 C27.76892552 47.48698616 28.71061834 49.16336036 30 52 C30.39749883 55.24624048 30.28993397 57.28482954 29.0625 60.3125 C25.67700572 63.08244987 22.29335345 63.37541246 18 63 C10.56577156 60.52192385 4.29388553 54.59410588 -1 49 C-1.36222656 48.26910156 -1.72445312 47.53820312 -2.09765625 46.78515625 C-2.92149096 44.63505176 -2.92149096 44.63505176 -6 44 C-6 43.34 -6 42.68 -6 42 C-6.66 42 -7.32 42 -8 42 C-9.21875 40.390625 -9.21875 40.390625 -10.5 38.25 C-10.9228125 37.55390625 -11.345625 36.8578125 -11.78125 36.140625 C-14.03350099 32.18474825 -15.3774192 29.65483679 -15 25 C-12.95301586 22.95301586 -8.69588759 23.29954307 -6 23 C-5.89042969 22.41734375 -5.78085938 21.8346875 -5.66796875 21.234375 C-1.93567251 1.93567251 -1.93567251 1.93567251 0 0 Z " fill="#EBC392" transform="translate(141,276)"/>
<path d="M0 0 C2.4270183 1.52921885 3.79241212 2.4132465 4.765625 5.1640625 C4.92546875 5.97617187 5.0853125 6.78828125 5.25 7.625 C6.90726438 13.86250603 10.49729877 17.54161669 15 22 C15.86625 22.9075 16.7325 23.815 17.625 24.75 C20.31548706 27.29888247 23.14840325 29.63378142 26 32 C29.35181324 35.17063414 30.84606668 36.64025565 31.375 41.3125 C31 45 31 45 28.875 47.9375 C25.43127529 50.40799816 24.15185629 50.47156886 20 50 C17.21875 48.42578125 17.21875 48.42578125 14.5 46.3125 C13.54867187 45.5803125 12.59734375 44.848125 11.6171875 44.09375 C10.75351563 43.4028125 9.88984375 42.711875 9 42 C8.07574219 41.27296875 8.07574219 41.27296875 7.1328125 40.53125 C-1.87491607 33.25039167 -1.87491607 33.25039167 -3 28 C-3.99 27.67 -4.98 27.34 -6 27 C-7.38671875 24.70703125 -7.38671875 24.70703125 -8.6875 21.8125 C-9.12449219 20.87019531 -9.56148437 19.92789062 -10.01171875 18.95703125 C-11.09677274 15.71044677 -11.37047745 13.3991306 -11 10 C-8.47532303 5.53192907 -4.56063967 2.28031984 0 0 Z " fill="#EAC291" transform="translate(60,360)"/>
<path d="M0 0 C-1.44253657 3.36591866 -3.33264727 5.51047079 -6 8 C-6.66 7.67 -7.32 7.34 -8 7 C-8.33 7.99 -8.66 8.98 -9 10 C-9.99 10 -10.98 10 -12 10 C-13.35374512 11.5442809 -13.35374512 11.5442809 -14.5 13.5 C-15.71875 15.46875 -15.71875 15.46875 -17 17 C-17.99 17 -18.98 17 -20 17 C-21.01866229 18.65532623 -22.01810813 20.32260138 -23 22 C-23.99 22.33 -24.98 22.66 -26 23 C-26.33 23.99 -26.66 24.98 -27 26 C-27.99 26 -28.98 26 -30 26 C-30 25.34 -30 24.68 -30 24 C-29.34 24 -28.68 24 -28 24 C-27.79246094 23.47019531 -27.58492188 22.94039063 -27.37109375 22.39453125 C-25.43574519 19.01456354 -22.80000258 16.41791162 -20.0625 13.6875 C-19.48781982 13.11298096 -18.91313965 12.53846191 -18.32104492 11.9465332 C-6.05377676 0 -6.05377676 0 0 0 Z " fill="#BF9355" transform="translate(103,309)"/>
<path d="M0 0 C0.99 0.33 1.98 0.66 3 1 C3 3 3 3 0.9375 5.25 C-0.03272586 6.17612468 -1.01290686 7.09187431 -2 8 C-2.5775 8.53625 -3.155 9.0725 -3.75 9.625 C-8.90581992 14.24745924 -8.90581992 14.24745924 -13 15 C-13.020625 15.763125 -13.04125 16.52625 -13.0625 17.3125 C-14 20 -14 20 -17.3125 21.75 C-22.43902439 23.48780488 -22.43902439 23.48780488 -25 24 C-25.33 23.34 -25.66 22.68 -26 22 C-25.43152344 21.64808594 -24.86304688 21.29617187 -24.27734375 20.93359375 C-19.40002606 17.8150417 -15.32274528 14.59363669 -11.41015625 10.3203125 C-10 9 -10 9 -8 9 C-7.67 8.01 -7.34 7.02 -7 6 C-5.4765625 4.359375 -5.4765625 4.359375 -3.625 2.75 C-3.01914062 2.20859375 -2.41328125 1.6671875 -1.7890625 1.109375 C-1.19867188 0.74328125 -0.60828125 0.3771875 0 0 Z " fill="#D5B284" transform="translate(369,49)"/>
<path d="M0 0 C0 3.14668286 -0.52735129 4.31458176 -2 7 C-2.33 7.66 -2.66 8.32 -3 9 C-3.66 9 -4.32 9 -5 9 C-5 9.66 -5 10.32 -5 11 C-5.45375 11.44214844 -5.9075 11.88429688 -6.375 12.33984375 C-8.80095459 14.81828294 -9.6809843 17.75299767 -10.9375 20.94140625 C-12 23 -12 23 -15 25 C-16.00805555 27.17897492 -16.00805555 27.17897492 -16.6875 29.625 C-16.93886719 30.44226563 -17.19023437 31.25953125 -17.44921875 32.1015625 C-17.63097656 32.72804687 -17.81273437 33.35453125 -18 34 C-18.66 34 -19.32 34 -20 34 C-18.40066639 20.63847872 -9.32195088 9.13592526 0 0 Z " fill="#BE9357" transform="translate(317,89)"/>
<path d="M0 0 C0.66 0.33 1.32 0.66 2 1 C2 1.99 2 2.98 2 4 C1.401875 4.268125 0.80375 4.53625 0.1875 4.8125 C-2.01773876 5.8560011 -2.01773876 5.8560011 -3.375 7.5 C-5.6393766 9.59019379 -8.07651684 10.1554382 -11 11 C-10.87625 11.721875 -10.7525 12.44375 -10.625 13.1875 C-11.06001831 16.45013736 -11.55561151 16.8041996 -14 18.8125 C-14.99 19.534375 -15.98 20.25625 -17 21 C-17.99 19.68 -18.98 18.36 -20 17 C-19.113125 16.278125 -18.22625 15.55625 -17.3125 14.8125 C-15.31067083 13.15051625 -13.50910237 11.49583486 -11.6875 9.625 C-8.05034338 6.07242841 -4.05141234 3.06283242 0 0 Z " fill="#C09354" transform="translate(390,31)"/>
<path d="M0 0 C0.33 0 0.66 0 1 0 C0.97679687 1.30195313 0.95359375 2.60390625 0.9296875 3.9453125 C0.91092058 5.67186924 0.89272137 7.39843221 0.875 9.125 C0.85824219 9.9809375 0.84148437 10.836875 0.82421875 11.71875 C0.78693319 16.56587293 1.10419357 20.44707905 3 25 C1 25 1 25 -0.625 23.625 C-2 22 -2 22 -2 20 C-2.99 19.67 -3.98 19.34 -5 19 C-4.35861776 16.01980994 -3.7121269 13.04089324 -3.0625 10.0625 C-2.88009766 9.21236328 -2.69769531 8.36222656 -2.50976562 7.48632812 C-2.33251953 6.67744141 -2.15527344 5.86855469 -1.97265625 5.03515625 C-1.72914429 3.91185913 -1.72914429 3.91185913 -1.48071289 2.76586914 C-1 1 -1 1 0 0 Z " fill="#E4BB86" transform="translate(141,276)"/>
<path d="M0 0 C-2.01871341 4.32581444 -4.43347626 6.38104735 -8.375 9 C-9.14585937 9.515625 -9.91671875 10.03125 -10.7109375 10.5625 C-12.76265554 11.85095092 -14.81341324 12.9616209 -17 14 C-17.33 13.34 -17.66 12.68 -18 12 C-16.68 11.67 -15.36 11.34 -14 11 C-14 10.34 -14 9.68 -14 9 C-13.34 8.67 -12.68 8.34 -12 8 C-11.690625 7.38125 -11.38125 6.7625 -11.0625 6.125 C-8.53124193 1.06248386 -5.61945823 0 0 0 Z " fill="#BF9151" transform="translate(143,465)"/>
<path d="M0 0 C0.33 0 0.66 0 1 0 C0.54177532 3.46941546 0.10868317 6.67395049 -1 10 C-1.66 10 -2.32 10 -3 10 C-3.33 11.32 -3.66 12.64 -4 14 C-4.66 14 -5.32 14 -6 14 C-6.4021875 15.7015625 -6.4021875 15.7015625 -6.8125 17.4375 C-7.204375 18.613125 -7.59625 19.78875 -8 21 C-8.99 21.33 -9.98 21.66 -11 22 C-9.32037922 13.78852063 -4.59764118 6.89646177 0 0 Z " fill="#C29657" transform="translate(230,177)"/>
<path d="M0 0 C0.99 0 1.98 0 3 0 C3 0.66 3 1.32 3 2 C3.639375 2.12375 4.27875 2.2475 4.9375 2.375 C5.618125 2.58125 6.29875 2.7875 7 3 C7.33 3.66 7.66 4.32 8 5 C9.5795772 5.68477117 11.18973194 6.30002215 12.8125 6.875 C16.69684881 8.35316421 19.37142112 9.65453597 22 13 C16.90848192 13 12.46101706 10.31311996 8 8 C7.34 7.67 6.68 7.34 6 7 C5.34 6.67 4.68 6.34 4 6 C4 5.34 4 4.68 4 4 C3.34 4 2.68 4 2 4 C1.34 2.68 0.68 1.36 0 0 Z " fill="#A7814A" transform="translate(7,484)"/>
<path d="M0 0 C0.33 0 0.66 0 1 0 C2.25738596 6.538407 2.25738596 6.538407 1.0546875 8.6953125 C-0.84197284 12.83986658 -0.43933104 17.47660513 -0.56640625 21.9765625 C-0.79889523 27.79889523 -0.79889523 27.79889523 -3 30 C-3.31375831 19.54138951 -3.31697334 10.06938335 0 0 Z " fill="#C0965D" transform="translate(4,443)"/>
<path d="M0 0 C1.32 0.66 2.64 1.32 4 2 C2.9171875 2.5878125 2.9171875 2.5878125 1.8125 3.1875 C-1.10098846 4.9248778 -1.10098846 4.9248778 -3.5 7.5 C-6 10 -6 10 -8.75 11.5625 C-11.17279826 12.79223587 -11.17279826 12.79223587 -11.8125 15.1875 C-11.874375 15.785625 -11.93625 16.38375 -12 17 C-13.32 16.67 -14.64 16.34 -16 16 C-16 14 -16 14 -14.53125 12.51953125 C-13.8609375 11.95621094 -13.190625 11.39289063 -12.5 10.8125 C-11.4171875 9.89210937 -11.4171875 9.89210937 -10.3125 8.953125 C-9.549375 8.30859375 -8.78625 7.6640625 -8 7 C-6.49748719 5.69037735 -4.99734677 4.37802609 -3.5 3.0625 C-1.75 1.53125 -1.75 1.53125 0 0 Z " fill="#BE9454" transform="translate(170,237)"/>
<path d="M0 0 C0.66 0 1.32 0 2 0 C5.06025293 11.16628003 5.33082999 21.506721 5 33 C4.67 33 4.34 33 4 33 C3.91697632 32.00818726 3.91697632 32.00818726 3.83227539 30.99633789 C3.58034285 28.0179762 3.32151498 25.04025375 3.0625 22.0625 C2.97548828 21.02158203 2.88847656 19.98066406 2.79882812 18.90820312 C2.71181641 17.91884766 2.62480469 16.92949219 2.53515625 15.91015625 C2.456604 14.99371338 2.37805176 14.07727051 2.29711914 13.13305664 C2.22129249 11.02036174 2.22129249 11.02036174 1 10 C0.76712992 8.31816052 0.58735834 6.6287584 0.4375 4.9375 C0.35371094 4.01839844 0.26992188 3.09929688 0.18359375 2.15234375 C0.09271484 1.08693359 0.09271484 1.08693359 0 0 Z " fill="#C29964" transform="translate(494,23)"/>
<path d="M0 0 C0.33 0.66 0.66 1.32 1 2 C0.70351562 2.85851562 0.40703125 3.71703125 0.1015625 4.6015625 C-1.19333282 8.5964523 -1.44412199 12.20726924 -1.625 16.375 C-1.66367188 17.11105469 -1.70234375 17.84710938 -1.7421875 18.60546875 C-1.83557998 20.40327406 -1.9188371 22.20160108 -2 24 C-2.33 24 -2.66 24 -3 24 C-3 20.7 -3 17.4 -3 14 C-3.66 14 -4.32 14 -5 14 C-4.09068323 5.05838509 -4.09068323 5.05838509 -2 1 C-1.34 0.67 -0.68 0.34 0 0 Z " fill="#D5AE7B" transform="translate(221,198)"/>
<path d="M0 0 C0.33 1.32 0.66 2.64 1 4 C0.071875 4.5878125 0.071875 4.5878125 -0.875 5.1875 C-3.15286234 6.84317788 -3.15286234 6.84317788 -3.9375 9.375 C-5.30037158 12.74209449 -7.35469948 14.55309702 -10 17 C-10.66 17.66 -11.32 18.32 -12 19 C-12.33 18.01 -12.66 17.02 -13 16 C-12.67 15.34 -12.34 14.68 -12 14 C-11.34 14 -10.68 14 -10 14 C-9.75507812 13.44828125 -9.51015625 12.8965625 -9.2578125 12.328125 C-7.74261886 9.52360509 -5.88915874 7.21896877 -3.875 4.75 C-3.15054688 3.85796875 -2.42609375 2.9659375 -1.6796875 2.046875 C-0.84824219 1.03367187 -0.84824219 1.03367187 0 0 Z " fill="#B38C56" transform="translate(48,371)"/>
<path d="M0 0 C0.99 0 1.98 0 3 0 C1.34136495 4.32504836 -1.871041 7.09418825 -5.125 10.25 C-5.68832031 10.80429687 -6.25164062 11.35859375 -6.83203125 11.9296875 C-8.21686028 13.29104485 -9.60783204 14.64614859 -11 16 C-11.33 14.68 -11.66 13.36 -12 12 C-11.34 12 -10.68 12 -10 12 C-9.67 11.01 -9.34 10.02 -9 9 C-6.9375 8.3125 -6.9375 8.3125 -5 8 C-5 7.01 -5 6.02 -5 5 C-3.68 4.67 -2.36 4.34 -1 4 C-0.67 2.68 -0.34 1.36 0 0 Z " fill="#A9814A" transform="translate(173,433)"/>
<path d="M0 0 C-0.66 0 -1.32 0 -2 0 C-2 1.65 -2 3.3 -2 5 C-2.66 5 -3.32 5 -4 5 C-4 4.34 -4 3.68 -4 3 C-6.93443402 3.26656572 -6.93443402 3.26656572 -10 4 C-10.99 5.485 -10.99 5.485 -12 7 C-12.99 6.67 -13.98 6.34 -15 6 C-14.67 5.67 -14.34 5.34 -14 5 C-14.66 4.34 -15.32 3.68 -16 3 C-13.89936424 2.30178583 -11.79434263 1.61675528 -9.6875 0.9375 C-8.51574219 0.55464844 -7.34398437 0.17179688 -6.13671875 -0.22265625 C-3 -1 -3 -1 0 0 Z " fill="#BB9052" transform="translate(283,145)"/>
<path d="M0 0 C6.03375842 1.97966245 9.28284858 6.01316989 13 11 C14.5 14.5625 14.5 14.5625 15 17 C14.01 17 13.02 17 12 17 C9 11.375 9 11.375 9 8 C8.01 7.67 7.02 7.34 6 7 C4 5 4 5 3 3 C2.01 2.67 1.02 2.34 0 2 C0 1.34 0 0.68 0 0 Z " fill="#B58C53" transform="translate(479,3)"/>
<path d="M0 0 C0.33 0 0.66 0 1 0 C1.02699725 2.27076842 1.04639453 4.54162821 1.0625 6.8125 C1.07410156 8.07707031 1.08570313 9.34164062 1.09765625 10.64453125 C1 14 1 14 0 17 C-3.21451269 18.60725635 -6.43612536 18.05748185 -10 18 C-10 17.67 -10 17.34 -10 17 C-6.535 16.505 -6.535 16.505 -3 16 C-2.86722656 15.18015625 -2.73445313 14.3603125 -2.59765625 13.515625 C-2.42105469 12.43796875 -2.24445313 11.3603125 -2.0625 10.25 C-1.88847656 9.18265625 -1.71445312 8.1153125 -1.53515625 7.015625 C-1.11295829 4.63652407 -0.62797116 2.33084789 0 0 Z " fill="#AE926C" transform="translate(295,126)"/>
<path d="M0 0 C0 0.66 0 1.32 0 2 C-1.65 2.33 -3.3 2.66 -5 3 C-5.33 4.98 -5.66 6.96 -6 9 C-7.65 8.01 -9.3 7.02 -11 6 C-10.67 5.34 -10.34 4.68 -10 4 C-10.99 3.34 -11.98 2.68 -13 2 C-4.57142857 -0.28571429 -4.57142857 -0.28571429 0 0 Z " fill="#C49A61" transform="translate(208,222)"/>
<path d="M0 0 C0.49628906 0.38671875 0.99257812 0.7734375 1.50390625 1.171875 C5.84883147 4.50270951 10.18629161 7.39257462 15 10 C11.18061765 11.27312745 9.57184394 10.53790201 5.94140625 9.09375 C2.89863427 7.37951226 1.55794726 5.05098005 0 2 C0 1.34 0 0.68 0 0 Z " fill="#D7A25A" transform="translate(142,327)"/>
<path d="M0 0 C0.33 0 0.66 0 1 0 C1.04254356 1.99954746 1.04080783 4.00041636 1 6 C0.67 6.33 0.34 6.66 0 7 C-0.3931648 8.67884238 -0.74085452 10.36850045 -1.0625 12.0625 C-1.32740234 13.44115234 -1.32740234 13.44115234 -1.59765625 14.84765625 C-1.73042969 15.55792969 -1.86320313 16.26820313 -2 17 C-2.66 17 -3.32 17 -4 17 C-3.45018084 10.95198929 -2.09570426 5.69398894 0 0 Z " fill="#C5A57C" transform="translate(141,276)"/>
<path d="M0 0 C0.99 0.33 1.98 0.66 3 1 C1.71034824 2.37562854 0.37310707 3.70766393 -1 5 C-1.66 5 -2.32 5 -3 5 C-3.99 6.485 -3.99 6.485 -5 8 C-8.125 9.1875 -8.125 9.1875 -11 10 C-7.72611299 5.76320505 -4.79159238 2.60412629 0 0 Z " fill="#B99157" transform="translate(329,79)"/>
<path d="M0 0 C0 1.32 0 2.64 0 4 C-7.42857143 7.28571429 -7.42857143 7.28571429 -11 8 C-11.33 7.34 -11.66 6.68 -12 6 C-10.56839732 4.99157547 -9.12948547 3.99352109 -7.6875 3 C-6.88699219 2.443125 -6.08648437 1.88625 -5.26171875 1.3125 C-3 0 -3 0 0 0 Z " fill="#CCAD86" transform="translate(355,65)"/>
<path d="M0 0 C0.66 0.33 1.32 0.66 2 1 C0.07423885 3.43929746 -1.80090595 5.80090595 -4 8 C-4 7.34 -4 6.68 -4 6 C-4.66 6 -5.32 6 -6 6 C-6.33 6.99 -6.66 7.98 -7 9 C-8.32 8.34 -9.64 7.68 -11 7 C-9.21475351 5.80286983 -7.4215972 4.61752721 -5.625 3.4375 C-4.62726563 2.77621094 -3.62953125 2.11492188 -2.6015625 1.43359375 C-1.74304688 0.96050781 -0.88453125 0.48742187 0 0 Z " fill="#B2884F" transform="translate(408,19)"/>
<path d="M0 0 C3.63 0 7.26 0 11 0 C8.20083611 1.86610926 6.18061731 2.68785383 3 3.625 C1.700625 4.01558594 1.700625 4.01558594 0.375 4.4140625 C-2 5 -2 5 -5 5 C-5 4.34 -5 3.68 -5 3 C-3.35 2.34 -1.7 1.68 0 1 C0 0.67 0 0.34 0 0 Z " fill="#BB9154" transform="translate(87,492)"/>
<path d="M0 0 C4.28070699 0.47563411 6.3004085 2.80311533 9 6 C10.3125 9.3125 10.3125 9.3125 11 12 C7.3571729 10.52513858 5.59170887 8.55477485 3.25 5.4375 C2.63640625 4.63183594 2.0228125 3.82617188 1.390625 2.99609375 C0 1 0 1 0 0 Z " fill="#EBBE82" transform="translate(212,251)"/>
<path d="M0 0 C-1.44253657 3.36591866 -3.33264727 5.51047079 -6 8 C-7.32 7.34 -8.64 6.68 -10 6 C-7.35570758 3.077361 -4.105808 0 0 0 Z " fill="#B98E4F" transform="translate(103,309)"/>
<path d="M0 0 C0.33 1.32 0.66 2.64 1 4 C-1.33214148 5.20628008 -3.49642139 6.1654738 -6 7 C-8.1875 6.0625 -8.1875 6.0625 -10 5 C-8.71186658 4.16121545 -7.41936744 3.32913217 -6.125 2.5 C-5.40570313 2.0359375 -4.68640625 1.571875 -3.9453125 1.09375 C-2 0 -2 0 0 0 Z " fill="#BB8E50" transform="translate(262,151)"/>
<path d="M0 0 C-1.49097658 3.7952131 -3.75700849 5.61042731 -7 8 C-7.625 5.625 -7.625 5.625 -8 3 C-5.36657694 0.36657694 -3.69534435 0 0 0 Z " fill="#B3874A" transform="translate(448,161)"/>
<path d="M0 0 C0.99 0.33 1.98 0.66 3 1 C1.02 4.63 -0.96 8.26 -3 12 C-3.33 12 -3.66 12 -4 12 C-3.67 9.69 -3.34 7.38 -3 5 C-2.34 5 -1.68 5 -1 5 C-0.67 3.35 -0.34 1.7 0 0 Z " fill="#B8915A" transform="translate(480,116)"/>
<path d="M0 0 C1.1875 1.6875 1.1875 1.6875 2 4 C0.75 6.75 0.75 6.75 -1 9 C-1.66 9 -2.32 9 -3 9 C-3 9.66 -3 10.32 -3 11 C-3.66 11 -4.32 11 -5 11 C-3.77472971 6.94718288 -2.30119506 3.55639236 0 0 Z " fill="#BC9257" transform="translate(18,413)"/>
<path d="M0 0 C1.32 0.66 2.64 1.32 4 2 C-0.75 6.875 -0.75 6.875 -3 8 C-3.36923077 3.44615385 -3.36923077 3.44615385 -1.5 1.1875 C-1.005 0.795625 -0.51 0.40375 0 0 Z " fill="#C79756" transform="translate(236,368)"/>
<path d="M0 0 C0.33 0 0.66 0 1 0 C2.44295302 7.2147651 2.44295302 7.2147651 0.625 10.4375 C-3.1111159 12.66137851 -6.71440392 12.81685487 -11 13 C-11 12.67 -11 12.34 -11 12 C-10.37351562 11.88785156 -9.74703125 11.77570313 -9.1015625 11.66015625 C-6.45397093 11.02122642 -4.34947367 10.39164437 -2 9 C-0.60645631 6.05633467 -0.21008884 3.23265726 0 0 Z " fill="#D8A65F" transform="translate(321,177)"/>
<path d="M0 0 C0.66 0.33 1.32 0.66 2 1 C1.67 2.98 1.34 4.96 1 7 C-1.64 6.34 -4.28 5.68 -7 5 C-2.25 1.125 -2.25 1.125 0 0 Z " fill="#BD9255" transform="translate(341,72)"/>
<path d="M0 0 C0.59941406 0.35320313 1.19882812 0.70640625 1.81640625 1.0703125 C0.25619758 1.72166175 -1.30687954 2.36614214 -2.87109375 3.0078125 C-3.74121094 3.36746094 -4.61132812 3.72710938 -5.5078125 4.09765625 C-8.0653864 5.0273437 -10.50572605 5.61193875 -13.18359375 6.0703125 C-4.04669707 -1.7229229 -4.04669707 -1.7229229 0 0 Z " fill="#B28B55" transform="translate(428.18359375,9.9296875)"/>
<path d="M0 0 C0.99386719 0.00902344 1.98773438 0.01804687 3.01171875 0.02734375 C4.15060547 0.04474609 4.15060547 0.04474609 5.3125 0.0625 C2.45456684 2.92043316 0.16584416 2.47049941 -3.8125 2.6875 C-5.09382813 2.76226562 -6.37515625 2.83703125 -7.6953125 2.9140625 C-8.68273437 2.96304687 -9.67015625 3.01203125 -10.6875 3.0625 C-7.3968001 -0.2281999 -4.43626547 -0.05219136 0 0 Z " fill="#9E7B49" transform="translate(76.6875,496.9375)"/>
<path d="M0 0 C0.33 1.32 0.66 2.64 1 4 C0.01 4 -0.98 4 -2 4 C-2.33 6.31 -2.66 8.62 -3 11 C-3.66 11 -4.32 11 -5 11 C-5 11.66 -5 12.32 -5 13 C-5.66 13 -6.32 13 -7 13 C-5.66666667 9.66666667 -4.33333333 6.33333333 -3 3 C-2.34 3 -1.68 3 -1 3 C-0.67 2.01 -0.34 1.02 0 0 Z " fill="#AB8650" transform="translate(26,400)"/>
<path d="M0 0 C0.99 0 1.98 0 3 0 C2.52794881 4.24846075 0.11122478 6.26819288 -3 9 C-3.66 9 -4.32 9 -5 9 C-3.49901406 5.88256767 -1.97568178 2.84498177 0 0 Z " fill="#BA9057" transform="translate(32,391)"/>
<path d="M0 0 C0 3 0 3 -2 6 C-4.49664253 6.88590541 -6.32115341 7 -9 7 C-8.06894211 6.01470572 -7.12987519 5.03697556 -6.1875 4.0625 C-5.66542969 3.51722656 -5.14335937 2.97195312 -4.60546875 2.41015625 C-3 1 -3 1 0 0 Z " fill="#B69974" transform="translate(362,57)"/>
<path d="M0 0 C1.32 0 2.64 0 4 0 C2.50902342 3.7952131 0.24299151 5.61042731 -3 8 C-2.37240135 5.07120629 -1.41377341 2.63904371 0 0 Z " fill="#AA834C" transform="translate(154,451)"/>
<path d="M0 0 C1.32 1.32 2.64 2.64 4 4 C2.8553125 4.6496875 2.8553125 4.6496875 1.6875 5.3125 C-0.58093768 6.73686785 -2.2199723 8.03260097 -4 10 C-2.8905928 6.51329166 -1.73662334 3.22515763 0 0 Z " fill="#B4894F" transform="translate(71,337)"/>
<path d="M0 0 C0.91058531 3.07322544 1.08886184 5.80097361 1 9 C-0.65 9.33 -2.3 9.66 -4 10 C-2.8905928 6.51329166 -1.73662334 3.22515763 0 0 Z " fill="#BC9359" transform="translate(147,262)"/>
<path d="M0 0 C0.99 0.33 1.98 0.66 3 1 C3.6875 3.8125 3.6875 3.8125 4 7 C3.01 7.99 2.02 8.98 1 10 C0.67 6.7 0.34 3.4 0 0 Z " fill="#EBBF84" transform="translate(202,225)"/>
<path d="M0 0 C-1 3 -1 3 -2.625 4.1875 C-5.80382728 5.27499354 -8.66661533 5.1282071 -12 5 C-12.33 4.34 -12.66 3.68 -13 3 C-10.69 3.33 -8.38 3.66 -6 4 C-6 3.34 -6 2.68 -6 2 C-3 0 -3 0 0 0 Z " fill="#EABD81" transform="translate(320,184)"/>
<path d="M0 0 C0.66 0 1.32 0 2 0 C1.69078116 1.45903258 1.37751201 2.91720722 1.0625 4.375 C0.88847656 5.18710938 0.71445312 5.99921875 0.53515625 6.8359375 C0 9 0 9 -1 11 C-1.66 11 -2.32 11 -3 11 C-2.44894091 7.0507432 -1.61064629 3.65079826 0 0 Z " fill="#BF9E71" transform="translate(300,112)"/>
<path d="M0 0 C0.66 0 1.32 0 2 0 C2.66 3.63 3.32 7.26 4 11 C3.01 10.67 2.02 10.34 1 10 C0.67 6.7 0.34 3.4 0 0 Z " fill="#B58C54" transform="translate(494,23)"/>
<path d="M0 0 C0 0.66 0 1.32 0 2 C-0.99 2 -1.98 2 -3 2 C-3 2.66 -3 3.32 -3 4 C-5.97 3.67 -8.94 3.34 -12 3 C-7.74582052 0.87291026 -4.71473296 0 0 0 Z " fill="#B48D53" transform="translate(457,0)"/>
<path d="M0 0 C2.8125 -0.1875 2.8125 -0.1875 6 0 C6.99 0.99 7.98 1.98 9 3 C6.03 3 3.06 3 0 3 C0 2.01 0 1.02 0 0 Z " fill="#9C7844" transform="translate(34,497)"/>
<path d="M0 0 C1.32 0.66 2.64 1.32 4 2 C2.71937515 3.7074998 1.38232443 5.37373596 0 7 C-0.66 7 -1.32 7 -2 7 C-2.33 5.68 -2.66 4.36 -3 3 C-2.01 3 -1.02 3 0 3 C0 2.01 0 1.02 0 0 Z " fill="#BF9254" transform="translate(396,208)"/>
<path d="M0 0 C1.32 0.33 2.64 0.66 4 1 C4 1.66 4 2.32 4 3 C2.46875 4.2890625 2.46875 4.2890625 0.5 5.625 C-0.1496875 6.07101562 -0.799375 6.51703125 -1.46875 6.9765625 C-1.9740625 7.31429688 -2.479375 7.65203125 -3 8 C-3 6.35 -3 4.7 -3 3 C-2.01 3 -1.02 3 0 3 C0 2.01 0 1.02 0 0 Z " fill="#C4975A" transform="translate(147,457)"/>
<path d="M0 0 C0.99 0 1.98 0 3 0 C3 1.65 3 3.3 3 5 C2.01 5.495 2.01 5.495 1 6 C0.67 5.34 0.34 4.68 0 4 C-1.98 4.99 -1.98 4.99 -4 6 C-2.1875 3 -2.1875 3 0 0 Z " fill="#C1A075" transform="translate(60,357)"/>
<path d="M0 0 C1.32 0.66 2.64 1.32 4 2 C0.535 4.97 0.535 4.97 -3 8 C-3 6.35 -3 4.7 -3 3 C-2.01 3 -1.02 3 0 3 C0 2.01 0 1.02 0 0 Z " fill="#CD9E5E" transform="translate(316,288)"/>
<path d="M0 0 C0.99 0.33 1.98 0.66 3 1 C3.80078125 2.77734375 3.80078125 2.77734375 4.3125 4.9375 C4.49425781 5.64777344 4.67601562 6.35804688 4.86328125 7.08984375 C4.93095703 8.03537109 4.93095703 8.03537109 5 9 C4.34 9.66 3.68 10.32 3 11 C2.49632243 9.54293274 1.99717444 8.08429904 1.5 6.625 C1.2215625 5.81289062 0.943125 5.00078125 0.65625 4.1640625 C0 2 0 2 0 0 Z " fill="#D7A55E" transform="translate(299,146)"/>
<path d="M0 0 C0.33 0 0.66 0 1 0 C2.23076923 6.4 2.23076923 6.4 1.0625 9.4375 C0.711875 9.953125 0.36125 10.46875 0 11 C-0.66 11 -1.32 11 -2 11 C-1.125 3.375 -1.125 3.375 0 0 Z " fill="#B38A52" transform="translate(4,443)"/>
<path d="M0 0 C0.33 0.99 0.66 1.98 1 3 C-0.9375 6.1875 -0.9375 6.1875 -3 9 C-3.66 8.67 -4.32 8.34 -5 8 C-4.67 6.68 -4.34 5.36 -4 4 C-3.34 4 -2.68 4 -2 4 C-1.34 2.68 -0.68 1.36 0 0 Z " fill="#AB844F" transform="translate(40,381)"/>
<path d="M0 0 C2.09350689 3.4019487 2.17942163 6.05272412 2 10 C0.02 10 -1.96 10 -4 10 C-3.01 9.34 -2.02 8.68 -1 8 C-0.42251197 6.03638136 -0.42251197 6.03638136 -0.3125 3.875 C-0.209375 2.59625 -0.10625 1.3175 0 0 Z " fill="#B39773" transform="translate(215,212)"/>
<path d="M0 0 C0.99 0.33 1.98 0.66 3 1 C3 3 3 3 0.625 5.5625 C-2 8 -2 8 -4 9 C-2.25 2.25 -2.25 2.25 0 0 Z " fill="#D3A86B" transform="translate(369,49)"/>
<path d="M0 0 C1.98 0 3.96 0 6 0 C3.14693203 2.32472205 0.45925163 3.7508258 -3 5 C-3.33 4.01 -3.66 3.02 -4 2 C-2.68 2 -1.36 2 0 2 C0 1.34 0 0.68 0 0 Z " fill="#B38B53" transform="translate(117,481)"/>
<path d="M0 0 C0.309375 0.639375 0.61875 1.27875 0.9375 1.9375 C1.8345163 3.93610821 1.8345163 3.93610821 3 5 C3.04080783 6.99958364 3.04254356 9.00045254 3 11 C2.34 11 1.68 11 1 11 C-0.17571451 7.32589215 -0.07366746 3.83070817 0 0 Z " fill="#EBBD7F" transform="translate(282,147)"/>
<path d="M0 0 C3.37503669 1.1858237 5.64722731 2.27573689 8 5 C7.67 5.99 7.34 6.98 7 8 C5.29159719 6.36587557 4.06546953 5.13093906 3 3 C2.01 2.67 1.02 2.34 0 2 C0 1.34 0 0.68 0 0 Z " fill="#BD955D" transform="translate(479,3)"/>
<path d="M0 0 C0.33 0 0.66 0 1 0 C1 1.65 1 3.3 1 5 C-2.3 4.67 -5.6 4.34 -9 4 C-9 3.67 -9 3.34 -9 3 C-5.92382812 2.70703125 -5.92382812 2.70703125 -2.84765625 2.4140625 C-2.23792969 2.27742188 -1.62820312 2.14078125 -1 2 C-0.67 1.34 -0.34 0.68 0 0 Z " fill="#AD916D" transform="translate(136,297)"/>
<path d="M0 0 C0.66 1.98 1.32 3.96 2 6 C-0.88437779 4.70700306 -2.87219421 3.34058637 -5 1 C-3 0 -3 0 0 0 Z " fill="#EABE82" transform="translate(151,329)"/>
<path d="M0 0 C0.99 0.66 1.98 1.32 3 2 C-0.465 4.97 -0.465 4.97 -4 8 C-4 7.01 -4 6.02 -4 5 C-3.34 4.67 -2.68 4.34 -2 4 C-0.86649466 1.98330173 -0.86649466 1.98330173 0 0 Z " fill="#CC9E61" transform="translate(349,256)"/>
<path d="M0 0 C1.32 0.99 2.64 1.98 4 3 C2.35 4.32 0.7 5.64 -1 7 C-0.67 4.69 -0.34 2.38 0 0 Z " fill="#D09F5B" transform="translate(369,234)"/>
<path d="M0 0 C1 2 1 2 0.0625 5.125 C-0.288125 6.07375 -0.63875 7.0225 -1 8 C-3 5 -3 5 -2.75 2.875 C-2 1 -2 1 0 0 Z " fill="#CDA369" transform="translate(221,198)"/>
<path d="M0 0 C0.66 0.99 1.32 1.98 2 3 C1.01 4.98 0.02 6.96 -1 9 C-1.66 9 -2.32 9 -3 9 C-1.125 2.25 -1.125 2.25 0 0 Z " fill="#B08E61" transform="translate(222,190)"/>
<path d="M0 0 C0.99 0 1.98 0 3 0 C1.60667426 3.36720387 0.0210714 4.9859524 -3 7 C-3 6.01 -3 5.02 -3 4 C-2.34 4 -1.68 4 -1 4 C-0.67 2.68 -0.34 1.36 0 0 Z " fill="#9E7945" transform="translate(173,433)"/>
<path d="M0 0 C1.68762851 1.6454378 3.3540349 3.31288577 5 5 C5 5.33 5 5.66 5 6 C3.35 6 1.7 6 0 6 C0 4.02 0 2.04 0 0 Z " fill="#EBBE85" transform="translate(70,377)"/>
<path d="M0 0 C0.66 0 1.32 0 2 0 C0.25 3.875 0.25 3.875 -2 5 C-2 4.34 -2 3.68 -2 3 C-3.98 3 -5.96 3 -8 3 C-8 2.67 -8 2.34 -8 2 C-6.865625 1.855625 -5.73125 1.71125 -4.5625 1.5625 C-1.19222799 1.38828522 -1.19222799 1.38828522 0 0 Z " fill="#DBA862" transform="translate(238,266)"/>
<path d="M0 0 C1.32 0.33 2.64 0.66 4 1 C2.35 2.98 0.7 4.96 -1 7 C-1 4.37886292 -0.68707555 2.49064888 0 0 Z " fill="#C4985D" transform="translate(457,147)"/>
<path d="M0 0 C0.66 0.33 1.32 0.66 2 1 C0.8141763 4.37503669 -0.27573689 6.64722731 -3 9 C-2.67 7.02 -2.34 5.04 -2 3 C-1.34 3 -0.68 3 0 3 C0 2.01 0 1.02 0 0 Z " fill="#AF8A55" transform="translate(474,127)"/>
</svg>
