<?xml version="1.0" encoding="UTF-8"?>
<svg version="1.1" xmlns="http://www.w3.org/2000/svg" width="500" height="500">
<path d="M0 0 C21.3372372 0.22111127 48.53671519 24.5961268 63.13671875 38.40234375 C65.12952515 40.27334874 67.16029682 42.06699294 69.2265625 43.85546875 C91.24849971 63.07066341 107.50982698 86.11081465 121.40087891 111.66552734 C122.38077183 113.45868985 123.38308852 115.23954577 124.38671875 117.01953125 C133.69440027 133.84132483 141.12095843 151.64803155 147.1953125 169.87109375 C148.26605818 173.33511223 148.26605818 173.33511223 149.4375 175.5625 C157.10581354 163.84462763 162.17413132 153.24377874 165.40234375 139.53125 C165.56541016 138.859729 165.72847656 138.18820801 165.89648438 137.49633789 C166.35249278 135.59389874 166.78431007 133.68570932 167.21484375 131.77734375 C168.62636403 128.06590226 170.16660831 126.72333619 173.4375 124.5625 C180.58580193 127.01334638 184.59947692 131.66567044 188.9375 137.5625 C189.45449463 138.26109131 189.97148926 138.95968262 190.50415039 139.67944336 C222.46263927 183.40326623 244.03537909 231.53667996 247.5625 286.0625 C247.64886719 287.27808594 247.73523438 288.49367188 247.82421875 289.74609375 C248.72241263 303.10494562 248.46669797 316.17371925 247.25 329.5 C247.18436859 330.22071686 247.11873718 330.94143372 247.05111694 331.68399048 C243.69779726 367.57704085 231.30685167 399.82985234 209.4375 428.5625 C208.72464844 429.51898438 208.01179688 430.47546875 207.27734375 431.4609375 C176.85300589 470.50257337 131.94887036 493.76812036 83.296875 500.15625 C34.5784823 505.1371287 -14.00586309 491.45832483 -52.1953125 460.68359375 C-86.56717769 432.18905513 -110.90661856 394.62047855 -119.5625 350.5625 C-119.88154297 348.94988281 -119.88154297 348.94988281 -120.20703125 347.3046875 C-127.97974986 304.4708569 -118.06434435 264.83837195 -100.95654297 225.75 C-98.13618796 219.3012163 -95.33560417 212.84425243 -92.5625 206.375 C-92.26112122 205.67297455 -91.95974243 204.9709491 -91.64923096 204.24765015 C-87.02906334 193.44682497 -82.91654125 182.58067057 -79.31445312 171.39379883 C-78.99025391 170.40017334 -78.66605469 169.40654785 -78.33203125 168.3828125 C-78.05979736 167.51930176 -77.78756348 166.65579102 -77.50708008 165.76611328 C-76.4932522 163.40095163 -75.58577338 162.13915824 -73.5625 160.5625 C-70.62890625 160.1328125 -70.62890625 160.1328125 -67.5625 160.5625 C-58.2621167 167.52517393 -53.78648342 179.56700158 -51.5625 190.5625 C-51.10348028 193.8915071 -50.77345892 197.20898055 -50.5625 200.5625 C-47.39360438 200.5625 -46.05812434 198.35230546 -43.91699219 196.24633789 C-43.30500977 195.62879639 -42.69302734 195.01125488 -42.0625 194.375 C-41.4324707 193.74005615 -40.80244141 193.1051123 -40.15332031 192.45092773 C-34.3916482 186.54631337 -29.32201537 180.29599888 -24.5625 173.5625 C-24.15580078 172.9948291 -23.74910156 172.4271582 -23.33007812 171.84228516 C-1.47190317 141.10955478 12.27628517 104.16497053 6.75390625 66.04296875 C4.92666569 55.62368164 1.74334995 45.64372782 -1.80566406 35.69970703 C-3.04113297 32.21090224 -4.20672258 28.6992477 -5.375 25.1875 C-5.77332031 24.00414063 -6.17164063 22.82078125 -6.58203125 21.6015625 C-8.55072561 15.49939432 -10.05432675 9.61101553 -7.125 3.625 C-4.75010498 0.49013857 -3.95808899 0.27724319 0 0 Z " fill="#FD7307" transform="translate(186.5625,-0.5625)"/>
<path d="M0 0 C0.99 0.99 0.99 0.99 2 2 C4.06874034 2.6425235 4.06874034 2.6425235 6 3 C6 4.32 6 5.64 6 7 C6.99 7.33 7.98 7.66 9 8 C10.359375 9.93359375 10.359375 9.93359375 11.75 12.4375 C13.8422749 16.08344437 16.03408414 19.53322678 18.5 22.9375 C22.14142637 28.06896298 25.07882872 33.43552495 28 39 C28.65726438 40.2157046 29.31620705 41.4305029 29.9765625 42.64453125 C33.53136958 49.20082252 36.91752261 55.76386421 39.91796875 62.59765625 C40.88623718 64.74742189 41.94538055 66.80034958 43.0625 68.875 C46.17101876 74.97831122 48.19847678 81.85353737 49.49609375 88.56640625 C50.05204121 91.25133079 50.92699235 93.67788623 51.875 96.25 C54.58530304 104.18307678 57 113.55530167 57 122 C58.29608947 121.06862408 59.58671632 120.1296434 60.875 119.1875 C61.59429687 118.66542969 62.31359375 118.14335937 63.0546875 117.60546875 C65.23028655 115.96727223 65.23028655 115.96727223 67 113 C67.66 113 68.32 113 69 113 C69.66 111.02 70.32 109.04 71 107 C71.66 107 72.32 107 73 107 C73.26554688 106.46890625 73.53109375 105.9378125 73.8046875 105.390625 C76.203125 100.59375 78.6015625 95.796875 81 91 C81.66 91 82.32 91 83 91 C83.66 87.7 84.32 84.4 85 81 C85.66 81 86.32 81 87 81 C87 80.01 87 79.02 87 78 C87.66 78 88.32 78 89 78 C89 77.34 89 76.68 89 76 C92.86845142 74.86777032 95.19126119 74.77572686 98.6875 76.6875 C101.41488791 78.43133873 103.37985652 80.14092327 105 83 C105 83.66 105 84.32 105 85 C105.66 85 106.32 85 107 85 C108.33858524 87.28874173 109.67101014 89.58069656 111 91.875 C111.3815625 92.52597656 111.763125 93.17695313 112.15625 93.84765625 C115 98.7734375 115 98.7734375 115 101 C115.66 101 116.32 101 117 101 C120.62893399 107.8223959 123.71941214 114.5089004 125.9453125 121.91796875 C126.81439009 124.4576066 127.79928432 126.71531653 128.94921875 129.12890625 C131.37780663 134.50513096 132.54387139 139.98405256 133.6875 145.75 C133.89955078 146.74515625 134.11160156 147.7403125 134.33007812 148.765625 C141.32699248 183.02181137 138.44029202 220.24922055 119 250 C116.96496617 253.07739912 114.87713162 256.11067278 112.75 259.125 C111.95722656 260.27355469 111.95722656 260.27355469 111.1484375 261.4453125 C110.64054688 262.1671875 110.13265625 262.8890625 109.609375 263.6328125 C108.9282666 264.60565186 108.9282666 264.60565186 108.23339844 265.59814453 C107.82637695 266.06075684 107.41935547 266.52336914 107 267 C106.34 267 105.68 267 105 267 C104.74734375 267.57492187 104.4946875 268.14984375 104.234375 268.7421875 C100.35826234 275.83203915 93.13387304 280.8577371 86.6875 285.5 C85.7898291 286.1499292 85.7898291 286.1499292 84.87402344 286.81298828 C82.00162272 288.82722094 79.52133409 290.51309948 76 291 C76 291.66 76 292.32 76 293 C73.35261084 294.4606285 72.10551666 295 69 295 C68.67 295.99 68.34 296.98 68 298 C66.26586914 298.70776367 66.26586914 298.70776367 64.03515625 299.16796875 C63.23529297 299.33876953 62.43542969 299.50957031 61.61132812 299.68554688 C60.3496582 299.93401367 60.3496582 299.93401367 59.0625 300.1875 C58.22525391 300.36474609 57.38800781 300.54199219 56.52539062 300.72460938 C50.40450048 302 50.40450048 302 48 302 C48.33 300.68 48.66 299.36 49 298 C48.34 298 47.68 298 47 298 C46.7525 298.61875 46.505 299.2375 46.25 299.875 C44.79371361 302.35068687 43.62187494 302.95125002 41 304 C41 304.66 41 305.32 41 306 C39.00491933 306.68124706 37.00361307 307.34427209 35 308 C34.05253906 308.34933594 33.10507812 308.69867188 32.12890625 309.05859375 C26.39884063 310.67567675 20.39965148 310.2515121 14.5 310.1875 C13.24421143 310.1781543 11.98842285 310.16880859 10.69458008 310.15917969 C7.1292039 310.12314946 3.56490738 310.0674026 0 310 C-0.83354004 309.98598145 -1.66708008 309.97196289 -2.52587891 309.95751953 C-10.99808024 309.76812024 -18.58155895 308.32336153 -26.66015625 305.9375 C-29.97496093 304.93131949 -29.97496093 304.93131949 -33.37109375 304.5 C-34.23863281 304.335 -35.10617188 304.17 -36 304 C-36.33 303.34 -36.66 302.68 -37 302 C-39.07334308 301.04430991 -39.07334308 301.04430991 -41.5625 300.1875 C-46.47479419 298.30679308 -50.63658406 295.90236264 -55 293 C-56.2065625 292.2884375 -56.2065625 292.2884375 -57.4375 291.5625 C-59.91700506 290.05060667 -62.37186618 288.51136667 -64.8125 286.9375 C-65.99779297 286.17759766 -65.99779297 286.17759766 -67.20703125 285.40234375 C-67.79871094 284.93957031 -68.39039063 284.47679687 -69 284 C-69 283.34 -69 282.68 -69 282 C-70.07314453 281.6596875 -70.07314453 281.6596875 -71.16796875 281.3125 C-74.60492671 279.71964776 -76.66484167 277.69865027 -79.3125 275 C-80.19550781 274.113125 -81.07851562 273.22625 -81.98828125 272.3125 C-84 270 -84 270 -84 268 C-84.99 267.67 -85.98 267.34 -87 267 C-87.72469662 265.28708071 -88.44395038 263.57123974 -89.11328125 261.8359375 C-90.4767657 259.01286398 -92.77339367 257.16951386 -95 255 C-95.66666667 253.33333333 -96.33333333 251.66666667 -97 250 C-98.175625 248.87078125 -98.175625 248.87078125 -99.375 247.71875 C-103.71283384 243.22599352 -105.59787712 237.69392091 -108 232 C-108.44601563 231.01 -108.89203125 230.02 -109.3515625 229 C-119.86280301 204.23732296 -121.30069319 170.96801611 -112.0703125 145.6015625 C-110.84910659 142.6332299 -109.49183171 139.79296071 -107.9765625 136.96484375 C-106.9170789 134.83316275 -106.16395775 132.68271153 -105.375 130.4375 C-102.41471543 122.80495907 -97.23291608 114.21334039 -91.41625977 108.42358398 C-89.88683079 107.0351449 -89.88683079 107.0351449 -89 105 C-88.34 105 -87.68 105 -87 105 C-86.731875 104.195625 -86.46375 103.39125 -86.1875 102.5625 C-85.795625 101.716875 -85.40375 100.87125 -85 100 C-84.01 99.67 -83.02 99.34 -82 99 C-81.31513275 97.67592331 -80.65129797 96.34090759 -80 95 C-78.71182656 93.62298702 -77.37195574 92.29355827 -76 91 C-73.51775319 88.57980936 -71.16666081 86.20832601 -69 83.5 C-66.07183714 79.83979643 -63.18485795 76.73724495 -59.1875 74.25 C-53.75783471 70.41729509 -49.35603098 65.26691014 -45.75 59.6875 C-44.04463514 57.06854682 -42.1995371 55.1995371 -40 53 C-39.29875 51.9275 -38.5975 50.855 -37.875 49.75 C-37.25625 48.8425 -36.6375 47.935 -36 47 C-35.34 47 -34.68 47 -34 47 C-33.71125 46.071875 -33.4225 45.14375 -33.125 44.1875 C-32 41 -32 41 -30 38 C-29.34 38 -28.68 38 -28 38 C-27.67 36.68 -27.34 35.36 -27 34 C-26.34 34 -25.68 34 -25 34 C-24.86271484 32.89591797 -24.86271484 32.89591797 -24.72265625 31.76953125 C-23.87711125 28.52903718 -22.67583568 27.15361152 -20.4375 24.6875 C-16.21196983 19.65638315 -13.45475117 14.36123552 -10.70288086 8.44604492 C-6.35501264 -0.81474521 -6.35501264 -0.81474521 0 0 Z " fill="#FB9402" transform="translate(239,189)"/>
<path d="M0 0 C3.4255218 2.99733158 5.33178534 6.14363175 6.9375 10.375 C7.44410156 11.68984375 7.44410156 11.68984375 7.9609375 13.03125 C8.30382812 13.9284375 8.64671875 14.825625 9 15.75 C9.6847972 17.45941856 10.37223581 19.16778169 11.0625 20.875 C13.72706908 27.48496108 16.15497675 34.15795396 18.44750977 40.90405273 C21.48903105 49.81228485 24.86240118 58.28871987 29 66.75 C35.79387449 81.01713643 41.54399652 93.86875998 36 109.75 C31.60371623 119.74467638 24.65243756 127.59298591 15 132.75 C12.64828723 133.64753441 10.47105243 134.22424416 8 134.75 C8 135.41 8 136.07 8 136.75 C3.60453117 136.89752942 -0.79028616 136.98481071 -5.1875 137.0625 C-7.02731445 137.1253418 -7.02731445 137.1253418 -8.90429688 137.18945312 C-21.3688448 137.35389307 -32.1924222 133.87682002 -41.5 125.5 C-50.89038686 115.17057446 -55.39895637 104.44062832 -58 90.75 C-58.185625 89.79996094 -58.37125 88.84992188 -58.5625 87.87109375 C-60.08421285 77.015303 -59.54067258 66.13175782 -56 55.75 C-55.77957031 55.08919434 -55.55914062 54.42838867 -55.33203125 53.74755859 C-49.87272486 37.67654487 -41.99582534 23.86483155 -30 11.75 C-29.4946875 11.20730469 -28.989375 10.66460937 -28.46875 10.10546875 C-26.19337042 7.69828365 -24.07969669 6.00469124 -21 4.75 C-21 4.09 -21 3.43 -21 2.75 C-14.50003365 -1.8721983 -7.55271722 -3.14696551 0 0 Z " fill="#FBE101" transform="translate(259,362.25)"/>
<path d="M0 0 C1.19976052 3.59928155 0.42955922 4.91227164 -1.12109375 8.25 C-3.51884021 13.02417961 -6.55689657 17.39016613 -9.5390625 21.8125 C-10.66486608 23.4981952 -11.74807209 25.21239269 -12.8125 26.9375 C-21.52945005 39.14123007 -21.52945005 39.14123007 -26.28125 40.79296875 C-27.13203125 40.89544922 -27.13203125 40.89544922 -28 41 C-28 41.66 -28 42.32 -28 43 C-28.99 43.99 -28.99 43.99 -30 45 C-29.01 45 -28.02 45 -27 45 C-27 48 -27 48 -28.5 49.6875 C-28.995 50.120625 -29.49 50.55375 -30 51 C-28.68 50.67 -27.36 50.34 -26 50 C-26 49.34 -26 48.68 -26 48 C-25.37351562 47.82984375 -24.74703125 47.6596875 -24.1015625 47.484375 C-23.28429687 47.24203125 -22.46703125 46.9996875 -21.625 46.75 C-20.81289063 46.51796875 -20.00078125 46.2859375 -19.1640625 46.046875 C-16.54214546 44.7785108 -16.00617682 43.67576692 -15 41 C-14.34 41.33 -13.68 41.66 -13 42 C-13 41.34 -13 40.68 -13 40 C-10.91796875 38.37890625 -10.91796875 38.37890625 -8.1875 36.5625 C-5.18304744 34.5551962 -2.45248587 32.6643285 0 30 C0.99 30.66 1.98 31.32 3 32 C-22.66532074 55.19943698 -62.58335485 75.22777703 -98 74 C-98 73.67 -98 73.34 -98 73 C-96.865625 72.690625 -95.73125 72.38125 -94.5625 72.0625 C-91.21224901 71.37075469 -91.21224901 71.37075469 -90 70 C-88.33382885 69.95936168 -86.66611905 69.957279 -85 70 C-85 69.34 -85 68.68 -85 68 C-83.34997172 66.64613064 -81.6825613 65.31321858 -80 64 C-79.67 63.34 -79.34 62.68 -79 62 C-78.34 62 -77.68 62 -77 62 C-76.67 62.99 -76.34 63.98 -76 65 C-73.0183929 64.38517411 -70.04009328 63.75872174 -67.0625 63.125 C-66.21236328 62.95097656 -65.36222656 62.77695312 -64.48632812 62.59765625 C-63.67744141 62.42363281 -62.86855469 62.24960937 -62.03515625 62.0703125 C-61.2862915 61.91320801 -60.53742676 61.75610352 -59.76586914 61.59423828 C-57.78565771 61.1588839 -57.78565771 61.1588839 -57 59 C-54.6859378 58.26924352 -52.35171131 57.59861742 -50 57 C-50 56.34 -50 55.68 -50 55 C-48.19921875 53.80859375 -48.19921875 53.80859375 -45.6875 52.4375 C-24.97990684 40.41184391 -10.96058666 20.81960682 0 0 Z " fill="#F7510F" transform="translate(365,425)"/>
<path d="M0 0 C5.28776943 0.33048559 9.24100622 3.48352195 13 7 C13 7.66 13 8.32 13 9 C13.53625 9.2475 14.0725 9.495 14.625 9.75 C17 11 17 11 19.6875 12.8125 C22.92955402 14.95347907 26.22249855 16.84195115 29.62890625 18.703125 C31.22646687 19.57691433 32.81756061 20.46261966 34.40234375 21.359375 C38.19474061 23.50482414 41.87869964 25.5376031 46 27 C46 27.66 46 28.32 46 29 C46.59425781 29.03738281 47.18851563 29.07476562 47.80078125 29.11328125 C48.62964844 29.17902344 49.45851562 29.24476563 50.3125 29.3125 C51.11300781 29.37050781 51.91351563 29.42851562 52.73828125 29.48828125 C56 30 56 30 58.06518555 30.6706543 C67.88298106 33.84800045 77.96412721 33.80351943 88.1875 34.1875 C90.11267923 34.26903281 92.03781054 34.35170563 93.96289062 34.43554688 C98.6414779 34.63685081 103.32044418 34.82269828 108 35 C108 35.33 108 35.66 108 36 C69.09825465 36.47931257 30.31622677 32.27802153 -3 10 C-3.99 9.01 -4.98 8.02 -6 7 C-3.03 7.33 -0.06 7.66 3 8 C3.33 6.68 3.66 5.36 4 4 C2.68 3.67 1.36 3.34 0 3 C0 2.01 0 1.02 0 0 Z " fill="#FA530A" transform="translate(157,464)"/>
<path d="M0 0 C1.87109375 0.515625 1.87109375 0.515625 4 2 C4.87762163 4.63581983 5.52220644 7.04610934 6.0625 9.75 C7.15865042 14.97705789 8.55387673 19.20394931 11 24 C11.1875 27.875 11.1875 27.875 11 31 C11.66 31 12.32 31 13 31 C13.77521671 33.74895593 14.12278847 36.18115069 14.11352539 39.03417969 C14.11344986 39.81468689 14.11337433 40.59519409 14.11329651 41.39935303 C14.10813522 42.23178528 14.10297394 43.06421753 14.09765625 43.921875 C14.0962413 44.78186096 14.09482635 45.64184692 14.09336853 46.52789307 C14.08778097 49.26863109 14.07523075 52.00928676 14.0625 54.75 C14.05748339 56.6106759 14.05292077 58.47135309 14.04882812 60.33203125 C14.03781561 64.88805246 14.02055951 69.44401228 14 74 C13.34 74 12.68 74 12 74 C12 76.97 12 79.94 12 83 C11.34 83 10.68 83 10 83 C10.03480469 83.556875 10.06960937 84.11375 10.10546875 84.6875 C10.313323 90.54701038 9.34325807 94.6300336 7 100 C6.34 100 5.68 100 5 100 C4.34 102.31 3.68 104.62 3 107 C2.34 107 1.68 107 1 107 C1.15855469 106.47535156 1.31710938 105.95070313 1.48046875 105.41015625 C1.99235499 103.71046768 2.50106392 102.00982114 3.0078125 100.30859375 C3.74221066 97.85963612 4.48814753 95.41553916 5.2421875 92.97265625 C5.6825238 91.52350802 6.12262722 90.074289 6.5625 88.625 C6.77221436 87.95476807 6.98192871 87.28453613 7.19799805 86.59399414 C15.1484393 60.17517693 11.33758016 33.12187237 2.26953125 7.625 C1.37110214 5.05963933 0.62375919 2.62970792 0 0 Z " fill="#BC691C" transform="translate(183,29)"/>
<path d="M0 0 C1.32 0.33 2.64 0.66 4 1 C4 1.66 4 2.32 4 3 C7.32514673 4.13357275 10.5879008 5.1469752 14 6 C14 8.97 14 11.94 14 15 C15.98 15.66 17.96 16.32 20 17 C20 18.32 20 19.64 20 21 C21.32 21.66 22.64 22.32 24 23 C24.66 22.34 25.32 21.68 26 21 C26.33 21.66 26.66 22.32 27 23 C27.99 22.67 28.98 22.34 30 22 C29.67 23.32 29.34 24.64 29 26 C29.99 25.67 30.98 25.34 32 25 C32.21914062 25.51949219 32.43828125 26.03898437 32.6640625 26.57421875 C35.02378095 31.76368087 37.28597419 34.75910725 42 38 C44.21735439 38.85279338 44.21735439 38.85279338 46 39 C46 39.99 46 40.98 46 42 C46.66 42 47.32 42 48 42 C48.33 42.99 48.66 43.98 49 45 C44.49358139 43.50909141 41.09372429 40.99999238 37.4375 38.0625 C36.82616211 37.57595947 36.21482422 37.08941895 35.58496094 36.58813477 C29.46439726 31.66173078 23.67847261 26.42609605 18 21 C17.113125 20.154375 16.22625 19.30875 15.3125 18.4375 C9.73851676 12.99946757 4.5696956 7.31843386 0 1 C0 0.67 0 0.34 0 0 Z M31 28 C31.66 28.66 32.32 29.32 33 30 C33 29.34 33 28.68 33 28 C32.34 28 31.68 28 31 28 Z " fill="#F25610" transform="translate(102,426)"/>
<path d="M0 0 C1.61364578 2.95138543 2.50760584 5.68195376 3.21875 8.96484375 C3.53392578 10.41407227 3.53392578 10.41407227 3.85546875 11.89257812 C4.06816406 12.89740234 4.28085937 13.90222656 4.5 14.9375 C4.71269531 15.90751953 4.92539062 16.87753906 5.14453125 17.87695312 C7.75690652 30.03331287 9.32255505 42.09499044 10.125 54.5 C10.21136719 55.71558594 10.29773438 56.93117188 10.38671875 58.18359375 C11.32105402 72.07997711 10.85170959 85.48544836 9.5 99.3125 C9.35491374 100.84304645 9.21037924 102.3736453 9.06640625 103.90429688 C8.71727492 107.6034885 8.36075691 111.30192183 8 115 C7.67 115 7.34 115 7 115 C6.90468588 107.62904141 6.92255189 100.35229712 7.5 93 C10.48515282 58.70582548 10.48515282 58.70582548 3 26 C2.63352394 23.90135192 2.3056299 21.79586876 2 19.6875 C1.31877811 15.00216406 1.31877811 15.00216406 0.44140625 10.3515625 C-0.21325193 6.86391451 -0.06005865 3.54346049 0 0 Z " fill="#B85B1F" transform="translate(424,231)"/>
<path d="M0 0 C1.32 0.66 2.64 1.32 4 2 C-13.32459366 17.66007387 -38.60058952 34.23197899 -62 38 C-64.33203125 37.578125 -64.33203125 37.578125 -66 37 C-60.62819824 34.37124595 -55.95507399 33.3916035 -50 33 C-50 32.34 -50 31.68 -50 31 C-48.35 31 -46.7 31 -45 31 C-45 30.34 -45 29.68 -45 29 C-43.35 28.67 -41.7 28.34 -40 28 C-40 27.34 -40 26.68 -40 26 C-38.906875 25.731875 -37.81375 25.46375 -36.6875 25.1875 C-33.12955621 24.04172149 -32.40111277 23.51025426 -30 21 C-27.3125 20.3125 -27.3125 20.3125 -25 20 C-25 19.34 -25 18.68 -25 18 C-24.37351562 17.82984375 -23.74703125 17.6596875 -23.1015625 17.484375 C-22.28429687 17.24203125 -21.46703125 16.9996875 -20.625 16.75 C-19.81289063 16.51796875 -19.00078125 16.2859375 -18.1640625 16.046875 C-15.54214546 14.7785108 -15.00617682 13.67576692 -14 11 C-13.34 11.33 -12.68 11.66 -12 12 C-12 11.34 -12 10.68 -12 10 C-10.42127834 8.7912002 -8.78553783 7.65619701 -7.125 6.5625 C-3.93662716 4.45962732 -2.14059031 3.21088546 0 0 Z " fill="#BE4E1B" transform="translate(364,455)"/>
<path d="M0 0 C1.19976052 3.59928155 0.42955922 4.91227164 -1.12109375 8.25 C-3.51884021 13.02417961 -6.55689657 17.39016613 -9.5390625 21.8125 C-10.66486608 23.4981952 -11.74807209 25.21239269 -12.8125 26.9375 C-21.52945005 39.14123007 -21.52945005 39.14123007 -26.28125 40.79296875 C-27.13203125 40.89544922 -27.13203125 40.89544922 -28 41 C-28 41.66 -28 42.32 -28 43 C-33.47619048 48 -33.47619048 48 -36 48 C-36 48.66 -36 49.32 -36 50 C-40.38461538 53 -40.38461538 53 -43 53 C-43.33 53.99 -43.66 54.98 -44 56 C-46.97 56.495 -46.97 56.495 -50 57 C-50 56.34 -50 55.68 -50 55 C-48.19921875 53.80859375 -48.19921875 53.80859375 -45.6875 52.4375 C-24.97990684 40.41184391 -10.96058666 20.81960682 0 0 Z " fill="#F55D03" transform="translate(365,425)"/>
<path d="M0 0 C4.80793803 0.56422743 6.2770732 3.13030257 9.234375 6.7265625 C14.26909881 13.74403322 18.12890625 21.62230285 18.12890625 30.3671875 C17.46890625 30.3671875 16.80890625 30.3671875 16.12890625 30.3671875 C15.98195312 28.99433594 15.98195312 28.99433594 15.83203125 27.59375 C15.6825 26.40523437 15.53296875 25.21671875 15.37890625 23.9921875 C15.2396875 22.80882812 15.10046875 21.62546875 14.95703125 20.40625 C14.44585424 17.30197114 14.44585424 17.30197114 12.23828125 15.953125 C10.01202116 15.23336557 10.01202116 15.23336557 7.12890625 15.3671875 C6.46890625 15.3671875 5.80890625 15.3671875 5.12890625 15.3671875 C5.08618525 13.70106845 5.08826793 12.03335865 5.12890625 10.3671875 C5.45890625 10.0371875 5.78890625 9.7071875 6.12890625 9.3671875 C4.80890625 9.0371875 3.48890625 8.7071875 2.12890625 8.3671875 C2.12890625 7.0471875 2.12890625 5.7271875 2.12890625 4.3671875 C0.47890625 4.0371875 -1.17109375 3.7071875 -2.87109375 3.3671875 C-2.54109375 4.6871875 -2.21109375 6.0071875 -1.87109375 7.3671875 C-2.86109375 7.6971875 -3.85109375 8.0271875 -4.87109375 8.3671875 C-5.08765625 9.9759375 -5.08765625 9.9759375 -5.30859375 11.6171875 C-5.70858817 14.28381699 -6.14701299 16.78118479 -6.87109375 19.3671875 C-8.19109375 19.6971875 -9.51109375 20.0271875 -10.87109375 20.3671875 C-6.41128641 0.81994683 -6.41128641 0.81994683 0 0 Z " fill="#E27615" transform="translate(115.87109375,159.6328125)"/>
<path d="M0 0 C-4.75 3 -4.75 3 -7 3 C-7 3.66 -7 4.32 -7 5 C-11.47058824 9 -11.47058824 9 -14 9 C-14.24621094 9.57105469 -14.49242187 10.14210938 -14.74609375 10.73046875 C-16.20437996 13.36992137 -17.95288115 15.15823313 -20.0625 17.3125 C-29.53799787 27.70203304 -35.25902726 39.89260477 -40 53 C-40.66 52.67 -41.32 52.34 -42 52 C-41.46066487 46.60664875 -39.55824261 42.67047581 -37 38 C-36.54625 37.17113281 -36.0925 36.34226562 -35.625 35.48828125 C-34.42666671 33.31970652 -33.21847739 31.15730424 -32 29 C-31.34 29 -30.68 29 -30 29 C-29.79375 28.175 -29.5875 27.35 -29.375 26.5 C-27.51218502 21.75828914 -24.71113502 16.28906797 -19.9296875 14.015625 C-17.46879371 12.72041774 -17.09780443 11.50859992 -16 9 C-12.24510168 3.59434142 -7.14144808 -2.38048269 0 0 Z " fill="#F1A200" transform="translate(245,362)"/>
<path d="M0 0 C1.87109375 0.515625 1.87109375 0.515625 4 2 C4.87762163 4.63581983 5.52220644 7.04610934 6.0625 9.75 C7.15865042 14.97705789 8.55387673 19.20394931 11 24 C11.1875 27.875 11.1875 27.875 11 31 C11.66 31 12.32 31 13 31 C14.01085428 34.34386398 14.11543463 37.3748118 14.09765625 40.859375 C14.09443359 41.97441406 14.09121094 43.08945313 14.08789062 44.23828125 C14.07951172 45.39714844 14.07113281 46.55601563 14.0625 47.75 C14.05798828 48.92433594 14.05347656 50.09867188 14.04882812 51.30859375 C14.03705094 54.20578072 14.02060326 57.10286454 14 60 C13.67 60 13.34 60 13 60 C12.98582031 59.18402344 12.97164062 58.36804688 12.95703125 57.52734375 C12.26453687 40.32728058 7.98265345 23.68548839 2.234375 7.51953125 C1.34797925 4.99218133 0.61575877 2.59208846 0 0 Z " fill="#D58023" transform="translate(183,29)"/>
<path d="M0 0 C0.66 0 1.32 0 2 0 C3.34680437 25.64798985 3.34680437 25.64798985 -4 35 C-6.140625 35.6796875 -6.140625 35.6796875 -8 36 C-8.71247732 37.6476038 -9.37400383 39.31763529 -10 41 C-12 43.3125 -12 43.3125 -14 45 C-14.66 45 -15.32 45 -16 45 C-16 45.66 -16 46.32 -16 47 C-16.969375 47.309375 -17.93875 47.61875 -18.9375 47.9375 C-21.84065792 48.69523342 -21.84065792 48.69523342 -23 50 C-24.99958364 50.04080783 -27.00045254 50.04254356 -29 50 C-26.5217698 47.93480816 -24.02436301 46.49136647 -21.125 45.125 C-11.61550595 40.44069367 -5.94754687 32.77544396 -1.76171875 23.2734375 C0.0210139 17.9526662 0.13254277 12.68531835 0.0625 7.125 C0.05798828 6.43664062 0.05347656 5.74828125 0.04882812 5.0390625 C0.03716336 3.35933665 0.01923271 1.67965625 0 0 Z " fill="#F1A200" transform="translate(296,448)"/>
<path d="M0 0 C4.18865681 0.76084588 8.22484795 1.87822698 12.3125 3.0625 C14.19388672 3.60583984 14.19388672 3.60583984 16.11328125 4.16015625 C17.54220703 4.57587891 17.54220703 4.57587891 19 5 C19 5.66 19 6.32 19 7 C20.42892578 6.83951172 20.42892578 6.83951172 21.88671875 6.67578125 C23.76810547 6.49595703 23.76810547 6.49595703 25.6875 6.3125 C26.92886719 6.18488281 28.17023438 6.05726563 29.44921875 5.92578125 C33.36676302 6.00766611 34.86101236 6.77655042 38 9 C39.98451771 9.71143088 41.98202112 10.38991336 44 11 C44 11.33 44 11.66 44 12 C35.51562142 12.56878516 28.5012992 11.35866505 20.4453125 8.97265625 C17.04157042 7.9330379 17.04157042 7.9330379 13.6171875 7.49609375 C12.75351563 7.33238281 11.88984375 7.16867187 11 7 C10.67 6.34 10.34 5.68 10 5 C7.65961814 3.86897474 7.65961814 3.86897474 4.9375 2.875 C4.01839844 2.52179688 3.09929687 2.16859375 2.15234375 1.8046875 C1.44207031 1.53914063 0.73179687 1.27359375 0 1 C0 0.67 0 0.34 0 0 Z " fill="#F78F10" transform="translate(192,486)"/>
<path d="M0 0 C0.66 0.33 1.32 0.66 2 1 C0.21526335 3.17272288 -1.57719352 5.33813771 -3.375 7.5 C-3.88289062 8.12003906 -4.39078125 8.74007813 -4.9140625 9.37890625 C-6.23207606 10.95705407 -7.61212632 12.48292487 -9 14 C-9.66 14 -10.32 14 -11 14 C-11 14.66 -11 15.32 -11 16 C-11.66 15.67 -12.32 15.34 -13 15 C-9.24617479 10.0345655 -5.53779589 5.27086672 -1 1 C-0.67 0.67 -0.34 0.34 0 0 Z M-15 16 C-14.34 16.33 -13.68 16.66 -13 17 C-17.625 22.875 -17.625 22.875 -21 24 C-19.55746343 20.63408134 -17.66735273 18.48952921 -15 16 Z M-23 24 C-22.34 24.33 -21.68 24.66 -21 25 C-25 32.71428571 -25 32.71428571 -29 34 C-28.67 32.68 -28.34 31.36 -28 30 C-27.34 30 -26.68 30 -26 30 C-25.690625 29.195625 -25.38125 28.39125 -25.0625 27.5625 C-24 25 -24 25 -23 24 Z M-32 35 C-31.34 35 -30.68 35 -30 35 C-30.33 36.32 -30.66 37.64 -31 39 C-31.66 39 -32.32 39 -33 39 C-33.26941406 39.7321875 -33.53882813 40.464375 -33.81640625 41.21875 C-34.96385859 43.91507365 -36.27415208 46.09597553 -37.9375 48.5 C-40.06359009 51.6137603 -42.10560631 54.73743309 -44 58 C-44.33 57.34 -44.66 56.68 -45 56 C-41.49956097 48.83136927 -37.05738809 41.20038911 -32 35 Z " fill="#FE8A08" transform="translate(178,264)"/>
<path d="M0 0 C0.33 0 0.66 0 1 0 C1.05823729 4.5416125 1.09367675 9.0831284 1.125 13.625 C1.14175781 14.91019531 1.15851563 16.19539063 1.17578125 17.51953125 C1.18222656 18.76347656 1.18867188 20.00742187 1.1953125 21.2890625 C1.20578613 22.43068848 1.21625977 23.57231445 1.22705078 24.74853516 C0.99052625 28.13566817 0.2095701 30.84005042 -1 34 C-0.34 34 0.32 34 1 34 C1.1875 36.875 1.1875 36.875 1 40 C0.01 40.66 -0.98 41.32 -2 42 C-1.34 42.66 -0.68 43.32 0 44 C-0.99 44.495 -0.99 44.495 -2 45 C-1.87625 46.36125 -1.87625 46.36125 -1.75 47.75 C-2.06427467 51.83557075 -3.12983115 52.20955807 -6 55 C-7.50824947 57.9298765 -8.77211173 60.94334197 -10 64 C-11.33294132 60.00117603 -9.87418419 57.80911188 -8.3125 54.125 C-1.41857544 36.65637717 -0.28190321 18.61290236 0 0 Z " fill="#F76105" transform="translate(377,360)"/>
<path d="M0 0 C1.45304823 3.89416926 0.53972653 6.90559037 -0.375 10.875 C-1.80531844 17.36922364 -2.47337995 23.61764896 -2.7890625 30.26953125 C-3 33 -3 33 -4 35 C-4.66 35 -5.32 35 -6 35 C-6.33 44.9 -6.66 54.8 -7 65 C-7.33 65 -7.66 65 -8 65 C-8.34787579 42.62891078 -7.13452393 21.40357179 0 0 Z " fill="#B4581D" transform="translate(72,260)"/>
<path d="M0 0 C4.29 0.33 8.58 0.66 13 1 C13 1.66 13 2.32 13 3 C13.59425781 3.03738281 14.18851563 3.07476562 14.80078125 3.11328125 C15.62964844 3.17902344 16.45851562 3.24476563 17.3125 3.3125 C18.11300781 3.37050781 18.91351563 3.42851562 19.73828125 3.48828125 C23 4 23 4 25.06518555 4.6706543 C34.88298106 7.84800045 44.96412721 7.80351943 55.1875 8.1875 C57.11267923 8.26903281 59.03781054 8.35170563 60.96289062 8.43554688 C65.6414779 8.63685081 70.32044418 8.82269828 75 9 C75 9.33 75 9.66 75 10 C48.55733379 10.32580292 25.65363351 8.09466022 0 1 C0 0.67 0 0.34 0 0 Z " fill="#B56016" transform="translate(190,490)"/>
<path d="M0 0 C0.66 0 1.32 0 2 0 C0 10 0 10 -0.55078125 12.33984375 C-3.18312813 27.92791526 0.2750037 43.52915828 6 58 C6.67681023 59.99659018 7.34961499 61.99464622 8 64 C7.01 63.67 6.02 63.34 5 63 C4.67 61.02 4.34 59.04 4 57 C3.01 56.67 2.02 56.34 1 56 C0.87625 54.7625 0.7525 53.525 0.625 52.25 C0.23197906 49.04407205 -0.51922514 46.8690013 -2 44 C-3.28235761 37.43360147 -3.18371628 30.85819043 -3.1875 24.1875 C-3.19974609 23.06279297 -3.21199219 21.93808594 -3.22460938 20.77929688 C-3.23640697 14.01141156 -2.89615842 7.53452101 -1 1 C-0.67 0.67 -0.34 0.34 0 0 Z " fill="#F2A300" transform="translate(202,415)"/>
<path d="M0 0 C3.88573845 2.36064695 4.81123222 4.50618882 6.0625 8.8125 C7.39127083 13.14138622 8.93757944 16.96482934 11 21 C12.0921028 23.97027959 13.03943578 26.98502331 14 30 C16.58562073 38.15302638 16.58562073 38.15302638 19.8125 46.0625 C21 49 21 49 20 52 C15.83782457 43.51329477 12.44366231 34.97621961 9.39453125 26.04296875 C6.89746262 18.7377429 4.03263587 11.63357622 0.98828125 4.5390625 C0 2 0 2 0 0 Z " fill="#F1A200" transform="translate(266,374)"/>
<path d="M0 0 C2.28159875 2.28159875 3.12370416 4.22334086 4.42578125 7.171875 C4.89072998 8.22294434 5.35567871 9.27401367 5.8347168 10.35693359 C6.32238525 11.47664551 6.81005371 12.59635742 7.3125 13.75 C7.8072583 14.88131348 8.3020166 16.01262695 8.81176758 17.17822266 C18 38.37295876 18 38.37295876 18 44 C17.34 44 16.68 44 16 44 C12.6217966 36.51110249 9.53585429 29.35096684 7.73828125 21.3046875 C6.90504619 18.70358334 5.64832618 17.16187503 4 15 C3.20583504 13.19387233 2.47835945 11.35726313 1.8125 9.5 C1.46832031 8.5615625 1.12414062 7.623125 0.76953125 6.65625 C0 4 0 4 0 0 Z " fill="#C66D1F" transform="translate(315,126)"/>
<path d="M0 0 C0.66 0 1.32 0 2 0 C2.33 0.99 2.66 1.98 3 3 C7.455 2.505 7.455 2.505 12 2 C9.06171403 4.50298434 6.82097239 5.46930939 3 6 C3 6.99 3 7.98 3 9 C0.64741656 9.50866669 -1.70661404 10.0070625 -4.0625 10.5 C-4.71927734 10.64308594 -5.37605469 10.78617187 -6.05273438 10.93359375 C-10.43139988 11.83952455 -14.50418704 12.14031146 -19 12 C-19 11.67 -19 11.34 -19 11 C-17.865625 10.690625 -16.73125 10.38125 -15.5625 10.0625 C-12.21224901 9.37075469 -12.21224901 9.37075469 -11 8 C-9.33382885 7.95936168 -7.66611905 7.957279 -6 8 C-6 7.34 -6 6.68 -6 6 C-4.34997172 4.64613064 -2.6825613 3.31321858 -1 2 C-0.67 1.34 -0.34 0.68 0 0 Z " fill="#FD9208" transform="translate(286,487)"/>
<path d="M0 0 C6.17491953 2.11711527 9.94734392 5.21602006 13 11 C12.01 11.495 12.01 11.495 11 12 C11 11.34 11 10.68 11 10 C9.2984375 9.566875 9.2984375 9.566875 7.5625 9.125 C6.386875 8.75375 5.21125 8.3825 4 8 C3.67 7.34 3.34 6.68 3 6 C2.34 6 1.68 6 1 6 C0.71125 6.639375 0.4225 7.27875 0.125 7.9375 C-1 10 -1 10 -3 11 C-3.66 10.67 -4.32 10.34 -5 10 C-5.3125 7.25 -5.3125 7.25 -5 4 C-2.5 1.625 -2.5 1.625 0 0 Z " fill="#F58413" transform="translate(360,124)"/>
<path d="M0 0 C0 0.99 0 1.98 0 3 C2.31 3.33 4.62 3.66 7 4 C3.85408067 6.80045623 1.932936 7.35261589 -2.25 7.1875 C-3.14203125 7.16042969 -4.0340625 7.13335938 -4.953125 7.10546875 C-5.62859375 7.07066406 -6.3040625 7.03585938 -7 7 C-7 7.66 -7 8.32 -7 9 C-7.66 9 -8.32 9 -9 9 C-8.34 11.97 -7.68 14.94 -7 18 C-7.66 18.33 -8.32 18.66 -9 19 C-10.30614866 14.10194251 -10.60173806 9.02578408 -10 4 C-7.33708529 -0.30163145 -4.8582279 -0.44165708 0 0 Z " fill="#F89406" transform="translate(190,0)"/>
<path d="M0 0 C3.61426838 1.34244254 6.71043978 3.00210325 10 5 C12.35105653 6.36000406 14.70448577 7.71470608 17.0625 9.0625 C17.67416016 9.41376953 18.28582031 9.76503906 18.91601562 10.12695312 C21.9114548 11.8400205 24.91159661 13.45579831 28 15 C24.04 14.67 20.08 14.34 16 14 C16 13.34 16 12.68 16 12 C12.91190305 10.23537317 11.76687864 10 8 10 C7.34 9.67 6.68 9.34 6 9 C6 8.34 6 7.68 6 7 C5.21625 6.87625 4.4325 6.7525 3.625 6.625 C1 6 1 6 -1 4 C-0.625 1.875 -0.625 1.875 0 0 Z " fill="#F3560E" transform="translate(174,476)"/>
<path d="M0 0 C0.33 0 0.66 0 1 0 C1.02505615 0.99741211 1.0501123 1.99482422 1.07592773 3.02246094 C1.17124366 6.77988052 1.27114282 10.53716751 1.37231445 14.29443359 C1.41520031 15.90996159 1.45689992 17.52552158 1.49731445 19.14111328 C1.73127384 28.45905153 2.06895876 37.71928957 3 47 C-1.77519738 42.22480262 -2.194824 32.88576794 -2.25 26.375 C-2.18991726 24.24921555 -2.10274291 22.12415003 -2 20 C-1.93354211 18.35286667 -1.86714029 16.70573107 -1.80078125 15.05859375 C-1.72323138 13.30981158 -1.64380053 11.56111182 -1.5625 9.8125 C-1.52350586 8.96155762 -1.48451172 8.11061523 -1.44433594 7.23388672 C-1.11861932 1.11861932 -1.11861932 1.11861932 0 0 Z " fill="#F76803" transform="translate(121,352)"/>
<path d="M0 0 C0 3 0 3 -1.875 5.1875 C-4 7 -4 7 -6 7 C-6.33 7.99 -6.66 8.98 -7 10 C-9.31 10.33 -11.62 10.66 -14 11 C-14 11.66 -14 12.32 -14 13 C-14.99 13 -15.98 13 -17 13 C-16.8125 10.6875 -16.8125 10.6875 -16 8 C-11.96551724 5 -11.96551724 5 -9 5 C-9 4.34 -9 3.68 -9 3 C-6.04341306 0.15291628 -4.05047276 -0.3375394 0 0 Z " fill="#FB500C" transform="translate(338,470)"/>
<path d="M0 0 C1.16204969 3.48614907 0.797969 4.32900485 -0.36328125 7.7109375 C-0.67330078 8.62617188 -0.98332031 9.54140625 -1.30273438 10.484375 C-1.80256836 11.91523438 -1.80256836 11.91523438 -2.3125 13.375 C-2.63412109 14.32117188 -2.95574219 15.26734375 -3.28710938 16.2421875 C-4.7574397 20.54146959 -6.28849657 24.79003026 -8 29 C-8.33 29 -8.66 29 -9 29 C-8.67 25.37 -8.34 21.74 -8 18 C-7.34 18 -6.68 18 -6 18 C-6.01160156 17.24074219 -6.02320313 16.48148437 -6.03515625 15.69921875 C-6.04417969 14.70535156 -6.05320312 13.71148437 -6.0625 12.6875 C-6.07410156 11.70136719 -6.08570313 10.71523438 -6.09765625 9.69921875 C-6 7 -6 7 -5 4 C-4.34 4 -3.68 4 -3 4 C-3 3.34 -3 2.68 -3 2 C-2.01 1.34 -1.02 0.68 0 0 Z " fill="#F5600F" transform="translate(427,361)"/>
<path d="M0 0 C3.60305737 3.02256479 4.07985503 6.3994046 5.15625 10.8203125 C5.4346875 11.53960937 5.713125 12.25890625 6 13 C6.99 13.33 7.98 13.66 9 14 C9.33 15.65 9.66 17.3 10 19 C10.99 19.33 11.98 19.66 13 20 C13.721875 20.94875 14.44375 21.8975 15.1875 22.875 C18.17412589 26.69276643 21.48088681 27.49362894 26 29 C26.33 29.66 26.66 30.32 27 31 C27.99 31.66 28.98 32.32 30 33 C22.08239087 32.40617932 16.12911213 27.8039953 11 22 C5.90352502 16.0450279 0 8.0981369 0 0 Z " fill="#FED10C" transform="translate(204,463)"/>
<path d="M0 0 C0.33 0.66 0.66 1.32 1 2 C-0.71862267 6.77395186 -3.0739501 10.78217314 -5.80859375 15.03515625 C-7.54283863 17.89523879 -8.7498688 20.90184877 -10 24 C-10.67807007 25.6289574 -11.36590425 27.25387828 -12.0625 28.875 C-12.38347656 29.63554687 -12.70445312 30.39609375 -13.03515625 31.1796875 C-14 33 -14 33 -16 34 C-13.71339075 21.10540972 -7.0936519 10.73000937 0 0 Z " fill="#FED40C" transform="translate(220,384)"/>
<path d="M0 0 C3.99465732 1.29556454 5.70742304 2.51183183 8 6 C8.70027743 7.51771154 9.34447328 9.06226006 9.9375 10.625 C10.27394531 11.49640625 10.61039062 12.3678125 10.95703125 13.265625 C11.30121094 14.16796875 11.64539063 15.0703125 12 16 C12.70446757 17.79319017 13.41267406 19.58491696 14.125 21.375 C14.43695313 22.16648437 14.74890625 22.95796875 15.0703125 23.7734375 C15.9676325 26.0189169 15.9676325 26.0189169 17.140625 28.1484375 C18.2275041 30.49016793 17.85008998 31.61974805 17 34 C17 33.34 17 32.68 17 32 C16.34 32 15.68 32 15 32 C13.83076281 29.24394092 12.89101812 26.58742575 12.125 23.6875 C10.84255684 19.48393632 9.19549512 14.19549512 6 11 C5.95936168 9.33382885 5.957279 7.66611905 6 6 C5.38125 5.7525 4.7625 5.505 4.125 5.25 C1.64931313 3.79371361 1.04874998 2.62187494 0 0 Z " fill="#FED40D" transform="translate(256,362)"/>
<path d="M0 0 C3.70113071 5.55169606 2.49699755 13.29121323 1.3125 19.6875 C-0.21601609 25.6705487 -2.79801076 31.53200717 -8 35 C-8 34.01 -8 33.02 -8 32 C-7.34 32 -6.68 32 -6 32 C-5.566875 30.1128125 -5.566875 30.1128125 -5.125 28.1875 C-4.42696461 25.1460601 -3.79553415 23.69330122 -2 21 C-0.8144644 16.64256781 -0.68217338 12.17585264 -0.4375 7.6875 C-0.37272461 6.57665039 -0.37272461 6.57665039 -0.30664062 5.44335938 C-0.20129568 3.62908536 -0.10021684 1.8145645 0 0 Z " fill="#FED50C" transform="translate(295,448)"/>
<path d="M0 0 C0 4.02627976 -1.73312762 5.73303687 -4 9 C-4.6731208 10.33008669 -5.33939157 11.66365471 -6 13 C-6.81441553 14.40695504 -7.6479918 15.80298667 -8.5 17.1875 C-8.9228125 17.88230469 -9.345625 18.57710937 -9.78125 19.29296875 C-11 21 -11 21 -13 22 C-14.04808041 23.97522846 -15.0520411 25.97481509 -16 28 C-16.66 28 -17.32 28 -18 28 C-16.94124926 24.59687262 -15.99097846 21.98646769 -14 19 C-13.34 19 -12.68 19 -12 19 C-11.67 17.68 -11.34 16.36 -11 15 C-10.34 15 -9.68 15 -9 15 C-8.91878906 14.28457031 -8.83757812 13.56914062 -8.75390625 12.83203125 C-7.8248809 9.3421692 -6.25141366 7.44215911 -3.9375 4.6875 C-3.20402344 3.80449219 -2.47054687 2.92148438 -1.71484375 2.01171875 C-1.14894531 1.34785156 -0.58304688 0.68398437 0 0 Z M-20 28 C-19.34 28 -18.68 28 -18 28 C-18 28.66 -18 29.32 -18 30 C-19.98 30.99 -19.98 30.99 -22 32 C-21.34 30.68 -20.68 29.36 -20 28 Z " fill="#FD8706" transform="translate(223,208)"/>
<path d="M0 0 C0.33 1.32 0.66 2.64 1 4 C0.01 4.495 0.01 4.495 -1 5 C-1.144375 5.639375 -1.28875 6.27875 -1.4375 6.9375 C-2 9 -2 9 -5 11 C-6.05021103 12.84971696 -6.05021103 12.84971696 -7 15 C-8.4375 17.75 -8.4375 17.75 -10 20 C-10.99 20 -11.98 20 -13 20 C-13.226875 20.78375 -13.45375 21.5675 -13.6875 22.375 C-15 25 -15 25 -17.625 26.3125 C-18.40875 26.539375 -19.1925 26.76625 -20 27 C-16.95597445 22.93925904 -13.91036391 18.87973137 -10.859375 14.82421875 C-10.34632813 14.14166016 -9.83328125 13.45910156 -9.3046875 12.75585938 C-8.25320745 11.35696821 -7.20110694 9.95854324 -6.1484375 8.56054688 C-5.64054688 7.88443359 -5.13265625 7.20832031 -4.609375 6.51171875 C-3.9282666 5.60619263 -3.9282666 5.60619263 -3.23339844 4.68237305 C-2.1119222 3.15266348 -1.05213633 1.5782045 0 0 Z " fill="#C1681F" transform="translate(169,163)"/>
<path d="M0 0 C2.06095434 2.06095434 2.62104173 3.24651432 3.62109375 5.921875 C3.91693359 6.70046875 4.21277344 7.4790625 4.51757812 8.28125 C4.97293945 9.50328125 4.97293945 9.50328125 5.4375 10.75 C7.84455559 17.17128825 7.84455559 17.17128825 10.72265625 23.390625 C12 26 12 26 12 29 C11.01 29 10.02 29 9 29 C8.60167969 27.92621094 8.20335937 26.85242188 7.79296875 25.74609375 C7.25790218 24.30986242 6.72274086 22.87366638 6.1875 21.4375 C5.79594727 20.38079102 5.79594727 20.38079102 5.39648438 19.30273438 C4.12088046 15.88537573 2.80304471 12.51730898 1.3125 9.1875 C-0.0605444 5.8529636 -0.26093312 3.566086 0 0 Z " fill="#FED50D" transform="translate(275,400)"/>
<path d="M0 0 C0.33 0 0.66 0 1 0 C1 2.64 1 5.28 1 8 C0.34 8 -0.32 8 -1 8 C-0.96519531 8.60328125 -0.93039062 9.2065625 -0.89453125 9.828125 C-0.67272727 16.37662338 -0.67272727 16.37662338 -2.3125 19.5 C-4 21 -4 21 -7 22 C-7.33 22.66 -7.66 23.32 -8 24 C-8.66 24 -9.32 24 -10 24 C-8.70326757 20.62969084 -7.23915449 17.4466123 -5.5625 14.25 C-3.21400791 9.62249784 -1.47614063 4.96847336 0 0 Z " fill="#D6701A" transform="translate(350,147)"/>
<path d="M0 0 C2.79297711 0.44099639 5.31340243 1.10446748 8 2 C8 2.99 8 3.98 8 5 C8.66 5 9.32 5 10 5 C10.99 6.485 10.99 6.485 12 8 C12.99 8.33 13.98 8.66 15 9 C14.67 9.66 14.34 10.32 14 11 C11 12 11 12 8 11 C7.67 10.01 7.34 9.02 7 8 C3.99152582 6.77479736 3.99152582 6.77479736 1 6 C1 5.01 1 4.02 1 3 C0.34 2.34 -0.32 1.68 -1 1 C-0.67 0.67 -0.34 0.34 0 0 Z " fill="#F89008" transform="translate(241,36)"/>
<path d="M0 0 C-0.33 0.66 -0.66 1.32 -1 2 C-2.93906643 2.23402526 -4.87857933 2.46502374 -6.8203125 2.67578125 C-15.79320165 4.01045831 -21.98947898 10.7390406 -28 17 C-28.66 16.67 -29.32 16.34 -30 16 C-26.93922229 12.15216516 -24.05957421 8.85267377 -20 6 C-19.34 6 -18.68 6 -18 6 C-18 5.34 -18 4.68 -18 4 C-11.97181491 -0.28670939 -7.28695785 -0.474377 0 0 Z " fill="#FED70D" transform="translate(256,361)"/>
<path d="M0 0 C1.10844919 3.32534757 0.84454356 5.62182575 0 9 C-0.66 9 -1.32 9 -2 9 C-2.75241109 12.65456815 -3.40049704 16.31733897 -4 20 C-4.66 20 -5.32 20 -6 20 C-5.9175 20.928125 -5.835 21.85625 -5.75 22.8125 C-6 26 -6 26 -8 27.875 C-8.99 28.431875 -8.99 28.431875 -10 29 C-9.36034555 23.04321793 -7.1648806 17.7833137 -5 12.25 C-4.44699219 10.81333984 -4.44699219 10.81333984 -3.8828125 9.34765625 C-1.19041149 2.38082298 -1.19041149 2.38082298 0 0 Z " fill="#C06220" transform="translate(83,231)"/>
<path d="M0 0 C2.86633433 4.2995015 4.20618686 7.11935283 4.5 12.3125 C4.74646746 15.69134486 5.11713274 18.4065195 6.0625 21.6875 C7.18835137 25.66550816 7.1444844 28.88219464 7 33 C4.67150149 29.0843635 3.89425086 24.83728313 2.9375 20.4375 C2.7612207 19.63844238 2.58494141 18.83938477 2.40332031 18.01611328 C1.12585286 12.03568202 0.26948799 6.11737729 0 0 Z " fill="#B5531E" transform="translate(65,334)"/>
<path d="M0 0 C0.66 0 1.32 0 2 0 C2 0.66 2 1.32 2 2 C3.65 2 5.3 2 7 2 C6.67 3.98 6.34 5.96 6 8 C4.68 8.33 3.36 8.66 2 9 C1.34 11.31 0.68 13.62 0 16 C-0.66 16 -1.32 16 -2 16 C-2.20674944 10.21101581 -1.59162079 5.57067277 0 0 Z " fill="#E27816" transform="translate(353,135)"/>
<path d="M0 0 C1.32 0.66 2.64 1.32 4 2 C2.16015019 3.66462602 0.30575742 5.30527987 -1.5625 6.9375 C-2.33303711 7.64036133 -2.33303711 7.64036133 -3.11914062 8.35742188 C-6.94898662 11.66393488 -9.80657246 12.69219282 -15 13 C-14.67 12.34 -14.34 11.68 -14 11 C-13.34 11.33 -12.68 11.66 -12 12 C-12 11.34 -12 10.68 -12 10 C-10.42127834 8.7912002 -8.78553783 7.65619701 -7.125 6.5625 C-3.93662716 4.45962732 -2.14059031 3.21088546 0 0 Z " fill="#D0541B" transform="translate(364,455)"/>
<path d="M0 0 C4.07242926 3.59444461 6.62369219 7.88313306 9.375 12.5 C9.85066406 13.25925781 10.32632812 14.01851562 10.81640625 14.80078125 C11.25597656 15.53683594 11.69554687 16.27289063 12.1484375 17.03125 C12.55239746 17.69705078 12.95635742 18.36285156 13.37255859 19.04882812 C14 21 14 21 13.11572266 23.24804688 C12.74753418 23.82619141 12.3793457 24.40433594 12 25 C11.67 23.02 11.34 21.04 11 19 C10.01 19 9.02 19 8 19 C7.49384702 17.73160474 6.99530901 16.46016898 6.5 15.1875 C6.2215625 14.47980469 5.943125 13.77210938 5.65625 13.04296875 C5 11 5 11 5 8 C4.34 8 3.68 8 3 8 C0 2.25 0 2.25 0 0 Z " fill="#C66B20" transform="translate(388,157)"/>
<path d="M0 0 C3.33971596 3.96639035 6.03893267 8.1249498 8.6875 12.5625 C9.09033203 13.22185547 9.49316406 13.88121094 9.90820312 14.56054688 C11.782142 17.68377833 13.24169106 20.44155607 14 24 C13.01 23.67 12.02 23.34 11 23 C10.67 21.35 10.34 19.7 10 18 C9.01 18 8.02 18 7 18 C6.87625 17.030625 6.7525 16.06125 6.625 15.0625 C6.315625 13.5465625 6.315625 13.5465625 6 12 C5.34 11.67 4.68 11.34 4 11 C4 9.68 4 8.36 4 7 C2.68 6.67 1.36 6.34 0 6 C0 4.02 0 2.04 0 0 Z " fill="#CB7521" transform="translate(294,89)"/>
<path d="M0 0 C4.18865681 0.76084588 8.22484795 1.87822698 12.3125 3.0625 C14.19388672 3.60583984 14.19388672 3.60583984 16.11328125 4.16015625 C17.54220703 4.57587891 17.54220703 4.57587891 19 5 C19 5.66 19 6.32 19 7 C21.31 7 23.62 7 26 7 C25.67 7.66 25.34 8.32 25 9 C22.33146093 8.67793494 19.6656321 8.34457004 17 8 C15.865625 7.855625 14.73125 7.71125 13.5625 7.5625 C12.716875 7.376875 11.87125 7.19125 11 7 C10.67 6.34 10.34 5.68 10 5 C7.65961814 3.86897474 7.65961814 3.86897474 4.9375 2.875 C4.01839844 2.52179688 3.09929687 2.16859375 2.15234375 1.8046875 C1.44207031 1.53914063 0.73179687 1.27359375 0 1 C0 0.67 0 0.34 0 0 Z " fill="#FC830B" transform="translate(192,486)"/>
<path d="M0 0 C0.66 0 1.32 0 2 0 C2.33 1.32 2.66 2.64 3 4 C3.66 4 4.32 4 5 4 C5.33 3.34 5.66 2.68 6 2 C5.96519531 2.87011719 5.96519531 2.87011719 5.9296875 3.7578125 C5.81609018 8.67495384 6.30344195 12.33446537 8 17 C8.125 19.875 8.125 19.875 8 22 C5.67899838 18.51849756 4.32324845 14.89433316 2.875 11 C2.59785156 10.27554687 2.32070312 9.55109375 2.03515625 8.8046875 C0.88904289 5.74462128 0 3.29457901 0 0 Z " fill="#C0541C" transform="translate(72,367)"/>
<path d="M0 0 C2 2 2 2 2.046875 4.2421875 C1.94890625 5.11101562 1.8509375 5.97984375 1.75 6.875 C1.61851562 8.17050781 1.61851562 8.17050781 1.484375 9.4921875 C1.00349575 11.98190102 0.2453726 13.805286 -1 16 C-3 10.25 -3 10.25 -3 8 C-3.66 8 -4.32 8 -5 8 C-5 6.02 -5 4.04 -5 2 C-3.515 2.99 -3.515 2.99 -2 4 C-1.34 2.68 -0.68 1.36 0 0 Z " fill="#F8630D" transform="translate(429,344)"/>
<path d="M0 0 C0.33 0 0.66 0 1 0 C1.33 3.3 1.66 6.6 2 10 C4.29355722 10.22542376 4.29355722 10.22542376 6.3828125 7.8125 C7.28773438 6.884375 8.19265625 5.95625 9.125 5 C10.03507813 4.071875 10.94515625 3.14375 11.8828125 2.1875 C12.93082031 1.1046875 12.93082031 1.1046875 14 0 C14 0.99 14 1.98 14 3 C13 4 12 5 11 6 C10.566875 7.2375 10.566875 7.2375 10.125 8.5 C8.67851493 11.71441126 7.18930322 12.5998181 4 14 C3.01 13.67 2.02 13.34 1 13 C-0.32229189 10.35541621 -0.09677194 8.32238699 -0.0625 5.375 C-0.05347656 4.37210938 -0.04445312 3.36921875 -0.03515625 2.3359375 C-0.02355469 1.56507813 -0.01195312 0.79421875 0 0 Z " fill="#BA621F" transform="translate(134,190)"/>
<path d="M0 0 C6.73304432 4.62661705 12.33998772 10.13121677 18 16 C17.34 16.66 16.68 17.32 16 18 C14.49403892 16.54782324 12.99537896 15.08807139 11.5 13.625 C10.6646875 12.81289063 9.829375 12.00078125 8.96875 11.1640625 C7 9 7 9 7 7 C6.360625 6.896875 5.72125 6.79375 5.0625 6.6875 C4.381875 6.460625 3.70125 6.23375 3 6 C2.67 5.01 2.34 4.02 2 3 C1.34 3 0.68 3 0 3 C0 2.01 0 1.02 0 0 Z " fill="#D37D23" transform="translate(249,38)"/>
<path d="M0 0 C2.76276177 0.52268466 5.3260876 1.10869587 8 2 C8 2.66 8 3.32 8 4 C11.465 3.505 11.465 3.505 15 3 C15.33 3.99 15.66 4.98 16 6 C16.66 6.33 17.32 6.66 18 7 C18 7.66 18 8.32 18 9 C11.38757278 7.17778624 5.19479329 4.94776396 -1 2 C-0.67 1.34 -0.34 0.68 0 0 Z " fill="#C7521E" transform="translate(172,481)"/>
<path d="M0 0 C0.66 0 1.32 0 2 0 C2.103125 0.639375 2.20625 1.27875 2.3125 1.9375 C2.539375 2.618125 2.76625 3.29875 3 4 C3.99 4.33 4.98 4.66 6 5 C7.01351664 6.65848177 8.01120795 8.32665961 9 10 C10.64646685 11.68662458 12.31183067 13.35511706 14 15 C14.99 16.485 14.99 16.485 16 18 C14.68 18 13.36 18 12 18 C11.67 16.68 11.34 15.36 11 14 C10.34 14 9.68 14 9 14 C7.65080468 12.34614767 6.31866272 10.678298 5 9 C4.01 8.34 3.02 7.68 2 7 C0.8125 3.375 0.8125 3.375 0 0 Z " fill="#F45E03" transform="translate(144,446)"/>
<path d="M0 0 C2.125 0.375 2.125 0.375 4 1 C-0.71890538 6.40052505 -5.30358857 11.61814505 -11 16 C-11 14.68 -11 13.36 -11 12 C-10.01 12 -9.02 12 -8 12 C-7.9071875 11.13375 -7.9071875 11.13375 -7.8125 10.25 C-6.6865841 7.13207906 -4.58205789 5.98619837 -2 4 C-2 3.34 -2 2.68 -2 2 C-1.34 1.34 -0.68 0.68 0 0 Z " fill="#D25921" transform="translate(388,432)"/>
<path d="M0 0 C0.66 0 1.32 0 2 0 C1.835 0.928125 1.67 1.85625 1.5 2.8125 C0.92251612 5.95621353 0.92251612 5.95621353 1 9 C0.01 9.33 -0.98 9.66 -2 10 C-2 11.65 -2 13.3 -2 15 C-2.99 15 -3.98 15 -5 15 C-5.33 15.99 -5.66 16.98 -6 18 C-7.04449911 14.86650268 -6.93423645 14.01031744 -6 11 C-5.34 11 -4.68 11 -4 11 C-3.7834375 9.824375 -3.7834375 9.824375 -3.5625 8.625 C-3 6 -3 6 -2 4 C-1.34 4 -0.68 4 0 4 C0 2.68 0 1.36 0 0 Z " fill="#F8820D" transform="translate(190,125)"/>
<path d="M0 0 C0 0.66 0 1.32 0 2 C-20.38713753 10.86244982 -20.38713753 10.86244982 -26 9 C-20.62819824 6.37124595 -15.95507399 5.3916035 -10 5 C-10 4.34 -10 3.68 -10 3 C-8.35 3 -6.7 3 -5 3 C-5 2.34 -5 1.68 -5 1 C-2 0 -2 0 0 0 Z " fill="#AB491B" transform="translate(324,483)"/>
<path d="M0 0 C4.97792271 1.1487514 7.53807973 2.29932661 11 6 C13.1381966 6.7872678 13.1381966 6.7872678 15 7 C15 7.99 15 8.98 15 10 C15.66 10 16.32 10 17 10 C17.33 10.99 17.66 11.98 18 13 C13.35075551 11.46776311 9.97883359 8.92576405 6.1875 5.9375 C5.2912793 5.24817383 5.2912793 5.24817383 4.37695312 4.54492188 C2.89532936 3.39179526 1.44456694 2.19922322 0 1 C0 0.67 0 0.34 0 0 Z " fill="#C3501E" transform="translate(133,458)"/>
<path d="M0 0 C1.85546875 0.5078125 1.85546875 0.5078125 4 2 C4.98271056 4.6854853 5.69789586 7.10805705 6.3125 9.875 C6.49361328 10.59558594 6.67472656 11.31617188 6.86132812 12.05859375 C7.73515315 15.75109951 8.10876067 18.38236116 7 22 C6.01834721 19.08416415 5.04011699 16.1671912 4.0625 13.25 C3.78470703 12.425 3.50691406 11.6 3.22070312 10.75 C2.95322266 9.95078125 2.68574219 9.1515625 2.41015625 8.328125 C2.04096069 7.22839355 2.04096069 7.22839355 1.66430664 6.10644531 C1.02677645 4.08490527 0.49093646 2.06152574 0 0 Z " fill="#BB6B21" transform="translate(183,29)"/>
<path d="M0 0 C1.32 0 2.64 0 4 0 C4 0.99 4 1.98 4 3 C5.98 3.66 7.96 4.32 10 5 C10 6.32 10 7.64 10 9 C10.61875 9.226875 11.2375 9.45375 11.875 9.6875 C14.61410209 11.37929835 15.05024472 12.99244161 16 16 C10.35573231 11.31645873 4.9941954 6.3792354 0 1 C0 0.67 0 0.34 0 0 Z " fill="#C2521F" transform="translate(112,438)"/>
<path d="M0 0 C0.66 0.33 1.32 0.66 2 1 C1.69024532 2.77131561 1.37709575 4.54203778 1.0625 6.3125 C0.88847656 7.29863281 0.71445313 8.28476562 0.53515625 9.30078125 C0 12 0 12 -1 15 C-1.22560676 17.39254576 -1.40848595 19.78928123 -1.5625 22.1875 C-1.64628906 23.45980469 -1.73007813 24.73210937 -1.81640625 26.04296875 C-1.87699219 27.01878906 -1.93757812 27.99460937 -2 29 C-2.33 29 -2.66 29 -3 29 C-3.32476018 18.84823738 -3.16801648 9.78690805 0 0 Z " fill="#FED20C" transform="translate(203,418)"/>
<path d="M0 0 C2.5838359 2.5838359 3.9540665 5.57905121 5.5625 8.8125 C5.87896484 9.42931641 6.19542969 10.04613281 6.52148438 10.68164062 C8.2315226 14.09808642 9.4727908 17.208427 10 21 C7.02859871 18.23352293 5.02818571 15.50322987 3 12 C2.34 11.34 1.68 10.68 1 10 C1 9.01 1 8.02 1 7 C0.649375 6.154375 0.29875 5.30875 -0.0625 4.4375 C-0.371875 3.633125 -0.68125 2.82875 -1 2 C-0.67 1.34 -0.34 0.68 0 0 Z " fill="#F66403" transform="translate(130,419)"/>
<path d="M0 0 C6.06525001 -0.23785294 10.79621735 -0.34944061 15.875 3.375 C17 5 17 5 16.6875 7.1875 C16.460625 7.785625 16.23375 8.38375 16 9 C15.773125 8.38125 15.54625 7.7625 15.3125 7.125 C13.50798744 4.20340823 12.32371435 3.90017264 9 3 C5.67335771 2.55678732 2.34654408 2.24692947 -1 2 C-0.67 1.34 -0.34 0.68 0 0 Z " fill="#F2A301" transform="translate(247,359)"/>
<path d="M0 0 C0.33 4.62 0.66 9.24 1 14 C0.01 14 -0.98 14 -2 14 C-2 13.34 -2 12.68 -2 12 C-2.66 12 -3.32 12 -4 12 C-4.08859184 8.19055107 -4.05186057 4.681512 -3 1 C-1 0 -1 0 0 0 Z " fill="#F87A11" transform="translate(134,190)"/>
<path d="M0 0 C0.33 0 0.66 0 1 0 C1.34035816 5.5095477 0.31361461 9.51325268 -2 14.4375 C-2.28617187 15.07365234 -2.57234375 15.70980469 -2.8671875 16.36523438 C-3.56652845 17.91544015 -4.28163857 19.45851611 -5 21 C-5.66 20.67 -6.32 20.34 -7 20 C-5.07443364 13.14381674 -2.7527517 6.56747868 0 0 Z " fill="#BE6520" transform="translate(104,181)"/>
<path d="M0 0 C2.125 0.375 2.125 0.375 4 1 C2.625 2.5 2.625 2.5 1 4 C0.34 4 -0.32 4 -1 4 C-1 4.66 -1 5.32 -1 6 C-1.969375 6.309375 -2.93875 6.61875 -3.9375 6.9375 C-6.84065792 7.69523342 -6.84065792 7.69523342 -8 9 C-9.99958364 9.04080783 -12.00045254 9.04254356 -14 9 C-10.85179741 6.37649784 -7.48754547 4.69509212 -3.8046875 2.96484375 C-1.82545172 2.01891485 -1.82545172 2.01891485 0 0 Z " fill="#F69A01" transform="translate(281,489)"/>
<path d="M0 0 C2.0625 0.4375 2.0625 0.4375 4 1 C1.35261084 2.4606285 0.10551666 3 -3 3 C-3.33 3.99 -3.66 4.98 -4 6 C-5.98 6.33 -7.96 6.66 -10 7 C-9.67 5.68 -9.34 4.36 -9 3 C-9.66 2.67 -10.32 2.34 -11 2 C-7.58249876 1.21885686 -4.49438389 1 -1 1 C-0.67 0.67 -0.34 0.34 0 0 Z " fill="#FE8A09" transform="translate(311,481)"/>
<path d="M0 0 C0.66 0 1.32 0 2 0 C2.33 1.32 2.66 2.64 3 4 C3.66 4 4.32 4 5 4 C5 4.99 5 5.98 5 7 C5.66 7 6.32 7 7 7 C7.45375 8.0725 7.9075 9.145 8.375 10.25 C9.25518422 12.3289113 10.15183563 14.27330413 11.25 16.25 C12 18 12 18 11 21 C9.72428516 18.8152247 8.45439327 16.62738381 7.1875 14.4375 C6.83107422 13.82841797 6.47464844 13.21933594 6.10742188 12.59179688 C3.74518233 8.49580354 1.78642845 4.37872209 0 0 Z " fill="#B04E1E" transform="translate(80,390)"/>
<path d="M0 0 C0.99 0 1.98 0 3 0 C3.83919398 2.26882087 4.67151724 4.53977027 5.5 6.8125 C5.85771484 7.77639648 5.85771484 7.77639648 6.22265625 8.75976562 C7.27068746 11.64933739 8 13.90076061 8 17 C7.34 17 6.68 17 6 17 C4.9932996 14.73192796 3.99448234 12.46092246 3 10.1875 C2.71382813 9.54490234 2.42765625 8.90230469 2.1328125 8.24023438 C0.86288959 5.32243531 0 3.21734286 0 0 Z " fill="#CD7020" transform="translate(325,153)"/>
<path d="M0 0 C0.85696068 3.31262111 1.46228519 6.62007831 2 10 C1.01 10.495 1.01 10.495 0 11 C0 10.34 0 9.68 0 9 C-0.78375 9.825 -1.5675 10.65 -2.375 11.5 C-5 14 -5 14 -7 14 C-5.23570801 9.02790438 -2.6060834 4.56561939 0 0 Z " fill="#C5691A" transform="translate(177,149)"/>
<path d="M0 0 C4.55564061 1.58532809 8.31475769 3.99003081 12.3125 6.625 C12.95767578 7.04523437 13.60285156 7.46546875 14.26757812 7.8984375 C15.84760724 8.92838241 17.42416047 9.96365628 19 11 C16 12 16 12 13.3125 10.6875 C12.549375 10.130625 11.78625 9.57375 11 9 C11 8.34 11 7.68 11 7 C10.01 7.33 9.02 7.66 8 8 C7.6596875 7.0409375 7.6596875 7.0409375 7.3125 6.0625 C6.14749104 3.72806339 6.14749104 3.72806339 3.375 3.25 C2.59125 3.1675 1.8075 3.085 1 3 C0.67 2.01 0.34 1.02 0 0 Z " fill="#C07224" transform="translate(204,6)"/>
<path d="M0 0 C1.93166016 0.01740234 1.93166016 0.01740234 3.90234375 0.03515625 C5.19269531 0.04417969 6.48304688 0.05320312 7.8125 0.0625 C8.81152344 0.07410156 9.81054688 0.08570313 10.83984375 0.09765625 C4.68154055 4.20319171 -3.87958127 4.42859148 -11.16015625 4.09765625 C-11.16015625 3.76765625 -11.16015625 3.43765625 -11.16015625 3.09765625 C-10.02578125 2.78828125 -8.89140625 2.47890625 -7.72265625 2.16015625 C-0.53523737 0.01654009 -0.53523737 0.01654009 0 0 Z " fill="#BA5C1A" transform="translate(278.16015625,494.90234375)"/>
<path d="M0 0 C0.33 0 0.66 0 1 0 C1.46112386 8.60764545 -0.27151563 16.61479306 -2 25 C-2.33 25 -2.66 25 -3 25 C-3.15771487 16.32568232 -2.28454034 8.37664792 0 0 Z " fill="#FE870A" transform="translate(375,380)"/>
<path d="M0 0 C-1.7015625 0.680625 -1.7015625 0.680625 -3.4375 1.375 C-7.04721692 2.57095806 -7.04721692 2.57095806 -8 5 C-10.06640625 5.4140625 -10.06640625 5.4140625 -12.5625 5.625 C-13.38878906 5.69976562 -14.21507812 5.77453125 -15.06640625 5.8515625 C-16.02353516 5.92503906 -16.02353516 5.92503906 -17 6 C-17 5.34 -17 4.68 -17 4 C-12.53016133 1.47855255 -5.05711244 -2.52855622 0 0 Z " fill="#DE5712" transform="translate(306,489)"/>
<path d="M0 0 C5.6325748 4.42559449 7.87816475 11.72399424 8.75 18.625 C8.87375 20.295625 8.87375 20.295625 9 22 C8.34 22 7.68 22 7 22 C6.34 17.71 5.68 13.42 5 9 C4.01 8.67 3.02 8.34 2 8 C2 6.68 2 5.36 2 4 C1.34 4 0.68 4 0 4 C0 2.68 0 1.36 0 0 Z " fill="#B36021" transform="translate(125,168)"/>
<path d="M0 0 C2 1 2 1 2.6875 2.8125 C3.03102529 5.21717706 2.67100077 6.68877513 2 9 C2 9.99 2 10.98 2 12 C2 12.66 2 13.32 2 14 C1.34 14 0.68 14 0 14 C-2.49103242 9.31099779 -1.92737868 6.05842916 -1 1 C-0.67 0.67 -0.34 0.34 0 0 Z " fill="#FA8F06" transform="translate(189,27)"/>
<path d="M0 0 C0.66 0.66 1.32 1.32 2 2 C0.58653438 3.44064765 -0.83091211 4.87739015 -2.25 6.3125 C-3.43335938 7.51326172 -3.43335938 7.51326172 -4.640625 8.73828125 C-10.12953368 14 -10.12953368 14 -13 14 C-11.4114658 9.71095765 -8.56872632 7.67654474 -5 5 C-4.34 5 -3.68 5 -3 5 C-2.67 4.01 -2.34 3.02 -2 2 C-1.34 2 -0.68 2 0 2 C0 1.34 0 0.68 0 0 Z " fill="#FE890D" transform="translate(340,458)"/>
<path d="M0 0 C3.32462531 2.8956414 4.30151606 4.69268237 5 9 C5.66 9.33 6.32 9.66 7 10 C7.36548445 11.32488113 7.6937566 12.66018514 8 14 C8.63654342 15.3479743 9.29605388 16.68596724 10 18 C6.82163177 16.94284709 6.01354324 16.02332792 4.296875 13.06640625 C3.53117188 11.33197266 3.53117188 11.33197266 2.75 9.5625 C2.22921875 8.40878906 1.7084375 7.25507813 1.171875 6.06640625 C0 3 0 3 0 0 Z " fill="#FE8C0D" transform="translate(131,418)"/>
<path d="M0 0 C1.65 0.33 3.3 0.66 5 1 C5.33 3.31 5.66 5.62 6 8 C5.01 8.66 4.02 9.32 3 10 C2.01 9.67 1.02 9.34 0 9 C0.66 8.67 1.32 8.34 2 8 C1.34 7.01 0.68 6.02 0 5 C0 3.33333333 0 1.66666667 0 0 Z " fill="#F2850C" transform="translate(289,86)"/>
<path d="M0 0 C2.31 0.66 4.62 1.32 7 2 C6.40072174 5.35595828 5.15377564 7.37801226 3 10 C2.67 8.68 2.34 7.36 2 6 C1.34 6 0.68 6 0 6 C0 4.02 0 2.04 0 0 Z " fill="#F35E15" transform="translate(80,384)"/>
<path d="M0 0 C4.56048012 3.61251516 8.01665146 6.98797445 11 12 C10.01 12.495 10.01 12.495 9 13 C9 12.34 9 11.68 9 11 C8.2575 10.814375 7.515 10.62875 6.75 10.4375 C2.79449783 8.36985114 1.92549206 5.99361317 0 2 C0 1.34 0 0.68 0 0 Z " fill="#CB761F" transform="translate(267,55)"/>
<path d="M0 0 C3.3 0.33 6.6 0.66 10 1 C10.33 1.99 10.66 2.98 11 4 C11.99 4.66 12.98 5.32 14 6 C14 6.66 14 7.32 14 8 C8.76481294 6.56032356 4.36973991 4.18303389 0 1 C0 0.67 0 0.34 0 0 Z " fill="#BD511E" transform="translate(151,471)"/>
<path d="M0 0 C2.70572453 3.25644722 4.25072398 6.57530636 5.8125 10.5 C6.50279297 12.18609375 6.50279297 12.18609375 7.20703125 13.90625 C8 17 8 17 7.13671875 19.40625 C6.76160156 19.9321875 6.38648438 20.458125 6 21 C5.81824219 20.34773438 5.63648438 19.69546875 5.44921875 19.0234375 C4.30482287 15.04446106 3.19776633 11.38820799 1.3125 7.6875 C-0.0753328 4.84574713 -0.2749245 3.11581103 0 0 Z " fill="#BD6521" transform="translate(413,202)"/>
<path d="M0 0 C4.52485198 6.78727797 4.26070945 14.12078111 4 22 C3.67 22 3.34 22 3 22 C2.49311395 19.45953542 1.99433126 16.91791124 1.5 14.375 C1.35691406 13.66214844 1.21382813 12.94929688 1.06640625 12.21484375 C0.26950574 8.07855065 -0.16034056 4.23566321 0 0 Z " fill="#FF8A0C" transform="translate(122,381)"/>
<path d="M0 0 C0.33 0 0.66 0 1 0 C0.76658356 1.96736712 0.52977833 3.93443952 0.26953125 5.8984375 C0.05999596 7.53220539 -0.1041617 9.17181912 -0.25 10.8125 C-1 13 -1 13 -3.5625 14.8125 C-4.366875 15.204375 -5.17125 15.59625 -6 16 C-4.25192871 10.53262809 -2.34205919 5.24175152 0 0 Z " fill="#BF631E" transform="translate(90,215)"/>
<path d="M0 0 C3.9252025 3.70090521 6.94580156 7.54959656 10 12 C9.34 12.66 8.68 13.32 8 14 C6.5 12.625 6.5 12.625 5 11 C5 10.34 5 9.68 5 9 C4.34 9 3.68 9 3 9 C2.01 6.03 1.02 3.06 0 0 Z " fill="#CD771F" transform="translate(278,67)"/>
<path d="M0 0 C-0.6875 1.9375 -0.6875 1.9375 -2 4 C-4.4375 4.9375 -4.4375 4.9375 -7 5 C-8.8125 3.5625 -8.8125 3.5625 -10 2 C-6.27511755 -0.66063032 -4.42132508 -1.38955931 0 0 Z " fill="#E65014" transform="translate(175,477)"/>
<path d="M0 0 C1 2 1 2 -0.14453125 5.44140625 C-0.692384 6.81836948 -1.24876059 8.19196424 -1.8125 9.5625 C-2.08642578 10.26052734 -2.36035156 10.95855469 -2.64257812 11.67773438 C-4.74332257 16.87166128 -4.74332257 16.87166128 -7 18 C-6.17694295 11.25093223 -3.62839596 5.70176508 0 0 Z " fill="#FE880C" transform="translate(368,414)"/>
<path d="M0 0 C1.32 0.33 2.64 0.66 4 1 C4.33 2.65 4.66 4.3 5 6 C5.66 6 6.32 6 7 6 C8.5625 8.8125 8.5625 8.8125 10 12 C9.67 12.99 9.34 13.98 9 15 C7.49428254 12.87885041 5.99531321 10.75346385 4.5 8.625 C4.07074219 8.02171875 3.64148438 7.4184375 3.19921875 6.796875 C0 2.2265625 0 2.2265625 0 0 Z " fill="#BB521F" transform="translate(92,411)"/>
<path d="M0 0 C0.66 0 1.32 0 2 0 C0.58036591 5.67853635 -2.39363961 9.53174216 -6 14 C-7 11 -7 11 -5.8203125 8.5546875 C-4.98113281 7.22824219 -4.98113281 7.22824219 -4.125 5.875 C-3.57070313 4.98554688 -3.01640625 4.09609375 -2.4453125 3.1796875 C-1 1 -1 1 0 0 Z " fill="#FE8A0C" transform="translate(359,432)"/>
<path d="M0 0 C4.08963819 2.28538605 7.46362104 4.95706926 11 8 C10.34 8.66 9.68 9.32 9 10 C8.34 9.34 7.68 8.68 7 8 C4.42938689 7.35232207 4.42938689 7.35232207 2 7 C1.34 4.69 0.68 2.38 0 0 Z " fill="#D07B1C" transform="translate(238,29)"/>
<path d="M0 0 C0.66 0 1.32 0 2 0 C1.39363767 5.76044212 -0.75658279 10.72014369 -3 16 C-3.33 16 -3.66 16 -4 16 C-3.88648483 14.18674449 -3.75887039 12.37436643 -3.625 10.5625 C-3.55539062 9.55316406 -3.48578125 8.54382813 -3.4140625 7.50390625 C-3.27742188 6.67761719 -3.14078125 5.85132813 -3 5 C-2.34 4.67 -1.68 4.34 -1 4 C-0.34786708 1.97536745 -0.34786708 1.97536745 0 0 Z " fill="#B9521E" transform="translate(422,374)"/>
<path d="M0 0 C0.66 0.33 1.32 0.66 2 1 C0.50923566 4.2826932 -1.38620321 6.93077441 -3.625 9.75 C-4.57246094 10.94882812 -4.57246094 10.94882812 -5.5390625 12.171875 C-6.02117187 12.77515625 -6.50328125 13.3784375 -7 14 C-7.99 13.67 -8.98 13.34 -10 13 C-9.01 12.67 -8.02 12.34 -7 12 C-5.77479736 8.99152582 -5.77479736 8.99152582 -5 6 C-4.34 6 -3.68 6 -3 6 C-2.690625 5.38125 -2.38125 4.7625 -2.0625 4.125 C-1.375 2.75 -0.6875 1.375 0 0 Z " fill="#FE8A09" transform="translate(315,290)"/>
<path d="M0 0 C2.62587906 2.62587906 2.85778351 4.77281623 3.6875 8.375 C3.95949219 9.51710938 4.23148437 10.65921875 4.51171875 11.8359375 C4.95830381 14.72980868 4.99155833 16.29816991 4 19 C-0.59225513 6.51480638 -0.59225513 6.51480638 0 0 Z " fill="#FE8C09" transform="translate(290,286)"/>
<path d="M0 0 C4.22271781 2.53363068 6.78310162 4.56620325 9 9 C8.01 9.495 8.01 9.495 7 10 C7 9.34 7 8.68 7 8 C4.69 7.34 2.38 6.68 0 6 C0 4.02 0 2.04 0 0 Z " fill="#CA6E1E" transform="translate(364,126)"/>
<path d="M0 0 C-1.11878383 1.17262904 -2.24523051 2.33795138 -3.375 3.5 C-4.00148438 4.1496875 -4.62796875 4.799375 -5.2734375 5.46875 C-7 7 -7 7 -9 7 C-9 5.68 -9 4.36 -9 3 C-8.34 3 -7.68 3 -7 3 C-7 2.01 -7 1.02 -7 0 C-3.98968256 -0.93423645 -3.13349732 -1.04449911 0 0 Z " fill="#CC511B" transform="translate(377,449)"/>
<path d="M0 0 C3.86355341 5.79533011 7.4428749 11.94308208 8 19 C4.99711313 16.45503136 3.79704375 13.66909427 2.3125 10.0625 C1.87550781 9.02222656 1.43851562 7.98195313 0.98828125 6.91015625 C0 4 0 4 0 0 Z " fill="#FED60E" transform="translate(287,429)"/>
<path d="M0 0 C0.99 0 1.98 0 3 0 C2 3 2 3 -0.21484375 4.38671875 C-1.56255859 5.03060547 -1.56255859 5.03060547 -2.9375 5.6875 C-3.83339844 6.12449219 -4.72929687 6.56148438 -5.65234375 7.01171875 C-8 8 -8 8 -10 8 C-10 7.01 -10 6.02 -10 5 C-8.906875 4.731875 -7.81375 4.46375 -6.6875 4.1875 C-3.21307994 3.06861896 -2.30547678 2.53602446 0 0 Z " fill="#CB5421" transform="translate(334,476)"/>
<path d="M0 0 C3.3 1.65 6.6 3.3 10 5 C10 5.66 10 6.32 10 7 C9.01 7.33 8.02 7.66 7 8 C6.34 7.67 5.68 7.34 5 7 C5 6.34 5 5.68 5 5 C4.21625 4.87625 3.4325 4.7525 2.625 4.625 C0 4 0 4 -2 2 C-1.34 1.34 -0.68 0.68 0 0 Z " fill="#FA500B" transform="translate(175,478)"/>
<path d="M0 0 C0.99 0 1.98 0 3 0 C3.66 4.29 4.32 8.58 5 13 C4.01 12.67 3.02 12.34 2 12 C1.34 8.04 0.68 4.08 0 0 Z " fill="#F56F01" transform="translate(369,320)"/>
<path d="M0 0 C1.98 0.66 3.96 1.32 6 2 C5.1875 4.4375 5.1875 4.4375 4 7 C3.01 7.33 2.02 7.66 1 8 C0.34 5.69 -0.32 3.38 -1 1 C-0.67 0.67 -0.34 0.34 0 0 Z " fill="#F89208" transform="translate(217,16)"/>
<path d="M0 0 C0.33 0.66 0.66 1.32 1 2 C-0.32 2.33 -1.64 2.66 -3 3 C-3.33 4.32 -3.66 5.64 -4 7 C-7.63 7.33 -11.26 7.66 -15 8 C-13 6 -13 6 -9.4375 5 C-8.303125 4.67 -7.16875 4.34 -6 4 C-5.67 3.34 -5.34 2.68 -5 2 C-3.35636866 1.27840576 -1.68949614 0.60648579 0 0 Z " fill="#F65C05" transform="translate(313,482)"/>
<path d="M0 0 C4 4.75 4 4.75 4 7 C2 7 2 7 0.375 5.5 C-0.07875 5.005 -0.5325 4.51 -1 4 C-1.33 4.99 -1.66 5.98 -2 7 C-3.65 6.67 -5.3 6.34 -7 6 C-6.67 5.01 -6.34 4.02 -6 3 C-4.02 2.67 -2.04 2.34 0 2 C0 1.34 0 0.68 0 0 Z " fill="#FB8C0C" transform="translate(266,55)"/>
<path d="M0 0 C3 1 3 1 4.16796875 2.63671875 C6.30716379 6.93969729 7.4926146 10.07385397 7 15 C4.95208138 12.95208138 4.43734309 11.85179586 3.5 9.1875 C3.24605469 8.47980469 2.99210937 7.77210938 2.73046875 7.04296875 C2.48941406 6.36878906 2.24835938 5.69460938 2 5 C1.33933281 3.33094605 0.67561748 1.6630584 0 0 Z " fill="#F3A701" transform="translate(289,433)"/>
<path d="M0 0 C2.88611196 4.9476205 4 10.33165837 4 16 C3.34 16 2.68 16 2 16 C0.40837921 10.42932723 -0.20674944 5.78898419 0 0 Z " fill="#B65F21" transform="translate(424,231)"/>
<path d="M0 0 C1.0625 1.8125 1.0625 1.8125 2 4 C1.67 4.99 1.34 5.98 1 7 C-2.5625 8.6875 -2.5625 8.6875 -6 10 C-5.67 9.01 -5.34 8.02 -5 7 C-4.34 7 -3.68 7 -3 7 C-3 5.68 -3 4.36 -3 3 C-1.5 1.25 -1.5 1.25 0 0 Z " fill="#F97D0F" transform="translate(173,160)"/>
<path d="M0 0 C0.99 0 1.98 0 3 0 C2.67 1.98 2.34 3.96 2 6 C1.34 6 0.68 6 0 6 C-0.66 8.31 -1.32 10.62 -2 13 C-2.66 13 -3.32 13 -4 13 C-3.52140759 11.39566191 -3.04210442 9.79153584 -2.5625 8.1875 C-2.29566406 7.29417969 -2.02882812 6.40085938 -1.75390625 5.48046875 C-1.19612127 3.64526945 -0.60655425 1.81966274 0 0 Z " fill="#C46D20" transform="translate(188,123)"/>
<path d="M0 0 C5.8909491 2.18806681 10.80792613 5.49836879 16 9 C12.61375634 9 11.01166026 8.23790358 8 6.75 C7.13375 6.33234375 6.2675 5.9146875 5.375 5.484375 C2.87976428 3.92485268 1.59067973 2.44880958 0 0 Z " fill="#F75F04" transform="translate(174,476)"/>
<path d="M0 0 C0 3.34419152 -0.47519394 4.06840321 -2.375 6.6875 C-2.81585938 7.31011719 -3.25671875 7.93273437 -3.7109375 8.57421875 C-4.13632812 9.04472656 -4.56171875 9.51523437 -5 10 C-5.66 10 -6.32 10 -7 10 C-7.33 10.99 -7.66 11.98 -8 13 C-8.33 12.01 -8.66 11.02 -9 10 C-7.890625 8.02734375 -7.890625 8.02734375 -6.25 5.9375 C-5.45335937 4.89916016 -5.45335937 4.89916016 -4.640625 3.83984375 C-3 2 -3 2 0 0 Z " fill="#FE860A" transform="translate(351,446)"/>
<path d="M0 0 C2 1 2 1 3 2 C3.07244053 4.01964199 3.08377188 6.04167124 3.0625 8.0625 C3.05347656 9.16722656 3.04445313 10.27195312 3.03515625 11.41015625 C3.02355469 12.26480469 3.01195313 13.11945313 3 14 C0.48073099 9.12941325 -0.10395221 5.50946709 0 0 Z " fill="#F66410" transform="translate(69,345)"/>
<path d="M0 0 C2.625 -0.375 2.625 -0.375 6 0 C8.33753821 1.80053619 10.04068267 3.7607802 12 6 C11.67 6.66 11.34 7.32 11 8 C9.9790625 6.7934375 9.9790625 6.7934375 8.9375 5.5625 C5.51522698 2.57711289 3.4571874 2.26218749 -1 2 C-0.67 1.34 -0.34 0.68 0 0 Z " fill="#B96523" transform="translate(113,160)"/>
<path d="M0 0 C2.9156164 3.54039134 5.50127818 7.1626772 8 11 C7.67 11.66 7.34 12.32 7 13 C6.01 12.34 5.02 11.68 4 11 C4 9.68 4 8.36 4 7 C2.68 6.67 1.36 6.34 0 6 C0 4.02 0 2.04 0 0 Z " fill="#BF6F20" transform="translate(294,89)"/>
<path d="M0 0 C1.22589844 0.01353516 1.22589844 0.01353516 2.4765625 0.02734375 C3.41628906 0.04474609 3.41628906 0.04474609 4.375 0.0625 C3.385 0.5575 3.385 0.5575 2.375 1.0625 C2.375 1.7225 2.375 2.3825 2.375 3.0625 C-0.595 3.0625 -3.565 3.0625 -6.625 3.0625 C-6.625 2.4025 -6.625 1.7425 -6.625 1.0625 C-4.21954362 -0.14022819 -2.67503047 -0.03821472 0 0 Z " fill="#F9840E" transform="translate(286.625,491.9375)"/>
<path d="M0 0 C0.33 0.66 0.66 1.32 1 2 C2.32 1.67 3.64 1.34 5 1 C5.33 1.66 5.66 2.32 6 3 C5.34 3.66 4.68 4.32 4 5 C4 5.99 4 6.98 4 8 C3.01 7.67 2.02 7.34 1 7 C1 6.34 1 5.68 1 5 C0.34 5 -0.32 5 -1 5 C-1.33 3.68 -1.66 2.36 -2 1 C-1.34 0.67 -0.68 0.34 0 0 Z " fill="#F9520E" transform="translate(149,463)"/>
<path d="M0 0 C1.875 0.25 1.875 0.25 4 1 C5.125 3 5.125 3 6 5 C6.66 5.33 7.32 5.66 8 6 C8 6.66 8 7.32 8 8 C8.66 8 9.32 8 10 8 C9.67 9.32 9.34 10.64 9 12 C7.49707257 10.18992669 5.99772829 8.37687764 4.5 6.5625 C3.6646875 5.55316406 2.829375 4.54382813 1.96875 3.50390625 C0 1 0 1 0 0 Z " fill="#BD5322" transform="translate(102,426)"/>
<path d="M0 0 C0.66 0.66 1.32 1.32 2 2 C-0.64 5.63 -3.28 9.26 -6 13 C-6.33 11.68 -6.66 10.36 -7 9 C-6.34 8.67 -5.68 8.34 -5 8 C-4.67 7.01 -4.34 6.02 -4 5 C-3.34 5 -2.68 5 -2 5 C-1.34 3.35 -0.68 1.7 0 0 Z " fill="#C05621" transform="translate(399,419)"/>
<path d="M0 0 C0.99 1.32 1.98 2.64 3 4 C4.32 2.68 5.64 1.36 7 0 C6.67 1.98 6.34 3.96 6 6 C4.68 6 3.36 6 2 6 C1.67 6.99 1.34 7.98 1 9 C0.29925156 5.846632 0 3.27275026 0 0 Z " fill="#B9631C" transform="translate(333,171)"/>
<path d="M0 0 C1.32 0.66 2.64 1.32 4 2 C2.87926138 2.83905565 1.75325453 3.67107831 0.625 4.5 C-0.00148438 4.9640625 -0.62796875 5.428125 -1.2734375 5.90625 C-3 7 -3 7 -5 7 C-4.60196439 4.11424181 -4.20990931 3.17810487 -1.9375 1.25 C-1.298125 0.8375 -0.65875 0.425 0 0 Z " fill="#C3681D" transform="translate(360,124)"/>
<path d="M0 0 C2.94995547 3.45856848 5.22675738 6.80021485 7 11 C6.67 11.66 6.34 12.32 6 13 C5.34 13 4.68 13 4 13 C3.32404685 11.58774074 2.65959941 10.16997095 2 8.75 C1.62875 7.96109375 1.2575 7.1721875 0.875 6.359375 C0 4 0 4 0 0 Z " fill="#BE6C22" transform="translate(308,113)"/>
<path d="M0 0 C4.56454251 0.54339792 7.9728176 1.79463821 12 4 C12 4.33 12 4.66 12 5 C7.97007218 4.44687265 3.97977076 3.8441938 0 3 C0 2.01 0 1.02 0 0 Z " fill="#C77723" transform="translate(190,0)"/>
<path d="M0 0 C0.66 0 1.32 0 2 0 C0.55007731 4.10811428 -1.45407573 7.46855666 -4 11 C-4.33 11 -4.66 11 -5 11 C-5 9.35 -5 7.7 -5 6 C-4.34 6 -3.68 6 -3 6 C-3 4.68 -3 3.36 -3 2 C-2.01 2 -1.02 2 0 2 C0 1.34 0 0.68 0 0 Z " fill="#C2561E" transform="translate(406,409)"/>
<path d="M0 0 C0 0.66 0 1.32 0 2 C-5.41176471 6 -5.41176471 6 -8 6 C-8 5.01 -8 4.02 -8 3 C-7.34 3 -6.68 3 -6 3 C-6 2.34 -6 1.68 -6 1 C-4 0 -4 0 0 0 Z M-10 6 C-9.01 6.495 -9.01 6.495 -8 7 C-8.99 7.495 -8.99 7.495 -10 8 C-10 7.34 -10 6.68 -10 6 Z " fill="#FE8D0A" transform="translate(334,264)"/>
<path d="M0 0 C0.99 0.33 1.98 0.66 3 1 C1.625 3 1.625 3 0 5 C-0.66 5 -1.32 5 -2 5 C-2.33 5.99 -2.66 6.98 -3 8 C-3.66 8 -4.32 8 -5 8 C-5 6.02 -5 4.04 -5 2 C-3.02 2.99 -3.02 2.99 -1 4 C-0.67 2.68 -0.34 1.36 0 0 Z " fill="#F46F02" transform="translate(301,303)"/>
<path d="M0 0 C0.66 0 1.32 0 2 0 C2 1.32 2 2.64 2 4 C2.33 3.34 2.66 2.68 3 2 C3.99 2 4.98 2 6 2 C5.67 3.32 5.34 4.64 5 6 C3.35 6 1.7 6 0 6 C-0.38218767 4.34385343 -0.71395102 2.67542976 -1 1 C-0.67 0.67 -0.34 0.34 0 0 Z " fill="#F97C0E" transform="translate(332,175)"/>
<path d="M0 0 C2 1 2 1 2.6328125 2.84765625 C2.79523438 3.57855469 2.95765625 4.30945313 3.125 5.0625 C3.29257812 5.79597656 3.46015625 6.52945313 3.6328125 7.28515625 C3.75398438 7.85105469 3.87515625 8.41695312 4 9 C2.68 9.33 1.36 9.66 0 10 C-1.2380014 6.42355152 -0.74926071 3.66305234 0 0 Z " fill="#F87F0A" transform="translate(321,144)"/>
<path d="M0 0 C1.32 0.33 2.64 0.66 4 1 C2.02 3.31 0.04 5.62 -2 8 C-2.66 7.67 -3.32 7.34 -4 7 C-4 6.34 -4 5.68 -4 5 C-3.34 4.67 -2.68 4.34 -2 4 C-2 3.34 -2 2.68 -2 2 C-1.34 1.34 -0.68 0.68 0 0 Z " fill="#BF4D19" transform="translate(388,432)"/>
<path d="M0 0 C1.18414294 3.55242882 0.69535532 4.69830562 -0.4375 8.1875 C-0.72496094 9.08855469 -1.01242187 9.98960937 -1.30859375 10.91796875 C-1.53675781 11.60503906 -1.76492188 12.29210937 -2 13 C-2.33 13 -2.66 13 -3 13 C-4.00298661 9.17041475 -4.16842191 7.40574368 -2.625 3.6875 C-1 1 -1 1 0 0 Z " fill="#BA551F" transform="translate(427,361)"/>
<path d="M0 0 C2 2 2 2 2.046875 4.2421875 C1.94890625 5.11101562 1.8509375 5.97984375 1.75 6.875 C1.61851562 8.17050781 1.61851562 8.17050781 1.484375 9.4921875 C1.00349575 11.98190102 0.2453726 13.805286 -1 16 C-1.38218767 14.34385343 -1.71395102 12.67542976 -2 11 C-1.67 10.67 -1.34 10.34 -1 10 C-0.76712992 8.31816052 -0.58735834 6.6287584 -0.4375 4.9375 C-0.35371094 4.01839844 -0.26992188 3.09929687 -0.18359375 2.15234375 C-0.12300781 1.44207031 -0.06242187 0.73179687 0 0 Z " fill="#BB571F" transform="translate(429,344)"/>
<path d="M0 0 C4.76058041 5.52841596 4.76058041 5.52841596 5 9 C4.34 9.66 3.68 10.32 3 11 C2.67 9.35 2.34 7.7 2 6 C1.34 6 0.68 6 0 6 C0 4.02 0 2.04 0 0 Z " fill="#C5681A" transform="translate(402,180)"/>
<path d="M0 0 C0.33 0 0.66 0 1 0 C1 2.64 1 5.28 1 8 C0.34 8 -0.32 8 -1 8 C-1.33 9.65 -1.66 11.3 -2 13 C-2.66 13 -3.32 13 -4 13 C-3.79503906 12.39671875 -3.59007812 11.7934375 -3.37890625 11.171875 C-2.97478516 9.97304687 -2.97478516 9.97304687 -2.5625 8.75 C-2.29566406 7.96109375 -2.02882813 7.1721875 -1.75390625 6.359375 C-1.08045292 4.25178012 -0.50849405 2.15246027 0 0 Z " fill="#B15E1F" transform="translate(350,147)"/>
<path d="M0 0 C2.60608273 2.5162178 4.89381685 5.05134359 7 8 C6.67 8.66 6.34 9.32 6 10 C5.34 9.67 4.68 9.34 4 9 C4 8.34 4 7.68 4 7 C2.68 6.67 1.36 6.34 0 6 C0 4.02 0 2.04 0 0 Z " fill="#C0681E" transform="translate(373,135)"/>
<path d="M0 0 C1.34173403 0.92543709 2.67320159 1.86577405 4 2.8125 C5.11375 3.59560547 5.11375 3.59560547 6.25 4.39453125 C6.8275 4.92433594 7.405 5.45414063 8 6 C8 6.99 8 7.98 8 9 C7.67 8.34 7.34 7.68 7 7 C6.34 6.855625 5.68 6.71125 5 6.5625 C4.34 6.376875 3.68 6.19125 3 6 C2.67 5.01 2.34 4.02 2 3 C1.34 3 0.68 3 0 3 C0 2.01 0 1.02 0 0 Z " fill="#B86C20" transform="translate(249,38)"/>
<path d="M0 0 C3.81684226 1.55500981 6.19195732 4.03595495 9 7 C8.67 7.99 8.34 8.98 8 10 C6.66070495 8.71451591 5.32871357 7.42141845 4 6.125 C2.88625 5.04605469 2.88625 5.04605469 1.75 3.9453125 C0 2 0 2 0 0 Z " fill="#FE860C" transform="translate(155,457)"/>
<path d="M0 0 C3.25548753 3.02295271 5.68977058 6.20462309 8 10 C8 10.66 8 11.32 8 12 C7.34 12 6.68 12 6 12 C5.896875 11.360625 5.79375 10.72125 5.6875 10.0625 C5.460625 9.381875 5.23375 8.70125 5 8 C4.01 7.67 3.02 7.34 2 7 C0.8125 3.4375 0.8125 3.4375 0 0 Z " fill="#BC6923" transform="translate(380,145)"/>
<path d="M0 0 C1.98 0.99 1.98 0.99 4 2 C4.875 5 4.875 5 5 8 C4.34 8.66 3.68 9.32 3 10 C2.01 6.7 1.02 3.4 0 0 Z " fill="#C2741C" transform="translate(183,29)"/>
<path d="M0 0 C0.99 0.4021875 0.99 0.4021875 2 0.8125 C5.64939067 2.25705047 9.32245433 3.62871178 13 5 C9.78177396 6.07033136 7.96857567 5.95795392 4.8125 4.75 C3.77029297 4.37101562 3.77029297 4.37101562 2.70703125 3.984375 C1 3 1 3 0 0 Z " fill="#F3A401" transform="translate(223,492)"/>
<path d="M0 0 C0.66 0 1.32 0 2 0 C0.74194623 4.50802601 -0.90407165 7.4912812 -4 11 C-3.67 8.69 -3.34 6.38 -3 4 C-2.34 4 -1.68 4 -1 4 C-0.67 2.68 -0.34 1.36 0 0 Z " fill="#BC5520" transform="translate(412,398)"/>
<path d="M0 0 C2.46598569 2.46598569 3.65194009 4.79033355 5 8 C4.6875 10.375 4.6875 10.375 4 12 C1.49484216 9.49484216 0.94900914 7.38931835 0 4 C0 2.68 0 1.36 0 0 Z " fill="#B96724" transform="translate(315,126)"/>
<path d="M0 0 C2.475 0.495 2.475 0.495 5 1 C5.33 2.32 5.66 3.64 6 5 C3.92446352 5.5534764 2.15634036 6 0 6 C0 5.34 0 4.68 0 4 C0.66 3.67 1.32 3.34 2 3 C1.34 2.01 0.68 1.02 0 0 Z " fill="#F68D0C" transform="translate(273,66)"/>
<path d="M0 0 C3.99500618 1.3697164 6.80009492 3.25722422 10 6 C9.01 6.33 8.02 6.66 7 7 C6.67 6.01 6.34 5.02 6 4 C4.35 3.67 2.7 3.34 1 3 C0.67 2.01 0.34 1.02 0 0 Z " fill="#B86D20" transform="translate(204,6)"/>
<path d="M0 0 C-6.4 3.07692308 -6.4 3.07692308 -9.4375 2.6875 C-9.953125 2.460625 -10.46875 2.23375 -11 2 C-3.57142857 -1.57142857 -3.57142857 -1.57142857 0 0 Z " fill="#BF5020" transform="translate(309,490)"/>
<path d="M0 0 C0.33 0.66 0.66 1.32 1 2 C-0.4726862 5.27263601 -1.42695432 6.72014048 -4.6875 8.3125 C-5.450625 8.539375 -6.21375 8.76625 -7 9 C-6.02180976 7.68677212 -5.0424189 6.37443848 -4.0625 5.0625 C-3.51722656 4.33160156 -2.97195312 3.60070312 -2.41015625 2.84765625 C-1 1 -1 1 0 0 Z " fill="#B46020" transform="translate(156,181)"/>
<path d="M0 0 C1.65 1.65 3.3 3.3 5 5 C4.34 5.66 3.68 6.32 3 7 C2.01 6.67 1.02 6.34 0 6 C-0.38218767 4.34385343 -0.71395102 2.67542976 -1 1 C-0.67 0.67 -0.34 0.34 0 0 Z " fill="#F88D07" transform="translate(257,48)"/>
<path d="M0 0 C3.91402949 1.26941497 5.79072873 2.51167694 8 6 C7.67 6.66 7.34 7.32 7 8 C5.83035398 6.8572081 4.66435444 5.71068285 3.5 4.5625 C2.8503125 3.92441406 2.200625 3.28632813 1.53125 2.62890625 C0 1 0 1 0 0 Z " fill="#B34E1F" transform="translate(120,446)"/>
<path d="M0 0 C0.99 0.33 1.98 0.66 3 1 C1.88820837 4.33537489 0.52588702 5.63707344 -2 8 C-2.33 6.68 -2.66 5.36 -3 4 C-2.01 3.67 -1.02 3.34 0 3 C0 2.01 0 1.02 0 0 Z " fill="#F75911" transform="translate(398,416)"/>
<path d="M0 0 C0.99 0.33 1.98 0.66 3 1 C1.25 6.75 1.25 6.75 -1 9 C-0.67 6.03 -0.34 3.06 0 0 Z " fill="#BF531D" transform="translate(415,389)"/>
<path d="M0 0 C1.65 0 3.3 0 5 0 C5.66 1.65 6.32 3.3 7 5 C6.01 5.495 6.01 5.495 5 6 C3.5 4.625 3.5 4.625 2 3 C2 2.34 2 1.68 2 1 C1.34 0.67 0.68 0.34 0 0 Z " fill="#EB8D14" transform="translate(199,5)"/>
<path d="M0 0 C0.99 0.33 1.98 0.66 3 1 C3 1.66 3 2.32 3 3 C3.66 3.33 4.32 3.66 5 4 C5 4.66 5 5.32 5 6 C3.35 5.67 1.7 5.34 0 5 C-0.5625 3.0625 -0.5625 3.0625 -1 1 C-0.67 0.67 -0.34 0.34 0 0 Z " fill="#D65118" transform="translate(185,484)"/>
<path d="M0 0 C1.4835001 0.42257276 2.96176424 0.86356322 4.4375 1.3125 C5.67306641 1.67794922 5.67306641 1.67794922 6.93359375 2.05078125 C7.61550781 2.36402344 8.29742187 2.67726563 9 3 C9.33 3.99 9.66 4.98 10 6 C3.47692308 4.52307692 3.47692308 4.52307692 1.0625 1.875 C0.711875 1.25625 0.36125 0.6375 0 0 Z " fill="#FE870E" transform="translate(178,477)"/>
<path d="M0 0 C0.99 0.33 1.98 0.66 3 1 C3 1.99 3 2.98 3 4 C2.34 4 1.68 4 1 4 C0.67 4.66 0.34 5.32 0 6 C-0.66 4.35 -1.32 2.7 -2 1 C-1.34 0.67 -0.68 0.34 0 0 Z " fill="#FB560A" transform="translate(101,417)"/>
<path d="M0 0 C0.95904856 3.83619425 0.91892116 5.32431536 0 9 C-0.99 9 -1.98 9 -3 9 C-2.01 6.03 -1.02 3.06 0 0 Z " fill="#AD571C" transform="translate(83,231)"/>
<path d="M0 0 C0.66 0.33 1.32 0.66 2 1 C0.875 2.5 0.875 2.5 -1 4 C-4.1875 4.1875 -4.1875 4.1875 -7 4 C-4.61426621 2.10786631 -2.92824652 0.97608217 0 0 Z " fill="#EF9A0F" transform="translate(274,494)"/>
<path d="M0 0 C1.64666203 0.1135629 3.29236082 0.24117381 4.9375 0.375 C5.85402344 0.44460938 6.77054688 0.51421875 7.71484375 0.5859375 C8.84599609 0.79089844 8.84599609 0.79089844 10 1 C10.33 1.66 10.66 2.32 11 3 C3.43365385 3.37211538 3.43365385 3.37211538 1.23828125 1.48828125 C0.82964844 0.99714844 0.42101562 0.50601562 0 0 Z " fill="#D7531B" transform="translate(151,471)"/>
<path d="M0 0 C5.75 1.875 5.75 1.875 8 3 C8 3.99 8 4.98 8 6 C7.34 6 6.68 6 6 6 C6 5.34 6 4.68 6 4 C5.195625 3.71125 4.39125 3.4225 3.5625 3.125 C1 2 1 2 0 0 Z " fill="#FE870A" transform="translate(164,467)"/>
<path d="M0 0 C0.99 0.33 1.98 0.66 3 1 C2.67 2.65 2.34 4.3 2 6 C1.67 5.34 1.34 4.68 1 4 C-1.02463255 3.34786708 -1.02463255 3.34786708 -3 3 C-2.01 2.01 -1.02 1.02 0 0 Z " fill="#F97D0E" transform="translate(155,185)"/>
<path d="M0 0 C2.52588702 2.36292656 3.88820837 3.66462511 5 7 C3.35 6.67 1.7 6.34 0 6 C0 4.02 0 2.04 0 0 Z " fill="#C27221" transform="translate(288,80)"/>
<path d="M0 0 C3.465 1.98 3.465 1.98 7 4 C7 4.99 7 5.98 7 7 C6.67 6.34 6.34 5.68 6 5 C5.360625 4.87625 4.72125 4.7525 4.0625 4.625 C2 4 2 4 0.75 1.9375 C0.5025 1.298125 0.255 0.65875 0 0 Z " fill="#BE7324" transform="translate(230,23)"/>
<path d="M0 0 C0.66 0 1.32 0 2 0 C3 1 4 2 5 3 C5.66 3 6.32 3 7 3 C6.67 3.99 6.34 4.98 6 6 C4.02 5.34 2.04 4.68 0 4 C0 2.68 0 1.36 0 0 Z " fill="#FA930C" transform="translate(208,10)"/>
</svg>
