<?xml version="1.0" encoding="UTF-8"?>
<svg version="1.1" xmlns="http://www.w3.org/2000/svg" width="500" height="500">
<path d="M0 0 C101.64 0 203.28 0 308 0 C308.66 11.22 309.32 22.44 310 34 C312.78636195 51.85013125 317.75983989 67.94814386 323.86669922 84.82519531 C325.35758727 89.00173737 326.74279346 93.20412248 328.0625 97.4375 C328.42472656 98.59121094 328.78695313 99.74492188 329.16015625 100.93359375 C338.41508512 134.72484568 323.55620535 175.55619789 307.22949219 204.84863281 C305.94510295 207.09605894 304.65127492 209.33446668 303.3203125 211.5546875 C302.92344238 212.21710449 302.52657227 212.87952148 302.11767578 213.56201172 C301.74884277 214.03654785 301.38000977 214.51108398 301 215 C300.34 215 299.68 215 299 215 C298.6596875 216.28777344 298.6596875 216.28777344 298.3125 217.6015625 C296.81611203 221.4761385 294.67975579 224.27413972 292 227.375 C291.54882812 227.92027344 291.09765625 228.46554688 290.6328125 229.02734375 C289.47295515 230.39652447 288.24129204 231.70419176 287 233 C286.34 233 285.68 233 285 233 C284.7628125 233.56203125 284.525625 234.1240625 284.28125 234.703125 C282.71052303 237.51894042 280.78528536 239.47955416 278.5 241.75 C277.30890625 242.94882812 277.30890625 242.94882812 276.09375 244.171875 C274 246 274 246 272 246 C271.67 246.99 271.34 247.98 271 249 C268.78515625 251.04296875 268.78515625 251.04296875 266.0625 253.1875 C265.16660156 253.90292969 264.27070313 254.61835938 263.34765625 255.35546875 C261 257 261 257 259 257 C259 257.66 259 258.32 259 259 C255.52546117 261.60771001 251.70698962 263.73964047 248 266 C246.90042969 266.70769531 245.80085938 267.41539062 244.66796875 268.14453125 C221.34610235 282.98065747 190.89597775 294 163 294 C163.22656872 301.46001198 163.46200087 308.91973725 163.71484375 316.37890625 C163.75730225 317.64549072 163.79976074 318.9120752 163.84350586 320.21704102 C164.05616542 325.35769609 164.39972727 330.48431669 164.75390625 335.6171875 C165.12255259 341.59298768 165.25924464 347.57865203 165.4375 353.5625 C165.87445509 368.20777801 166.48567509 382.84303741 167.13497925 397.48034668 C167.5866041 407.67038259 168.02462313 417.8576162 168.28125 428.0546875 C168.30106934 428.81501785 168.32088867 429.57534821 168.34130859 430.35871887 C168.43095408 433.85094221 168.50982372 437.34284427 168.5703125 440.83569336 C168.59867188 442.03073486 168.62703125 443.22577637 168.65625 444.45703125 C168.67494141 445.48803955 168.69363281 446.51904785 168.71289062 447.58129883 C168.76851957 450.18107013 168.76851957 450.18107013 171 452 C173.52905788 452.49422522 173.52905788 452.49422522 176.51171875 452.7109375 C177.65012207 452.81889648 178.78852539 452.92685547 179.96142578 453.03808594 C181.19103027 453.14926758 182.42063477 453.26044922 183.6875 453.375 C255.10619635 460.5214157 255.10619635 460.5214157 278.125 480.5 C280 483 280 483 279.9375 485.6875 C279 488 279 488 277 490 C239.00549662 504.34960602 191.83347376 500.44713005 152.09564209 500.26428223 C147.06214982 500.24496043 142.02869312 500.24111019 136.99516869 500.2375679 C130.96290822 500.23243587 124.9306805 500.21793711 118.8984375 500.203125 C117.75972576 500.20124428 116.62101402 500.19936356 115.44779587 500.19742584 C112.25079563 500.19057557 109.05390038 500.17696296 105.85693359 500.16113281 C104.43920906 500.15945602 104.43920906 500.15945602 102.99284363 500.15774536 C102.12511826 500.15203522 101.25739288 500.14632507 100.3633728 500.14044189 C99.6126116 500.13746723 98.8618504 500.13449257 98.08833885 500.13142776 C95.94506327 499.99654261 94.06959392 499.55512901 92 499 C90.19686552 498.83386929 88.38998786 498.70639576 86.58203125 498.60546875 C74.79446367 497.88113739 63.11270015 496.94263752 51.4375 495.125 C50.43501221 494.97571045 49.43252441 494.8264209 48.3996582 494.67260742 C41.44279177 493.52902095 33.15081744 492.15081744 28 487 C27.875 484.75 27.875 484.75 29 482 C34.11478843 477.17900501 39.99913948 474.3932537 46.5 471.9375 C47.81701904 471.4283606 47.81701904 471.4283606 49.16064453 470.90893555 C78.23068324 459.82370848 108.08629158 455.10887147 139 453 C138.98984863 451.90510254 138.97969727 450.81020508 138.96923828 449.68212891 C138.905339 439.67343235 139.17018729 429.73438136 139.74078369 419.7432251 C140.77206927 401.54635749 141.47805301 383.33902339 142.125 365.125 C142.16929138 363.89755066 142.21358276 362.67010132 142.25921631 361.40545654 C142.38604018 357.87715153 142.51003152 354.3487603 142.6328125 350.8203125 C142.68891693 349.25068756 142.68891693 349.25068756 142.74615479 347.64935303 C142.90540048 342.95231973 143.00803345 338.27351308 142.96044922 333.57373047 C142.94311984 330.22221257 143.26427537 327.27775863 144 324 C144.1451517 321.65185634 144.24635911 319.30080143 144.31640625 316.94921875 C144.3475779 315.96100883 144.3475779 315.96100883 144.37937927 314.95283508 C144.44435489 312.86448815 144.50351575 310.77602388 144.5625 308.6875 C144.60573479 307.2649622 144.6493506 305.84243594 144.69335938 304.41992188 C144.79998216 300.94673703 144.90139348 297.47342274 145 294 C143.38158203 293.85304688 143.38158203 293.85304688 141.73046875 293.703125 C133.35465186 292.8885735 125.11620095 291.7840281 116.875 290.0625 C116.10696045 289.90491211 115.3389209 289.74732422 114.54760742 289.58496094 C109.49128162 288.48640577 104.80778937 286.8916788 100 285 C98.7728125 284.56300781 97.545625 284.12601562 96.28125 283.67578125 C81.58284011 278.41684105 68.09014053 271.48897397 55 263 C53.88882813 262.30390625 52.77765625 261.6078125 51.6328125 260.890625 C50.76398438 260.26671875 49.89515625 259.6428125 49 259 C49 258.34 49 257.68 49 257 C47.9790625 256.690625 47.9790625 256.690625 46.9375 256.375 C40.97748584 253.58520614 36.60213395 248.60213395 32 244 C30.88033844 243.05613071 29.75492394 242.11905952 28.625 241.1875 C21.76957871 235.36326988 16.49798306 228.17035339 11.3125 220.875 C10.75755859 220.10285156 10.20261719 219.33070313 9.63085938 218.53515625 C4.97541272 212.036352 0.61825476 205.60572709 -2.9375 198.4375 C-3.28449951 197.74148682 -3.63149902 197.04547363 -3.98901367 196.32836914 C-6.60944627 190.98575732 -8.85832407 185.5589003 -10.89453125 179.96484375 C-11.68473526 177.84553334 -12.55665163 175.75597907 -13.48046875 173.69140625 C-25.65770963 144.10916297 -26.49846242 111.3215455 -14.71533203 81.91748047 C-3.82670342 54.66974832 -1.27720426 29.37569803 0 0 Z " fill="#E7E2CF" transform="translate(96,0)"/>
<path d="M0 0 C100.65 0 201.3 0 305 0 C305 20.43442203 299.77320745 40.57424753 291 59 C290.65598145 59.73605469 290.31196289 60.47210938 289.95751953 61.23046875 C282.70413067 76.51499913 272.69101884 89.80972057 261 102 C260.23429687 102.81726563 259.46859375 103.63453125 258.6796875 104.4765625 C232.07246819 132.11042693 192.84867052 148.5595516 154.6640625 149.28564453 C142.81897772 149.37881954 131.52603858 148.78595101 120 146 C119.23091309 145.81727539 118.46182617 145.63455078 117.66943359 145.44628906 C98.92455049 140.81613947 80.46011884 132.64496048 65 121 C64.22140625 120.42894531 63.4428125 119.85789062 62.640625 119.26953125 C56.78678156 114.858963 51.35953187 109.99314098 46 105 C44.92298828 104.02160156 44.92298828 104.02160156 43.82421875 103.0234375 C24.36984097 84.60046183 10.97655511 59.69968207 4 34 C3.71253906 32.9584375 3.42507812 31.916875 3.12890625 30.84375 C0.32256023 20.20917559 0 11.23760366 0 0 Z " fill="#76003B" transform="translate(98,105)"/>
<path d="M0 0 C50.82 0 101.64 0 154 0 C154.99 16.83 154.99 16.83 156 34 C158.78636195 51.85013125 163.75983989 67.94814386 169.86669922 84.82519531 C171.35758727 89.00173737 172.74279346 93.20412248 174.0625 97.4375 C174.42472656 98.59121094 174.78695312 99.74492188 175.16015625 100.93359375 C184.41508512 134.72484568 169.55620535 175.55619789 153.22949219 204.84863281 C151.94510295 207.09605894 150.65127492 209.33446668 149.3203125 211.5546875 C148.92344238 212.21710449 148.52657227 212.87952148 148.11767578 213.56201172 C147.74884277 214.03654785 147.38000977 214.51108398 147 215 C146.34 215 145.68 215 145 215 C144.6596875 216.28777344 144.6596875 216.28777344 144.3125 217.6015625 C142.81611203 221.4761385 140.67975579 224.27413972 138 227.375 C137.54882812 227.92027344 137.09765625 228.46554688 136.6328125 229.02734375 C135.47295515 230.39652447 134.24129204 231.70419176 133 233 C132.34 233 131.68 233 131 233 C130.7628125 233.56203125 130.525625 234.1240625 130.28125 234.703125 C128.71052303 237.51894042 126.78528536 239.47955416 124.5 241.75 C123.30890625 242.94882812 123.30890625 242.94882812 122.09375 244.171875 C120 246 120 246 118 246 C117.67 246.99 117.34 247.98 117 249 C114.78515625 251.04296875 114.78515625 251.04296875 112.0625 253.1875 C111.16660156 253.90292969 110.27070313 254.61835938 109.34765625 255.35546875 C107 257 107 257 105 257 C105 257.66 105 258.32 105 259 C101.52546117 261.60771001 97.70698962 263.73964047 94 266 C92.90042969 266.70769531 91.80085938 267.41539062 90.66796875 268.14453125 C67.34610235 282.98065747 36.89597775 294 9 294 C9.22656872 301.46001198 9.46200087 308.91973725 9.71484375 316.37890625 C9.75730225 317.64549072 9.79976074 318.9120752 9.84350586 320.21704102 C10.05616542 325.35769609 10.39972727 330.48431669 10.75390625 335.6171875 C11.12255259 341.59298768 11.25924464 347.57865203 11.4375 353.5625 C11.87445509 368.20777801 12.48567509 382.84303741 13.13497925 397.48034668 C13.5866041 407.67038259 14.02462313 417.8576162 14.28125 428.0546875 C14.30106934 428.81501785 14.32088867 429.57534821 14.34130859 430.35871887 C14.43095408 433.85094221 14.50982372 437.34284427 14.5703125 440.83569336 C14.59867187 442.03073486 14.62703125 443.22577637 14.65625 444.45703125 C14.67494141 445.48803955 14.69363281 446.51904785 14.71289062 447.58129883 C14.76851957 450.18107013 14.76851957 450.18107013 17 452 C19.52905788 452.49422522 19.52905788 452.49422522 22.51171875 452.7109375 C23.65012207 452.81889648 24.78852539 452.92685547 25.96142578 453.03808594 C27.19103027 453.14926758 28.42063477 453.26044922 29.6875 453.375 C101.10619635 460.5214157 101.10619635 460.5214157 124.125 480.5 C126 483 126 483 125.9375 485.6875 C125 488 125 488 123 490 C106.12965018 496.37152356 87.60462346 497.23944956 69.8125 498.6875 C69.01038086 498.75429962 68.20826172 498.82109924 67.38183594 498.8899231 C58.7153068 499.60169323 50.08498164 500.11759629 41.38671875 500.14453125 C40.65685257 500.14797043 39.92698639 500.15140961 39.17500305 500.154953 C34.12707867 500.12707867 34.12707867 500.12707867 33 499 C22.11 499 11.22 499 0 499 C0 418.15 0 337.3 0 254 C10.89 253.01 10.89 253.01 22 252 C27.46410997 250.80347957 32.66457867 249.57095284 38 248 C39.06863281 247.71382812 40.13726562 247.42765625 41.23828125 247.1328125 C66.54621912 240.01003048 88.1033128 225.9788481 107 208 C107.69609375 207.36835938 108.3921875 206.73671875 109.109375 206.0859375 C123.3421544 192.73535517 133.52230587 174.81959501 141 157 C141.58080322 155.6238855 141.58080322 155.6238855 142.17333984 154.2199707 C145.48704601 146.04778102 147.56405242 137.95524742 149.25 129.3125 C149.50523437 128.07177734 149.76046875 126.83105469 150.0234375 125.55273438 C151.40113214 118.7041418 152.37346692 111.95374305 153 105 C152.26750534 105.01110306 151.53501068 105.02220612 150.78031921 105.03364563 C143.87952396 105.13380255 136.97883722 105.20994181 130.07750225 105.25906086 C126.52929892 105.28516304 122.98169576 105.32056949 119.43383789 105.37719727 C115.35557272 105.44188405 111.27793854 105.46617492 107.19921875 105.48828125 C105.28661507 105.52699089 105.28661507 105.52699089 103.33537292 105.56648254 C102.15437515 105.5668602 100.97337738 105.56723785 99.7565918 105.56762695 C98.71512497 105.57873001 97.67365814 105.58983307 96.60063171 105.60127258 C94 105 94 105 92.14021301 102.58952332 C91 100 91 100 91 98 C90.34 98 89.68 98 89 98 C89 97.34 89 96.68 89 96 C88.34 96 87.68 96 87 96 C85.8515625 94.4609375 85.8515625 94.4609375 84.625 92.375 C83.04670742 89.73358452 81.4445051 87.15108563 79.6875 84.625 C78 82 78 82 78 80 C76.515 79.505 76.515 79.505 75 79 C74.67 78.01 74.34 77.02 74 76 C70.50953361 74.25476681 66.80767204 74.41516148 63 75 C60.36172278 76.41832197 58.33889122 78.09070104 56 80 C55.34 80 54.68 80 54 80 C53.505 81.485 53.505 81.485 53 83 C49.78715662 84.88579937 47.75366417 86 44 86 C43.505 87.485 43.505 87.485 43 89 C41.33333333 89.66666667 39.66666667 90.33333333 38 91 C37.505 92.485 37.505 92.485 37 94 C34.68726966 95.36875877 32.34922709 96.69487384 30 98 C27.36 99.98 24.72 101.96 22 104 C14.74 104 7.48 104 0 104 C0 75.29 0 46.58 0 17 C9.22839844 16.93941406 18.45679688 16.87882812 27.96484375 16.81640625 C33.79362432 16.77593549 39.62240136 16.73521524 45.45117188 16.69335938 C54.71311759 16.62689701 63.97506259 16.56148509 73.23706055 16.50268555 C79.98130043 16.45986524 86.72550612 16.41359279 93.46969324 16.36312145 C97.04284857 16.33650308 100.61599704 16.31164967 104.18919182 16.29092598 C108.17166542 16.26776404 112.15405836 16.23689701 116.13647461 16.20532227 C117.32977386 16.1995668 118.52307312 16.19381134 119.75253296 16.18788147 C120.83091934 16.17809265 121.90930573 16.16830383 123.02037048 16.15821838 C124.43486182 16.14853956 124.43486182 16.14853956 125.87792873 16.1386652 C127.98457881 16.23525284 127.98457881 16.23525284 129 15 C129 13.02 129 11.04 129 9 C86.43 8.67 43.86 8.34 0 8 C0 5.36 0 2.72 0 0 Z " fill="#E7E4D4" transform="translate(250,0)"/>
<path d="M0 0 C3.63 0 7.26 0 11 0 C11.62292351 43.6845074 11.62292351 43.6845074 8 61 C7.79648926 62.00498535 7.59297852 63.0099707 7.38330078 64.04541016 C6.32204942 69.27479879 5.22642526 74.49438605 4.0859375 79.70703125 C0.35131006 97.42973462 -0.24280817 116.88609484 6 134 C6.64321162 136.47450423 7.26752079 138.95398206 7.875 141.4375 C17.84351684 178.80011934 43.7754049 212.07239546 77.00219727 231.66967773 C101.57572483 245.71302473 125.87068764 251.9907634 154 254 C154 334.85 154 415.7 154 499 C170.335 498.505 170.335 498.505 187 498 C198.8828125 497.9296875 198.8828125 497.9296875 204 498 C204 498.33 204 498.66 204 499 C191.47135482 499.97799441 179.01467162 500.1476962 166.453125 500.1328125 C164.42291248 500.13348781 162.39270004 500.13445972 160.36248779 500.13571167 C156.14366879 500.13717392 151.92487118 500.13507925 147.70605469 500.13037109 C142.29917355 500.12463043 136.89234159 500.12798927 131.48546219 500.13394356 C127.30938341 500.13755169 123.13331637 500.13641017 118.95723724 500.13381577 C116.96212508 500.13314947 114.96701185 500.13396453 112.97190094 500.13629532 C110.19640756 500.13883073 107.42099515 500.13497063 104.64550781 500.12939453 C103.41438263 500.13243088 103.41438263 500.13243088 102.15838623 500.13552856 C98.59004088 500.12222731 95.43741968 499.90857892 92 499 C90.19686552 498.83386929 88.38998786 498.70639576 86.58203125 498.60546875 C74.79446367 497.88113739 63.11270015 496.94263752 51.4375 495.125 C50.43501221 494.97571045 49.43252441 494.8264209 48.3996582 494.67260742 C41.44279177 493.52902095 33.15081744 492.15081744 28 487 C27.875 484.75 27.875 484.75 29 482 C34.11478843 477.17900501 39.99913948 474.3932537 46.5 471.9375 C47.81701904 471.4283606 47.81701904 471.4283606 49.16064453 470.90893555 C78.23068324 459.82370848 108.08629158 455.10887147 139 453 C138.98984863 451.90510254 138.97969727 450.81020508 138.96923828 449.68212891 C138.905339 439.67343235 139.17018729 429.73438136 139.74078369 419.7432251 C140.77206927 401.54635749 141.47805301 383.33902339 142.125 365.125 C142.16929138 363.89755066 142.21358276 362.67010132 142.25921631 361.40545654 C142.38604018 357.87715153 142.51003152 354.3487603 142.6328125 350.8203125 C142.68891693 349.25068756 142.68891693 349.25068756 142.74615479 347.64935303 C142.90540048 342.95231973 143.00803345 338.27351308 142.96044922 333.57373047 C142.94311984 330.22221257 143.26427537 327.27775863 144 324 C144.1451517 321.65185634 144.24635911 319.30080143 144.31640625 316.94921875 C144.3475779 315.96100883 144.3475779 315.96100883 144.37937927 314.95283508 C144.44435489 312.86448815 144.50351575 310.77602388 144.5625 308.6875 C144.60573479 307.2649622 144.6493506 305.84243594 144.69335938 304.41992188 C144.79998216 300.94673703 144.90139348 297.47342274 145 294 C143.38158203 293.85304688 143.38158203 293.85304688 141.73046875 293.703125 C133.35465186 292.8885735 125.11620095 291.7840281 116.875 290.0625 C116.10696045 289.90491211 115.3389209 289.74732422 114.54760742 289.58496094 C109.49128162 288.48640577 104.80778937 286.8916788 100 285 C98.7728125 284.56300781 97.545625 284.12601562 96.28125 283.67578125 C81.58284011 278.41684105 68.09014053 271.48897397 55 263 C53.88882813 262.30390625 52.77765625 261.6078125 51.6328125 260.890625 C50.76398438 260.26671875 49.89515625 259.6428125 49 259 C49 258.34 49 257.68 49 257 C47.9790625 256.690625 47.9790625 256.690625 46.9375 256.375 C40.97748584 253.58520614 36.60213395 248.60213395 32 244 C30.88033844 243.05613071 29.75492394 242.11905952 28.625 241.1875 C21.76957871 235.36326988 16.49798306 228.17035339 11.3125 220.875 C10.75755859 220.10285156 10.20261719 219.33070313 9.63085938 218.53515625 C4.97541272 212.036352 0.61825476 205.60572709 -2.9375 198.4375 C-3.28449951 197.74148682 -3.63149902 197.04547363 -3.98901367 196.32836914 C-6.60944627 190.98575732 -8.85832407 185.5589003 -10.89453125 179.96484375 C-11.68473526 177.84553334 -12.55665163 175.75597907 -13.48046875 173.69140625 C-25.65770963 144.10916297 -26.49846242 111.3215455 -14.71533203 81.91748047 C-7.17480179 63.04803826 -1.81356889 43.38204161 -1 23 C-0.90956853 21.03121706 -0.81834577 19.06247039 -0.7265625 17.09375 C-0.46626877 11.39650013 -0.22872263 5.69859999 0 0 Z " fill="#F8F5E8" transform="translate(96,0)"/>
<path d="M0 0 C100.65 0 201.3 0 305 0 C305 3.3 305 6.6 305 10 C304.67 10 304.34 10 304 10 C304 7.03 304 4.06 304 1 C253.84 1 203.68 1 152 1 C152 9.58 152 18.16 152 27 C142 24 142 24 138 22 C133.26837323 21.33834162 129.27140879 21.33780792 125 23.5625 C122.53807831 26.56296706 121.79697334 29.23248967 121 33 C120.34 33 119.68 33 119 33 C119.0825 33.639375 119.165 34.27875 119.25 34.9375 C118.95293198 38.57658324 117.7534186 41.00424826 116.20703125 44.27734375 C114.276846 48.63119204 112.7984501 53.13976148 111.23828125 57.63671875 C110.19368034 60.47394709 109.02757133 63.10868118 107.6875 65.8125 C105.74079905 70.07935065 104.85345241 74.38008765 106 79 C108.58565635 82.97611227 110.74197719 84.70479759 115.1875 86.25 C116.31414062 86.65347656 117.44078125 87.05695313 118.6015625 87.47265625 C119.26833008 87.70355957 119.93509766 87.93446289 120.62207031 88.17236328 C124.64278737 89.57177096 128.64589404 91.02023797 132.65161133 92.46191406 C134.90509074 93.27162465 137.16011636 94.07704635 139.41674805 94.87792969 C140.46644775 95.25208008 141.51614746 95.62623047 142.59765625 96.01171875 C143.54133057 96.34647217 144.48500488 96.68122559 145.45727539 97.02612305 C148 98 148 98 152 100 C152 116.17 152 132.34 152 149 C135.57528409 149 135.57528409 149 129.375 147.875 C128.62758545 147.74158203 127.8801709 147.60816406 127.11010742 147.47070312 C104.92401749 143.25923107 83.11807816 134.64700403 65 121 C64.22140625 120.42894531 63.4428125 119.85789062 62.640625 119.26953125 C56.78678156 114.858963 51.35953187 109.99314098 46 105 C44.92298828 104.02160156 44.92298828 104.02160156 43.82421875 103.0234375 C24.36984097 84.60046183 10.97655511 59.69968207 4 34 C3.71253906 32.9584375 3.42507812 31.916875 3.12890625 30.84375 C0.32256023 20.20917559 0 11.23760366 0 0 Z " fill="#9B0E4F" transform="translate(98,105)"/>
<path d="M0 0 C47.19 0 94.38 0 143 0 C143 8.25 143 16.5 143 25 C143.9060573 39.19489772 145.6784892 52.59932688 148.49755859 66.484375 C149.31213675 70.56280715 150.05431259 74.64973131 150.75 78.75 C150.94130493 79.77432129 150.94130493 79.77432129 151.13647461 80.81933594 C152.4590723 88.81246669 152.10455602 96.9259514 152 105 C144.48975021 105.11582029 136.97959291 105.20467737 129.46865368 105.25906086 C125.98097899 105.28516211 122.49391497 105.32056666 119.0065918 105.37719727 C114.99782433 105.44188862 110.9896988 105.46617566 106.98046875 105.48828125 C105.72727341 105.51408768 104.47407806 105.5398941 103.1829071 105.56648254 C102.02193008 105.5668602 100.86095306 105.56723785 99.66479492 105.56762695 C98.64109299 105.57873001 97.61739105 105.58983307 96.56266785 105.60127258 C94 105 94 105 92.14595032 102.58952332 C91 100 91 100 91 98 C90.34 98 89.68 98 89 98 C89 97.34 89 96.68 89 96 C88.34 96 87.68 96 87 96 C85.8515625 94.4609375 85.8515625 94.4609375 84.625 92.375 C83.04670742 89.73358452 81.4445051 87.15108563 79.6875 84.625 C78 82 78 82 78 80 C76.515 79.505 76.515 79.505 75 79 C74.67 78.01 74.34 77.02 74 76 C70.50953361 74.25476681 66.80767204 74.41516148 63 75 C60.36172278 76.41832197 58.33889122 78.09070104 56 80 C55.34 80 54.68 80 54 80 C53.505 81.485 53.505 81.485 53 83 C49.78715662 84.88579937 47.75366417 86 44 86 C43.505 87.485 43.505 87.485 43 89 C41.33333333 89.66666667 39.66666667 90.33333333 38 91 C37.505 92.485 37.505 92.485 37 94 C34.68726966 95.36875877 32.34922709 96.69487384 30 98 C27.36 99.98 24.72 101.96 22 104 C14.74 104 7.48 104 0 104 C0 75.29 0 46.58 0 17 C9.22839844 16.93941406 18.45679688 16.87882812 27.96484375 16.81640625 C33.79362432 16.77593549 39.62240136 16.73521524 45.45117188 16.69335938 C54.71311759 16.62689701 63.97506259 16.56148509 73.23706055 16.50268555 C79.98130043 16.45986524 86.72550612 16.41359279 93.46969324 16.36312145 C97.04284857 16.33650308 100.61599704 16.31164967 104.18919182 16.29092598 C108.17166542 16.26776404 112.15405836 16.23689701 116.13647461 16.20532227 C117.32977386 16.1995668 118.52307312 16.19381134 119.75253296 16.18788147 C120.83091934 16.17809265 121.90930573 16.16830383 123.02037048 16.15821838 C124.43486182 16.14853956 124.43486182 16.14853956 125.87792873 16.1386652 C127.98457881 16.23525284 127.98457881 16.23525284 129 15 C129 13.02 129 11.04 129 9 C86.43 8.67 43.86 8.34 0 8 C0 5.36 0 2.72 0 0 Z " fill="#D8D1BA" transform="translate(250,0)"/>
<path d="M0 0 C2.93904875 1.21305078 5.82268377 2.4889254 8.6875 3.8671875 C8.6875 4.5271875 8.6875 5.1871875 8.6875 5.8671875 C9.739375 5.9290625 10.79125 5.9909375 11.875 6.0546875 C18.1639573 6.8183466 23.87174654 9.47684581 29.6875 11.8671875 C30.55632812 12.18816406 31.42515625 12.50914062 32.3203125 12.83984375 C34.8156112 13.92278692 36.72726043 15.20549344 38.875 16.8671875 C39.54917969 17.3828125 40.22335937 17.8984375 40.91796875 18.4296875 C44.63077931 21.44583383 44.63077931 21.44583383 45.125 25.1171875 C45.00663891 30.55193417 42.88873965 35.33308859 40.97265625 40.35546875 C39.87251497 43.36162987 39.04279903 46.25767528 38.3125 49.3671875 C36.82123591 55.16083419 34.17194654 60.24328487 31.40625 65.5078125 C29.66315159 68.91477758 28.15732999 72.33601056 26.6875 75.8671875 C26.0275 75.8671875 25.3675 75.8671875 24.6875 75.8671875 C24.6875 76.5271875 24.6875 77.1871875 24.6875 77.8671875 C20.03294573 80.19446464 14.44568772 79.65623228 9.55224609 78.25634766 C4.65079586 76.59606106 -0.14839402 74.67446157 -4.95849609 72.76904297 C-8.38835682 71.45501004 -11.87442367 70.3499877 -15.375 69.2421875 C-22.45948656 66.90109367 -29.21606559 64.52127414 -34.9375 59.6171875 C-37.19708502 55.09801746 -37.05880765 50.37298794 -35.62158203 45.54736328 C-34.67262577 43.17774736 -33.64202562 40.86765082 -32.5625 38.5546875 C-31.82216724 36.88950779 -31.08517713 35.22283787 -30.3515625 33.5546875 C-29.99739258 32.75417969 -29.64322266 31.95367187 -29.27832031 31.12890625 C-27.29492111 26.48426261 -25.80748294 21.68517708 -24.3125 16.8671875 C-23.6493617 14.86601483 -22.98354143 12.86572393 -22.3125 10.8671875 C-21.6525 10.8671875 -20.9925 10.8671875 -20.3125 10.8671875 C-20.27125 9.8153125 -20.23 8.7634375 -20.1875 7.6796875 C-19.30667513 3.84180771 -18.4567437 2.06057789 -15.23046875 -0.24609375 C-10.12302992 -2.60737402 -5.17224075 -1.76880875 0 0 Z " fill="#4D002E" transform="translate(239.3125,127.1328125)"/>
<path d="M0 0 C49.17 0 98.34 0 149 0 C149 0.33 149 0.66 149 1 C132.2565914 2.00679618 115.74720404 1.89891881 99 1 C99 2.32 99 3.64 99 5 C99.66 5 100.32 5 101 5 C102.94745429 10.59893109 104.0882283 16.08571576 103 22 C101.43542156 24.89368521 99.62182812 27.01357963 97 29 C94.25 29.6875 94.25 29.6875 92 30 C91.71382813 30.61359375 91.42765625 31.2271875 91.1328125 31.859375 C89.70210499 34.56291885 88.33136739 35.20032505 85.625 36.5625 C83.19018461 37.80433728 81.05109959 38.95982318 78.8984375 40.65234375 C77 42 77 42 74 42 C74 42.66 74 43.32 74 44 C71.73612378 45.61072133 69.48281689 47.10213005 67.125 48.5625 C66.47402344 48.97435547 65.82304687 49.38621094 65.15234375 49.81054688 C59.94622995 53.08986186 57.25739738 54.53028791 51 54 C47.11918617 51.38651444 44.79441212 48.55514283 42.3125 44.625 C38.86779203 39.28472218 35.25953555 34.10910331 31.5012207 28.98486328 C29.42092286 26.11638853 27.54012695 23.24971039 25.828125 20.14453125 C24.35491145 16.94892319 24.35491145 16.94892319 22 16 C18.55596363 11.62872307 18.6493709 8.34709374 19 3 C19.33 2.34 19.66 1.68 20 1 C13.4 1 6.8 1 0 1 C0 0.67 0 0.34 0 0 Z " fill="#4C002D" transform="translate(250,106)"/>
<path d="M0 0 C2.4375 1.375 2.4375 1.375 4 3 C4 3.66 4 4.32 4 5 C4.66 5 5.32 5 6 5 C9 9.38461538 9 9.38461538 9 12 C9.5775 12.226875 10.155 12.45375 10.75 12.6875 C13.59739809 14.34848222 15.12067193 16.31524561 17 19 C17 19.66 17 20.32 17 21 C17.66 21 18.32 21 19 21 C20.87804782 23.1493214 22.63641155 25.30462263 24.375 27.5625 C24.85710937 28.17158203 25.33921875 28.78066406 25.8359375 29.40820312 C29.43011523 34.02301013 32.38038755 38.7607751 35 44 C-9.22 44 -53.44 44 -99 44 C-99 43.67 -99 43.34 -99 43 C-83.16 43 -67.32 43 -51 43 C-51 40.03 -51 37.06 -51 34 C-48.8828125 31.15234375 -48.8828125 31.15234375 -46.125 28.9375 C-45.22007812 28.18339844 -44.31515625 27.42929688 -43.3828125 26.65234375 C-41 25 -41 25 -39 25 C-38.505 23.515 -38.505 23.515 -38 22 C-36 21 -34 20 -32 19 C-30.26096057 17.65118405 -28.63516072 16.21016544 -26.9921875 14.74609375 C-23.11756899 11.35010458 -19.03375131 8.20365457 -15 5 C-14.13632813 4.28070313 -13.27265625 3.56140625 -12.3828125 2.8203125 C-8.35656873 -0.25547373 -4.95424679 -0.34766644 0 0 Z " fill="#F6F1EA" transform="translate(197,61)"/>
<path d="M0 0 C1.16910523 0.00032605 1.16910523 0.00032605 2.36182874 0.00065869 C3.70972584 -0.0062395 3.70972584 -0.0062395 5.08485317 -0.01327705 C6.57505204 -0.00556171 6.57505204 -0.00556171 8.09535593 0.0023095 C9.14583217 -0.00010491 10.19630841 -0.00251933 11.27861726 -0.00500691 C14.82175372 -0.01067226 18.36471213 -0.00195941 21.90784067 0.00662774 C24.43850116 0.00555557 26.96916142 0.00361786 29.49982065 0.00087517 C35.67352316 -0.00348086 41.84715885 0.00148348 48.02085412 0.01072548 C55.20362331 0.02109292 62.38638084 0.02103973 69.5691561 0.0205529 C82.38046722 0.02005193 95.1917534 0.02922349 108.00305551 0.04373711 C120.44772159 0.05782818 132.89236572 0.06490779 145.33703989 0.06424493 C146.1036069 0.06420497 146.87017391 0.06416501 147.65997023 0.06412385 C148.42518415 0.06408349 149.19039807 0.06404314 149.9788003 0.06400156 C164.12838019 0.06331249 178.27795071 0.06919695 192.42752757 0.07815478 C197.43998883 0.08117666 202.45244838 0.08223499 207.46491045 0.08268708 C214.2043414 0.08343869 220.94374589 0.0897634 227.68317026 0.09985322 C230.16447616 0.10278646 232.64578474 0.10400193 235.1270923 0.10342568 C238.49853735 0.1029388 241.86991615 0.10855292 245.24135202 0.11583489 C246.73489697 0.11351199 246.73489697 0.11351199 248.25861454 0.11114216 C249.15460485 0.1143666 250.05059517 0.11759105 250.9737367 0.12091321 C252.1425984 0.12196984 252.1425984 0.12196984 253.33507347 0.12304783 C255.10486215 0.24954766 255.10486215 0.24954766 256.10486215 1.24954766 C256.14566998 3.2491313 256.14740572 5.2500002 256.10486215 7.24954766 C253.30583696 8.18255606 251.63182801 8.37478387 248.7404651 8.3753888 C247.39480653 8.37930042 247.39480653 8.37930042 246.02196294 8.38329107 C245.03530082 8.38106034 244.0486387 8.37882962 243.03207773 8.3765313 C241.98483062 8.37809129 240.9375835 8.37965128 239.85860163 8.38125855 C236.33243869 8.38526266 232.80631842 8.38208117 229.28015512 8.37894219 C226.75919946 8.38029648 224.238244 8.38207656 221.71728891 8.38425225 C215.57114854 8.38834774 209.4250241 8.38773594 203.2788835 8.38483961 C198.28611305 8.3825839 193.29334602 8.38227378 188.3005752 8.38336343 C187.59077791 8.38351666 186.88098063 8.38366989 186.14967433 8.38382777 C184.70789267 8.38414748 183.266111 8.3844717 181.82432933 8.38480036 C168.29768998 8.38765348 154.77105741 8.38437054 141.24441917 8.37899999 C129.62644495 8.37453018 118.00848072 8.37530967 106.39050668 8.37991875 C92.91012817 8.38526415 79.42975559 8.38738084 65.94937617 8.38430649 C64.5134233 8.38398793 63.07747044 8.38367356 61.64151758 8.38336343 C60.93493103 8.38320915 60.22834447 8.38305487 59.50034621 8.38289592 C54.50991359 8.38203081 49.51948471 8.38349349 44.52905267 8.38584298 C37.8199806 8.38893209 31.11093041 8.38674894 24.40185922 8.38094872 C21.93183925 8.37962037 19.4618177 8.38001649 16.99179834 8.38221139 C13.63573671 8.38491991 10.27973692 8.38154546 6.92367929 8.3765313 C5.93255573 8.37876202 4.94143217 8.38099275 3.92027456 8.38329107 C2.58243923 8.37937944 2.58243923 8.37937944 1.21757692 8.3753888 C0.44191562 8.37522645 -0.33374568 8.3750641 -1.13291186 8.37489682 C-2.89513785 8.24954766 -2.89513785 8.24954766 -3.89513785 7.24954766 C-4.08263785 4.81204766 -4.08263785 4.81204766 -3.89513785 2.24954766 C-1.89513785 0.24954766 -1.89513785 0.24954766 0 0 Z " fill="#FEFBEB" transform="translate(123.89513784646988,7.7504523396492)"/>
<path d="M0 0 C27.06 0 54.12 0 82 0 C82 6 82 6 80.625 7.875 C79 9 79 9 77 9 C76.62875 9.9590625 76.62875 9.9590625 76.25 10.9375 C74.67012061 13.544301 73.83219689 13.29195078 71 14 C70.67 14.66 70.34 15.32 70 16 C69.67 16.66 69.34 17.32 69 18 C68.401875 18.144375 67.80375 18.28875 67.1875 18.4375 C63.90662066 19.28115469 62.32926722 21.6125011 60 24 C58.66666667 24.66666667 57.33333333 25.33333333 56 26 C53.51412917 28.36157728 51.16824151 30.82214469 48.8125 33.3125 C47 35 47 35 45 35 C45 35.66 45 36.32 45 37 C41.10297271 40.37742365 37.25567143 40.50314122 32.31640625 40.36328125 C30 40 30 40 27.375 38.125 C26 36 26 36 26 34 C25.4225 33.79375 24.845 33.5875 24.25 33.375 C20.60308002 31.14632668 18.96162796 27.61642069 16.8125 24.00390625 C14.24321997 19.7565652 11.62246876 16.44576296 8 13 C6.91938287 11.87123656 5.85756999 10.72425256 4.8125 9.5625 C4.32394531 9.02753906 3.83539063 8.49257812 3.33203125 7.94140625 C2 6 2 6 0 0 Z " fill="#4C002D" transform="translate(150,106)"/>
<path d="M0 0 C3 2 3 2 4 5 C4.433125 5.433125 4.86625 5.86625 5.3125 6.3125 C7.62587661 8.62587661 9.2244984 11.25604298 11 14 C11.7425 15.0725 12.485 16.145 13.25 17.25 C15 20 15 20 15 22 C15.66 22 16.32 22 17 22 C17 22.66 17 23.32 17 24 C17.66 24 18.32 24 19 24 C19.99 26.31 20.98 28.62 22 31 C-1.76 31 -25.52 31 -50 31 C-47.32174637 25.64349274 -43.46206212 23.80061915 -38.375 21 C-34.79117655 18.87625277 -32.40210731 16.57891263 -29.66796875 13.5 C-27.73574636 11.76235738 -25.97487002 11.01036208 -23.5625 10.0625 C-19.90286417 8.51010609 -17.69004616 6.96832679 -15 4 C-10.18700522 -0.029484 -6.11503946 -1.0017017 0 0 Z " fill="#F5F1E9" transform="translate(322,74)"/>
<path d="M0 0 C0.99 0.33 1.98 0.66 3 1 C2.34 1 1.68 1 1 1 C1.14173578 5.66679853 1.28788349 10.33344804 1.4375 15 C1.45956512 15.69016205 1.48163025 16.3803241 1.50436401 17.09140015 C1.74970353 24.673686 2.02573481 32.24411087 2.5625 39.8125 C3.13039265 47.87835025 3.09000451 55.9195947 3 64 C2.67 64 2.34 64 2 64 C1.9498877 63.0713916 1.89977539 62.1427832 1.84814453 61.18603516 C1.65802051 57.74526455 1.45955194 54.30518821 1.25537109 50.86523438 C1.16867657 49.37551732 1.08532576 47.8856018 1.00537109 46.39550781 C0.88995109 44.25525053 0.76257494 42.11599208 0.6328125 39.9765625 C0.52283936 38.04417725 0.52283936 38.04417725 0.41064453 36.07275391 C0.30290336 32.89809648 0.30290336 32.89809648 -2 31 C-2.17179052 28.10867823 -2.2322947 25.32557935 -2.1875 22.4375 C-2.18685547 21.64408203 -2.18621094 20.85066406 -2.18554688 20.03320312 C-2.14025522 14.14025522 -2.14025522 14.14025522 -1 13 C-0.76518307 10.81707226 -0.58636677 8.62796826 -0.4375 6.4375 C-0.35371094 5.23996094 -0.26992188 4.04242188 -0.18359375 2.80859375 C-0.12300781 1.88175781 -0.06242187 0.95492188 0 0 Z " fill="#838179" transform="translate(258,293)"/>
<path d="M0 0 C17.49 0 34.98 0 53 0 C53 0.33 53 0.66 53 1 C36.2565914 2.00679618 19.74720404 1.89891881 3 1 C3 2.32 3 3.64 3 5 C3.66 5 4.32 5 5 5 C4.67 5.99 4.34 6.98 4 8 C4 7.34 4 6.68 4 6 C3.01 6 2.02 6 1 6 C0.67 4.02 0.34 2.04 0 0 Z " fill="#65052F" transform="translate(346,106)"/>
<path d="M0 0 C-0.66 1.65 -1.32 3.3 -2 5 C-3.175625 4.9690625 -3.175625 4.9690625 -4.375 4.9375 C-6.98114961 4.81315937 -6.98114961 4.81315937 -9 6 C-9.33 4.68 -9.66 3.36 -10 2 C-10.33 2.99 -10.66 3.98 -11 5 C-12.65 5 -14.3 5 -16 5 C-15.34 4.67 -14.68 4.34 -14 4 C-14 3.01 -14 2.02 -14 1 C-9.27616037 0.34843591 -4.78025483 -0.11950637 0 0 Z M-18 4 C-17.34 4.66 -16.68 5.32 -16 6 C-16.99 6 -17.98 6 -19 6 C-18.67 5.34 -18.34 4.68 -18 4 Z " fill="#FCFCF2" transform="translate(217,456)"/>
<path d="M0 0 C-0.99 0.66 -1.98 1.32 -3 2 C-3.556875 2.70125 -4.11375 3.4025 -4.6875 4.125 C-8.16392148 6.94372012 -10.59654252 6.35511754 -15 6 C-15.66 5.67 -16.32 5.34 -17 5 C-18.66619446 4.9603287 -20.33391013 4.95615553 -22 5 C-18.62851015 2.7523401 -16.0762778 2.20201163 -12.125 1.375 C-10.91070312 1.11460937 -9.69640625 0.85421875 -8.4453125 0.5859375 C-5.52909158 0.08998156 -2.94382903 -0.12312593 0 0 Z " fill="#D4D3C9" transform="translate(191,459)"/>
<path d="M0 0 C2.06277107 0.14194764 4.12521031 0.28872216 6.1875 0.4375 C7.91033203 0.55931641 7.91033203 0.55931641 9.66796875 0.68359375 C12.51598171 0.95403812 15.21210482 1.37521747 18 2 C18 2.33 18 2.66 18 3 C16.35 3 14.7 3 13 3 C12.67 3.99 12.34 4.98 12 6 C11.67 5.34 11.34 4.68 11 4 C11.33 3.34 11.66 2.68 12 2 C10.02 2.33 8.04 2.66 6 3 C6.33 3.99 6.66 4.98 7 6 C5.02 6.33 3.04 6.66 1 7 C1 6.01 1 5.02 1 4 C1.66 4 2.32 4 3 4 C3 3.34 3 2.68 3 2 C2.01 1.34 1.02 0.68 0 0 Z " fill="#BBB9AE" transform="translate(295,456)"/>
<path d="M0 0 C0.99 0.33 1.98 0.66 3 1 C-0.38121547 4.88213628 -0.38121547 4.88213628 -3.625 5.5 C-4.40875 5.665 -5.1925 5.83 -6 6 C-6.69937532 7.31647119 -7.36729133 8.65022151 -8 10 C-10.125 10.75 -10.125 10.75 -12 11 C-10.61172854 7.64501065 -9.14414226 5.84949545 -6 4 C-4.68 4 -3.36 4 -2 4 C-1.34 2.68 -0.68 1.36 0 0 Z M-15 11 C-14.01 11.33 -13.02 11.66 -12 12 C-14.375 13.5625 -14.375 13.5625 -17 15 C-17.66 14.67 -18.32 14.34 -19 14 C-17.68 13.67 -16.36 13.34 -15 13 C-15 12.34 -15 11.68 -15 11 Z " fill="#5F0133" transform="translate(348,130)"/>
<path d="M0 0 C-2.85923619 2.85923619 -10.53726613 1.99132035 -14.33203125 2.0625 C-17.22207139 2.0625 -20.11033068 2.04468561 -23 2 C-20.09975229 -0.90024771 -16.90829162 -0.63614621 -13 -1 C-11.56333984 -1.17402344 -11.56333984 -1.17402344 -10.09765625 -1.3515625 C-9.11667969 -1.46242187 -8.13570313 -1.57328125 -7.125 -1.6875 C-6.19945312 -1.79449219 -5.27390625 -1.90148437 -4.3203125 -2.01171875 C-2 -2 -2 -2 0 0 Z " fill="#751C41" transform="translate(273,252)"/>
<path d="M0 0 C0.14308594 0.61875 0.28617187 1.2375 0.43359375 1.875 C0.92525309 4.04102791 0.92525309 4.04102791 2.0625 6 C3 8 3 8 3 12 C0.625 13.625 0.625 13.625 -2 15 C-2.66 15.66 -3.32 16.32 -4 17 C-2.76123355 11.30694567 -1.43723997 5.64629987 0 0 Z " fill="#B8B7AD" transform="translate(92,48)"/>
<path d="M0 0 C0 0.33 0 0.66 0 1 C-4.40914783 2.10228696 -8.48382401 2.07654536 -13 2 C-13 2.99 -13 3.98 -13 5 C-16.29696105 6.09898702 -17.40494903 5.87124444 -20.6875 5.0625 C-21.49574219 4.86785156 -22.30398437 4.67320312 -23.13671875 4.47265625 C-23.75160156 4.31667969 -24.36648437 4.16070312 -25 4 C-25 3.67 -25 3.34 -25 3 C-21.95919579 2.49420286 -18.91753354 1.99519241 -15.875 1.5 C-14.59109375 1.28537109 -14.59109375 1.28537109 -13.28125 1.06640625 C-8.80328495 0.34304266 -4.55436565 -0.17918816 0 0 Z " fill="#9C9B94" transform="translate(216,455)"/>
<path d="M0 0 C0.66 0 1.32 0 2 0 C1.34 1.32 0.68 2.64 0 4 C-0.66 3.67 -1.32 3.34 -2 3 C-1.34 2.01 -0.68 1.02 0 0 Z M-3 4 C-3 4.99 -3 5.98 -3 7 C-6.5892845 10.37175211 -10.63469695 12.77616637 -15 15 C-15.66 14.67 -16.32 14.34 -17 14 C-13.82635843 10.55433201 -11.38999156 8.58527473 -7 7 C-6.67 6.34 -6.34 5.68 -6 5 C-5.01 4.67 -4.02 4.34 -3 4 Z " fill="#8A0E4A" transform="translate(227,115)"/>
<path d="M0 0 C1.5625 1.1875 1.5625 1.1875 3 3 C2.75546876 6.34192692 2.39456443 7.60543557 0 10 C-0.99 9.67 -1.98 9.34 -3 9 C-3 8.01 -3 7.02 -3 6 C-3.33 5.34 -3.66 4.68 -4 4 C-2.68 3.67 -1.36 3.34 0 3 C0 2.01 0 1.02 0 0 Z " fill="#ACABA2" transform="translate(373,480)"/>
<path d="M0 0 C1.32 0 2.64 0 4 0 C4.33 0.66 4.66 1.32 5 2 C5.99 2.33 6.98 2.66 8 3 C6.71937515 4.7074998 5.38232443 6.37373596 4 8 C3.34 8 2.68 8 2 8 C1.67 8.66 1.34 9.32 1 10 C0.67 9.01 0.34 8.02 0 7 C0.99 6.67 1.98 6.34 3 6 C1.68 5.01 0.36 4.02 -1 3 C-0.67 2.01 -0.34 1.02 0 0 Z " fill="#C1BFB3" transform="translate(379,225)"/>
<path d="M0 0 C0.91007812 0.00902344 1.82015625 0.01804687 2.7578125 0.02734375 C3.45648438 0.03894531 4.15515625 0.05054688 4.875 0.0625 C1.3728054 2.89059962 -1.74821335 3.96830334 -6.125 5.0625 C-6.455 3.7425 -6.785 2.4225 -7.125 1.0625 C-4.60024538 -0.19987731 -2.81299534 -0.03606404 0 0 Z " fill="#B7B5AC" transform="translate(324.125,273.9375)"/>
<path d="M0 0 C1.98 0.66 3.96 1.32 6 2 C5.34 3.65 4.68 5.3 4 7 C4.99 7.33 5.98 7.66 7 8 C6.34 9.32 5.68 10.64 5 12 C4.16180842 10.37750059 3.3295884 8.75191503 2.5 7.125 C2.0359375 6.22007812 1.571875 5.31515625 1.09375 4.3828125 C0 2 0 2 0 0 Z " fill="#AEADA5" transform="translate(88,186)"/>
<path d="M0 0 C1.32 0.33 2.64 0.66 4 1 C3.34 1 2.68 1 2 1 C2 1.66 2 2.32 2 3 C-2.51220891 6.91058106 -7.37895957 6.29469532 -13 6 C-13.33 5.34 -13.66 4.68 -14 4 C-10.7 4.33 -7.4 4.66 -4 5 C-4 4.34 -4 3.68 -4 3 C-3.01 3 -2.02 3 -1 3 C-0.67 2.01 -0.34 1.02 0 0 Z " fill="#660236" transform="translate(193,140)"/>
<path d="M0 0 C1.07174763 3.65188082 0.76411467 6.26432828 0 10 C-0.99 10.33 -1.98 10.66 -3 11 C-3.73323796 13.01508358 -3.73323796 13.01508358 -4 15 C-5 13 -5 13 -4.00390625 9.9609375 C-3.52824219 8.77757813 -3.05257812 7.59421875 -2.5625 6.375 C-2.08941406 5.18648438 -1.61632812 3.99796875 -1.12890625 2.7734375 C-0.75636719 1.85820313 -0.38382812 0.94296875 0 0 Z " fill="#A8A69E" transform="translate(84,75)"/>
<path d="M0 0 C1.63001953 0.01353516 1.63001953 0.01353516 3.29296875 0.02734375 C4.12441406 0.03894531 4.95585937 0.05054688 5.8125 0.0625 C2.86325061 1.68356548 0.17443006 2.54693268 -3.125 3.1875 C-4.37603516 3.43886719 -4.37603516 3.43886719 -5.65234375 3.6953125 C-8.20208019 4.06461177 -10.61509067 4.12692528 -13.1875 4.0625 C-11.8675 3.7325 -10.5475 3.4025 -9.1875 3.0625 C-9.1875 2.4025 -9.1875 1.7425 -9.1875 1.0625 C-5.90230525 -0.03256492 -3.45086585 -0.03710608 0 0 Z " fill="#95948D" transform="translate(285.1875,287.9375)"/>
<path d="M0 0 C0.33 0.66 0.66 1.32 1 2 C1.99 2 2.98 2 4 2 C4.33 1.34 4.66 0.68 5 0 C6.65 0.33 8.3 0.66 10 1 C5.68516188 3.31152042 2.14284126 4.13445355 -2.75 4.0625 C-3.54921875 4.05347656 -4.3484375 4.04445313 -5.171875 4.03515625 C-5.77515625 4.02355469 -6.3784375 4.01195312 -7 4 C-7 3.67 -7 3.34 -7 3 C-3.535 2.505 -3.535 2.505 0 2 C0 1.34 0 0.68 0 0 Z " fill="#F2F0E6" transform="translate(346,491)"/>
<path d="M0 0 C1.875 0.3125 1.875 0.3125 4 1 C4.66 1.99 5.32 2.98 6 4 C9.47338282 4.37550085 12.61292998 3.77418743 16 3 C13.4837345 5.41561488 12.07967359 5.98985972 8.5625 6.4375 C4.46285731 5.93403511 2.84833335 4.93464648 0 2 C0 1.34 0 0.68 0 0 Z " fill="#5B0031" transform="translate(296,154)"/>
<path d="M0 0 C0.66 0.33 1.32 0.66 2 1 C1.01 2.485 1.01 2.485 0 4 C0.99 4.66 1.98 5.32 3 6 C2.01 7.485 2.01 7.485 1 9 C-0.32 8.34 -1.64 7.68 -3 7 C-2.25 2.25 -2.25 2.25 0 0 Z " fill="#999891" transform="translate(127,480)"/>
<path d="M0 0 C1.8125 0.1875 1.8125 0.1875 4 1 C7 5.17857143 7 5.17857143 7 8 C7.99 8.33 8.98 8.66 10 9 C9.67 9.99 9.34 10.98 9 12 C7.49707257 10.18992669 5.99772829 8.37687764 4.5 6.5625 C3.6646875 5.55316406 2.829375 4.54382813 1.96875 3.50390625 C0 1 0 1 0 0 Z " fill="#8A204E" transform="translate(129,192)"/>
<path d="M0 0 C0.66 0.33 1.32 0.66 2 1 C1.54177532 4.46941546 1.10868317 7.67395049 0 11 C-0.66 11 -1.32 11 -2 11 C-1.85892253 9.54119891 -1.71197585 8.08296449 -1.5625 6.625 C-1.48128906 5.81289062 -1.40007812 5.00078125 -1.31640625 4.1640625 C-1 2 -1 2 0 0 Z " fill="#6D0935" transform="translate(394,141)"/>
<path d="M0 0 C-0.66 0 -1.32 0 -2 0 C-2.33 0.66 -2.66 1.32 -3 2 C-8.24055755 5.14433453 -8.24055755 5.14433453 -11.19921875 4.58203125 C-11.79347656 4.38996094 -12.38773438 4.19789063 -13 4 C-11.40233897 3.13372601 -9.79660056 2.28233535 -8.1875 1.4375 C-7.29417969 0.96183594 -6.40085938 0.48617188 -5.48046875 -0.00390625 C-3 -1 -3 -1 0 0 Z " fill="#93928A" transform="translate(145,473)"/>
<path d="M0 0 C0.66 0 1.32 0 2 0 C1.34 4.29 0.68 8.58 0 13 C-0.66 12.67 -1.32 12.34 -2 12 C-2.21278058 7.53160785 -1.59138085 4.17737474 0 0 Z " fill="#71153E" transform="translate(399,123)"/>
<path d="M0 0 C0.99 0.33 1.98 0.66 3 1 C3 1.66 3 2.32 3 3 C3.78375 3.103125 4.5675 3.20625 5.375 3.3125 C8 4 8 4 10 7 C5.94718288 5.77472971 2.55639236 4.30119506 -1 2 C-0.67 1.34 -0.34 0.68 0 0 Z " fill="#8E2350" transform="translate(185,236)"/>
<path d="M0 0 C0.66666667 2.66666667 1.33333333 5.33333333 2 8 C0.35 8.66 -1.3 9.32 -3 10 C-2.01 6.7 -1.02 3.4 0 0 Z " fill="#DFC0C3" transform="translate(395,146)"/>
<path d="M0 0 C4.455 1.98 4.455 1.98 9 4 C9 4.66 9 5.32 9 6 C6.03 5.505 6.03 5.505 3 5 C3 4.34 3 3.68 3 3 C2.01 2.67 1.02 2.34 0 2 C0 1.34 0 0.68 0 0 Z " fill="#F5D9E1" transform="translate(184,238)"/>
<path d="M0 0 C1.32 0.66 2.64 1.32 4 2 C-0.625 5 -0.625 5 -4 5 C-3 2 -3 2 0 0 Z " fill="#6D0D37" transform="translate(314,235)"/>
<path d="M0 0 C1.3921875 0.3403125 1.3921875 0.3403125 2.8125 0.6875 C0.42676621 2.57963369 -1.25925348 3.71141783 -4.1875 4.6875 C-4.8475 4.0275 -5.5075 3.3675 -6.1875 2.6875 C-4.14987265 -0.14253799 -3.59070275 -0.35202968 0 0 Z " fill="#761340" transform="translate(322.1875,232.3125)"/>
<path d="M0 0 C0.99 0.33 1.98 0.66 3 1 C3 1.66 3 2.32 3 3 C-0.96 4.98 -0.96 4.98 -5 7 C-5 6.01 -5 5.02 -5 4 C-4.360625 3.71125 -3.72125 3.4225 -3.0625 3.125 C-0.84793921 2.17176549 -0.84793921 2.17176549 0 0 Z " fill="#74153F" transform="translate(330,226)"/>
<path d="M0 0 C0.33 0.66 0.66 1.32 1 2 C0.00390625 3.9453125 0.00390625 3.9453125 -1.4375 6.125 C-1.91058594 6.84945312 -2.38367188 7.57390625 -2.87109375 8.3203125 C-3.24363281 8.87460938 -3.61617188 9.42890625 -4 10 C-4.33 9.34 -4.66 8.68 -5 8 C-2.51612903 1.25806452 -2.51612903 1.25806452 0 0 Z " fill="#96958D" transform="translate(402,203)"/>
<path d="M0 0 C2.475 0.495 2.475 0.495 5 1 C6.28317892 4.84953676 6.06643637 7.94738135 6 12 C5.67 12 5.34 12 5 12 C4.9175 10.948125 4.835 9.89625 4.75 8.8125 C3.94679238 4.72952791 2.80665291 2.9877273 0 0 Z " fill="#680338" transform="translate(279,144)"/>
<path d="M0 0 C4.21912747 0.4794463 6.79663178 1.16625119 10 4 C9.01 4.33 8.02 4.66 7 5 C7 4.34 7 3.68 7 3 C5.68 3.33 4.36 3.66 3 4 C2.67 3.01 2.34 2.02 2 1 C1.34 0.67 0.68 0.34 0 0 Z M0 3 C2 4 2 4 2 4 Z " fill="#96958C" transform="translate(352,470)"/>
<path d="M0 0 C0 0.99 0 1.98 0 3 C-2.5 5.1875 -2.5 5.1875 -5 7 C-5.33 5.35 -5.66 3.7 -6 2 C-4.02 1.34 -2.04 0.68 0 0 Z " fill="#6D0935" transform="translate(358,205)"/>
<path d="M0 0 C1 3 1 3 0.22265625 4.82421875 C-0.8515625 6.54947917 -1.92578125 8.27473958 -3 10 C-3.66 9.01 -4.32 8.02 -5 7 C-3.35 4.69 -1.7 2.38 0 0 Z " fill="#6A0C34" transform="translate(387,163)"/>
<path d="M0 0 C-3.08888522 2.05925681 -3.70935927 2.2390374 -7.1875 2.125 C-9.0746875 2.063125 -9.0746875 2.063125 -11 2 C-6.98764085 -0.6749061 -4.6342454 -1.48957888 0 0 Z " fill="#908F87" transform="translate(180,462)"/>
<path d="M0 0 C0.66 0.33 1.32 0.66 2 1 C1.525625 1.598125 1.05125 2.19625 0.5625 2.8125 C-1.16465744 5.00382924 -1.16465744 5.00382924 -2 8 C-2.99 7.01 -3.98 6.02 -5 5 C-3.35 3.35 -1.7 1.7 0 0 Z " fill="#F1D7D8" transform="translate(366,199)"/>
<path d="M0 0 C2.475 0.99 2.475 0.99 5 2 C4.67 3.32 4.34 4.64 4 6 C3.34 6 2.68 6 2 6 C0 3 0 3 0 0 Z " fill="#6F0B3C" transform="translate(386,156)"/>
<path d="M0 0 C0.66 0.33 1.32 0.66 2 1 C-0.31 3.31 -2.62 5.62 -5 8 C-5.33 7.01 -5.66 6.02 -6 5 C-4.02 3.35 -2.04 1.7 0 0 Z " fill="#830B46" transform="translate(203,134)"/>
<path d="M0 0 C1.65 0 3.3 0 5 0 C5.66 2.64 6.32 5.28 7 8 C4.35247996 5.42215154 2.05567935 3.08351902 0 0 Z " fill="#630134" transform="translate(152,111)"/>
<path d="M0 0 C1.65 0.33 3.3 0.66 5 1 C4.67 1.99 4.34 2.98 4 4 C1.36 3.67 -1.28 3.34 -4 3 C-2.68 2.67 -1.36 2.34 0 2 C0 1.34 0 0.68 0 0 Z " fill="#B8B7AD" transform="translate(142,490)"/>
</svg>
